G04 #@! TF.GenerationSoftware,KiCad,Pcbnew,(5.1.5)-3*
G04 #@! TF.CreationDate,2020-11-01T19:56:02+02:00*
G04 #@! TF.ProjectId,BLDC_FUSION_2020,424c4443-5f46-4555-9349-4f4e5f323032,2 Not Ordered*
G04 #@! TF.SameCoordinates,PX6dac2c0PY8583b00*
G04 #@! TF.FileFunction,Soldermask,Bot*
G04 #@! TF.FilePolarity,Negative*
%FSLAX46Y46*%
G04 Gerber Fmt 4.6, Leading zero omitted, Abs format (unit mm)*
G04 Created by KiCad (PCBNEW (5.1.5)-3) date 2020-11-01 19:56:02*
%MOMM*%
%LPD*%
G04 APERTURE LIST*
%ADD10C,0.100000*%
G04 APERTURE END LIST*
D10*
G36*
X256375256Y5608702D02*
G01*
X256481579Y5587553D01*
X256782042Y5463097D01*
X257052451Y5282415D01*
X257282415Y5052451D01*
X257463097Y4782042D01*
X257587553Y4481579D01*
X257651000Y4162609D01*
X257651000Y3837391D01*
X257587553Y3518421D01*
X257463097Y3217958D01*
X257282415Y2947549D01*
X257052451Y2717585D01*
X256782042Y2536903D01*
X256481579Y2412447D01*
X256375256Y2391298D01*
X256162611Y2349000D01*
X255837389Y2349000D01*
X255624744Y2391298D01*
X255518421Y2412447D01*
X255217958Y2536903D01*
X254947549Y2717585D01*
X254717585Y2947549D01*
X254536903Y3217958D01*
X254412447Y3518421D01*
X254349000Y3837391D01*
X254349000Y4162609D01*
X254412447Y4481579D01*
X254536903Y4782042D01*
X254717585Y5052451D01*
X254947549Y5282415D01*
X255217958Y5463097D01*
X255518421Y5587553D01*
X255624744Y5608702D01*
X255837389Y5651000D01*
X256162611Y5651000D01*
X256375256Y5608702D01*
G37*
G36*
X123375256Y5608702D02*
G01*
X123481579Y5587553D01*
X123782042Y5463097D01*
X124052451Y5282415D01*
X124282415Y5052451D01*
X124463097Y4782042D01*
X124587553Y4481579D01*
X124651000Y4162609D01*
X124651000Y3837391D01*
X124587553Y3518421D01*
X124463097Y3217958D01*
X124282415Y2947549D01*
X124052451Y2717585D01*
X123782042Y2536903D01*
X123481579Y2412447D01*
X123375256Y2391298D01*
X123162611Y2349000D01*
X122837389Y2349000D01*
X122624744Y2391298D01*
X122518421Y2412447D01*
X122217958Y2536903D01*
X121947549Y2717585D01*
X121717585Y2947549D01*
X121536903Y3217958D01*
X121412447Y3518421D01*
X121349000Y3837391D01*
X121349000Y4162609D01*
X121412447Y4481579D01*
X121536903Y4782042D01*
X121717585Y5052451D01*
X121947549Y5282415D01*
X122217958Y5463097D01*
X122518421Y5587553D01*
X122624744Y5608702D01*
X122837389Y5651000D01*
X123162611Y5651000D01*
X123375256Y5608702D01*
G37*
G36*
X4375256Y5608702D02*
G01*
X4481579Y5587553D01*
X4782042Y5463097D01*
X5052451Y5282415D01*
X5282415Y5052451D01*
X5463097Y4782042D01*
X5587553Y4481579D01*
X5651000Y4162609D01*
X5651000Y3837391D01*
X5587553Y3518421D01*
X5463097Y3217958D01*
X5282415Y2947549D01*
X5052451Y2717585D01*
X4782042Y2536903D01*
X4481579Y2412447D01*
X4375256Y2391298D01*
X4162611Y2349000D01*
X3837389Y2349000D01*
X3624744Y2391298D01*
X3518421Y2412447D01*
X3217958Y2536903D01*
X2947549Y2717585D01*
X2717585Y2947549D01*
X2536903Y3217958D01*
X2412447Y3518421D01*
X2349000Y3837391D01*
X2349000Y4162609D01*
X2412447Y4481579D01*
X2536903Y4782042D01*
X2717585Y5052451D01*
X2947549Y5282415D01*
X3217958Y5463097D01*
X3518421Y5587553D01*
X3624744Y5608702D01*
X3837389Y5651000D01*
X4162611Y5651000D01*
X4375256Y5608702D01*
G37*
G36*
X193720903Y8861925D02*
G01*
X193948571Y8767622D01*
X194153466Y8630715D01*
X194327715Y8456466D01*
X194464622Y8251571D01*
X194558925Y8023903D01*
X194607000Y7782213D01*
X194607000Y7535787D01*
X194558925Y7294097D01*
X194464622Y7066429D01*
X194327715Y6861534D01*
X194153466Y6687285D01*
X193948571Y6550378D01*
X193948570Y6550377D01*
X193948569Y6550377D01*
X193720903Y6456075D01*
X193479214Y6408000D01*
X193232786Y6408000D01*
X192991097Y6456075D01*
X192763431Y6550377D01*
X192763430Y6550377D01*
X192763429Y6550378D01*
X192558534Y6687285D01*
X192384285Y6861534D01*
X192247378Y7066429D01*
X192153075Y7294097D01*
X192105000Y7535787D01*
X192105000Y7782213D01*
X192153075Y8023903D01*
X192247378Y8251571D01*
X192384285Y8456466D01*
X192558534Y8630715D01*
X192763429Y8767622D01*
X192991097Y8861925D01*
X193232786Y8910000D01*
X193479214Y8910000D01*
X193720903Y8861925D01*
G37*
G36*
X215564903Y8861925D02*
G01*
X215792571Y8767622D01*
X215997466Y8630715D01*
X216171715Y8456466D01*
X216308622Y8251571D01*
X216402925Y8023903D01*
X216451000Y7782213D01*
X216451000Y7535787D01*
X216402925Y7294097D01*
X216308622Y7066429D01*
X216171715Y6861534D01*
X215997466Y6687285D01*
X215792571Y6550378D01*
X215792570Y6550377D01*
X215792569Y6550377D01*
X215564903Y6456075D01*
X215323214Y6408000D01*
X215076786Y6408000D01*
X214835097Y6456075D01*
X214607431Y6550377D01*
X214607430Y6550377D01*
X214607429Y6550378D01*
X214402534Y6687285D01*
X214228285Y6861534D01*
X214091378Y7066429D01*
X213997075Y7294097D01*
X213949000Y7535787D01*
X213949000Y7782213D01*
X213997075Y8023903D01*
X214091378Y8251571D01*
X214228285Y8456466D01*
X214402534Y8630715D01*
X214607429Y8767622D01*
X214835097Y8861925D01*
X215076786Y8910000D01*
X215323214Y8910000D01*
X215564903Y8861925D01*
G37*
G36*
X237408903Y8861925D02*
G01*
X237636571Y8767622D01*
X237841466Y8630715D01*
X238015715Y8456466D01*
X238152622Y8251571D01*
X238246925Y8023903D01*
X238295000Y7782213D01*
X238295000Y7535787D01*
X238246925Y7294097D01*
X238152622Y7066429D01*
X238015715Y6861534D01*
X237841466Y6687285D01*
X237636571Y6550378D01*
X237636570Y6550377D01*
X237636569Y6550377D01*
X237408903Y6456075D01*
X237167214Y6408000D01*
X236920786Y6408000D01*
X236679097Y6456075D01*
X236451431Y6550377D01*
X236451430Y6550377D01*
X236451429Y6550378D01*
X236246534Y6687285D01*
X236072285Y6861534D01*
X235935378Y7066429D01*
X235841075Y7294097D01*
X235793000Y7535787D01*
X235793000Y7782213D01*
X235841075Y8023903D01*
X235935378Y8251571D01*
X236072285Y8456466D01*
X236246534Y8630715D01*
X236451429Y8767622D01*
X236679097Y8861925D01*
X236920786Y8910000D01*
X237167214Y8910000D01*
X237408903Y8861925D01*
G37*
G36*
X238295000Y13908000D02*
G01*
X235793000Y13908000D01*
X235793000Y16410000D01*
X238295000Y16410000D01*
X238295000Y13908000D01*
G37*
G36*
X216451000Y13908000D02*
G01*
X213949000Y13908000D01*
X213949000Y16410000D01*
X216451000Y16410000D01*
X216451000Y13908000D01*
G37*
G36*
X194607000Y13908000D02*
G01*
X192105000Y13908000D01*
X192105000Y16410000D01*
X194607000Y16410000D01*
X194607000Y13908000D01*
G37*
G36*
X185000000Y22500000D02*
G01*
X168000000Y22500000D01*
X168000000Y35000000D01*
X185000000Y35000000D01*
X185000000Y22500000D01*
G37*
G36*
X235000000Y22500000D02*
G01*
X218000000Y22500000D01*
X218000000Y35000000D01*
X235000000Y35000000D01*
X235000000Y22500000D01*
G37*
G36*
X203703000Y39159000D02*
G01*
X197601000Y39159000D01*
X197601000Y45261000D01*
X203703000Y45261000D01*
X203703000Y39159000D01*
G37*
G36*
X226550720Y43052480D02*
G01*
X226739881Y42995099D01*
X226914212Y42901917D01*
X227067015Y42776515D01*
X227192417Y42623712D01*
X227232984Y42547816D01*
X227285598Y42449383D01*
X227285599Y42449380D01*
X227342980Y42260219D01*
X227357500Y42112793D01*
X227357500Y41919206D01*
X227342980Y41771780D01*
X227285599Y41582619D01*
X227192417Y41408288D01*
X227067015Y41255485D01*
X226914212Y41130083D01*
X226832333Y41086318D01*
X226739883Y41036902D01*
X226739880Y41036901D01*
X226550719Y40979520D01*
X226354000Y40960145D01*
X226157280Y40979520D01*
X225968119Y41036901D01*
X225793788Y41130083D01*
X225640985Y41255485D01*
X225515583Y41408288D01*
X225471818Y41490167D01*
X225422402Y41582617D01*
X225422401Y41582620D01*
X225365020Y41771781D01*
X225350500Y41919207D01*
X225350500Y42112794D01*
X225365020Y42260220D01*
X225422401Y42449381D01*
X225515583Y42623712D01*
X225640985Y42776515D01*
X225793788Y42901917D01*
X225968120Y42995099D01*
X226157281Y43052480D01*
X226354000Y43071855D01*
X226550720Y43052480D01*
G37*
G36*
X224010720Y43052480D02*
G01*
X224199881Y42995099D01*
X224374212Y42901917D01*
X224527015Y42776515D01*
X224652417Y42623712D01*
X224692984Y42547816D01*
X224745598Y42449383D01*
X224745599Y42449380D01*
X224802980Y42260219D01*
X224817500Y42112793D01*
X224817500Y41919206D01*
X224802980Y41771780D01*
X224745599Y41582619D01*
X224652417Y41408288D01*
X224527015Y41255485D01*
X224374212Y41130083D01*
X224292333Y41086318D01*
X224199883Y41036902D01*
X224199880Y41036901D01*
X224010719Y40979520D01*
X223814000Y40960145D01*
X223617280Y40979520D01*
X223428119Y41036901D01*
X223253788Y41130083D01*
X223100985Y41255485D01*
X222975583Y41408288D01*
X222931818Y41490167D01*
X222882402Y41582617D01*
X222882401Y41582620D01*
X222825020Y41771781D01*
X222810500Y41919207D01*
X222810500Y42112794D01*
X222825020Y42260220D01*
X222882401Y42449381D01*
X222975583Y42623712D01*
X223100985Y42776515D01*
X223253788Y42901917D01*
X223428120Y42995099D01*
X223617281Y43052480D01*
X223814000Y43071855D01*
X224010720Y43052480D01*
G37*
G36*
X176550720Y43052480D02*
G01*
X176739881Y42995099D01*
X176914212Y42901917D01*
X177067015Y42776515D01*
X177192417Y42623712D01*
X177232984Y42547816D01*
X177285598Y42449383D01*
X177285599Y42449380D01*
X177342980Y42260219D01*
X177357500Y42112793D01*
X177357500Y41919206D01*
X177342980Y41771780D01*
X177285599Y41582619D01*
X177192417Y41408288D01*
X177067015Y41255485D01*
X176914212Y41130083D01*
X176832333Y41086318D01*
X176739883Y41036902D01*
X176739880Y41036901D01*
X176550719Y40979520D01*
X176354000Y40960145D01*
X176157280Y40979520D01*
X175968119Y41036901D01*
X175793788Y41130083D01*
X175640985Y41255485D01*
X175515583Y41408288D01*
X175471818Y41490167D01*
X175422402Y41582617D01*
X175422401Y41582620D01*
X175365020Y41771781D01*
X175350500Y41919207D01*
X175350500Y42112794D01*
X175365020Y42260220D01*
X175422401Y42449381D01*
X175515583Y42623712D01*
X175640985Y42776515D01*
X175793788Y42901917D01*
X175968120Y42995099D01*
X176157281Y43052480D01*
X176354000Y43071855D01*
X176550720Y43052480D01*
G37*
G36*
X174010720Y43052480D02*
G01*
X174199881Y42995099D01*
X174374212Y42901917D01*
X174527015Y42776515D01*
X174652417Y42623712D01*
X174692984Y42547816D01*
X174745598Y42449383D01*
X174745599Y42449380D01*
X174802980Y42260219D01*
X174817500Y42112793D01*
X174817500Y41919206D01*
X174802980Y41771780D01*
X174745599Y41582619D01*
X174652417Y41408288D01*
X174527015Y41255485D01*
X174374212Y41130083D01*
X174292333Y41086318D01*
X174199883Y41036902D01*
X174199880Y41036901D01*
X174010719Y40979520D01*
X173814000Y40960145D01*
X173617280Y40979520D01*
X173428119Y41036901D01*
X173253788Y41130083D01*
X173100985Y41255485D01*
X172975583Y41408288D01*
X172931818Y41490167D01*
X172882402Y41582617D01*
X172882401Y41582620D01*
X172825020Y41771781D01*
X172810500Y41919207D01*
X172810500Y42112794D01*
X172825020Y42260220D01*
X172882401Y42449381D01*
X172975583Y42623712D01*
X173100985Y42776515D01*
X173253788Y42901917D01*
X173428120Y42995099D01*
X173617281Y43052480D01*
X173814000Y43071855D01*
X174010720Y43052480D01*
G37*
G36*
X229897500Y40965000D02*
G01*
X227890500Y40965000D01*
X227890500Y43067000D01*
X229897500Y43067000D01*
X229897500Y40965000D01*
G37*
G36*
X179897500Y40965000D02*
G01*
X177890500Y40965000D01*
X177890500Y43067000D01*
X179897500Y43067000D01*
X179897500Y40965000D01*
G37*
G36*
X48919000Y41613000D02*
G01*
X47217000Y41613000D01*
X47217000Y43315000D01*
X48919000Y43315000D01*
X48919000Y41613000D01*
G37*
G36*
X33076228Y43282297D02*
G01*
X33231100Y43218147D01*
X33370481Y43125015D01*
X33489015Y43006481D01*
X33582147Y42867100D01*
X33646297Y42712228D01*
X33679000Y42547816D01*
X33679000Y42380184D01*
X33646297Y42215772D01*
X33582147Y42060900D01*
X33489015Y41921519D01*
X33370481Y41802985D01*
X33231100Y41709853D01*
X33076228Y41645703D01*
X32911816Y41613000D01*
X32744184Y41613000D01*
X32579772Y41645703D01*
X32424900Y41709853D01*
X32285519Y41802985D01*
X32166985Y41921519D01*
X32073853Y42060900D01*
X32009703Y42215772D01*
X31977000Y42380184D01*
X31977000Y42547816D01*
X32009703Y42712228D01*
X32073853Y42867100D01*
X32166985Y43006481D01*
X32285519Y43125015D01*
X32424900Y43218147D01*
X32579772Y43282297D01*
X32744184Y43315000D01*
X32911816Y43315000D01*
X33076228Y43282297D01*
G37*
G36*
X48316228Y45822297D02*
G01*
X48471100Y45758147D01*
X48610481Y45665015D01*
X48729015Y45546481D01*
X48822147Y45407100D01*
X48886297Y45252228D01*
X48919000Y45087816D01*
X48919000Y44920184D01*
X48886297Y44755772D01*
X48822147Y44600900D01*
X48729015Y44461519D01*
X48610481Y44342985D01*
X48471100Y44249853D01*
X48316228Y44185703D01*
X48151816Y44153000D01*
X47984184Y44153000D01*
X47819772Y44185703D01*
X47664900Y44249853D01*
X47525519Y44342985D01*
X47406985Y44461519D01*
X47313853Y44600900D01*
X47249703Y44755772D01*
X47217000Y44920184D01*
X47217000Y45087816D01*
X47249703Y45252228D01*
X47313853Y45407100D01*
X47406985Y45546481D01*
X47525519Y45665015D01*
X47664900Y45758147D01*
X47819772Y45822297D01*
X47984184Y45855000D01*
X48151816Y45855000D01*
X48316228Y45822297D01*
G37*
G36*
X33076228Y45822297D02*
G01*
X33231100Y45758147D01*
X33370481Y45665015D01*
X33489015Y45546481D01*
X33582147Y45407100D01*
X33646297Y45252228D01*
X33679000Y45087816D01*
X33679000Y44920184D01*
X33646297Y44755772D01*
X33582147Y44600900D01*
X33489015Y44461519D01*
X33370481Y44342985D01*
X33231100Y44249853D01*
X33076228Y44185703D01*
X32911816Y44153000D01*
X32744184Y44153000D01*
X32579772Y44185703D01*
X32424900Y44249853D01*
X32285519Y44342985D01*
X32166985Y44461519D01*
X32073853Y44600900D01*
X32009703Y44755772D01*
X31977000Y44920184D01*
X31977000Y45087816D01*
X32009703Y45252228D01*
X32073853Y45407100D01*
X32166985Y45546481D01*
X32285519Y45665015D01*
X32424900Y45758147D01*
X32579772Y45822297D01*
X32744184Y45855000D01*
X32911816Y45855000D01*
X33076228Y45822297D01*
G37*
G36*
X33076228Y48362297D02*
G01*
X33231100Y48298147D01*
X33370481Y48205015D01*
X33489015Y48086481D01*
X33582147Y47947100D01*
X33646297Y47792228D01*
X33679000Y47627816D01*
X33679000Y47460184D01*
X33646297Y47295772D01*
X33582147Y47140900D01*
X33489015Y47001519D01*
X33370481Y46882985D01*
X33231100Y46789853D01*
X33076228Y46725703D01*
X32911816Y46693000D01*
X32744184Y46693000D01*
X32579772Y46725703D01*
X32424900Y46789853D01*
X32285519Y46882985D01*
X32166985Y47001519D01*
X32073853Y47140900D01*
X32009703Y47295772D01*
X31977000Y47460184D01*
X31977000Y47627816D01*
X32009703Y47792228D01*
X32073853Y47947100D01*
X32166985Y48086481D01*
X32285519Y48205015D01*
X32424900Y48298147D01*
X32579772Y48362297D01*
X32744184Y48395000D01*
X32911816Y48395000D01*
X33076228Y48362297D01*
G37*
G36*
X48316228Y48362297D02*
G01*
X48471100Y48298147D01*
X48610481Y48205015D01*
X48729015Y48086481D01*
X48822147Y47947100D01*
X48886297Y47792228D01*
X48919000Y47627816D01*
X48919000Y47460184D01*
X48886297Y47295772D01*
X48822147Y47140900D01*
X48729015Y47001519D01*
X48610481Y46882985D01*
X48471100Y46789853D01*
X48316228Y46725703D01*
X48151816Y46693000D01*
X47984184Y46693000D01*
X47819772Y46725703D01*
X47664900Y46789853D01*
X47525519Y46882985D01*
X47406985Y47001519D01*
X47313853Y47140900D01*
X47249703Y47295772D01*
X47217000Y47460184D01*
X47217000Y47627816D01*
X47249703Y47792228D01*
X47313853Y47947100D01*
X47406985Y48086481D01*
X47525519Y48205015D01*
X47664900Y48298147D01*
X47819772Y48362297D01*
X47984184Y48395000D01*
X48151816Y48395000D01*
X48316228Y48362297D01*
G37*
G36*
X235000000Y49000000D02*
G01*
X228051647Y49000000D01*
X228027261Y48997598D01*
X228003812Y48990485D01*
X227982201Y48978934D01*
X227963259Y48963389D01*
X227947714Y48944447D01*
X227752928Y48652930D01*
X227502070Y48402072D01*
X227207092Y48204974D01*
X226879331Y48069211D01*
X226531384Y48000000D01*
X226176616Y48000000D01*
X225828669Y48069211D01*
X225500908Y48204974D01*
X225205930Y48402072D01*
X224955072Y48652930D01*
X224760286Y48944447D01*
X224744741Y48963389D01*
X224725799Y48978934D01*
X224704188Y48990485D01*
X224680739Y48997598D01*
X224656353Y49000000D01*
X218000000Y49000000D01*
X218000000Y59500000D01*
X235000000Y59500000D01*
X235000000Y49000000D01*
G37*
G36*
X185000000Y49000000D02*
G01*
X178051647Y49000000D01*
X178027261Y48997598D01*
X178003812Y48990485D01*
X177982201Y48978934D01*
X177963259Y48963389D01*
X177947714Y48944447D01*
X177752928Y48652930D01*
X177502070Y48402072D01*
X177207092Y48204974D01*
X176879331Y48069211D01*
X176531384Y48000000D01*
X176176616Y48000000D01*
X175828669Y48069211D01*
X175500908Y48204974D01*
X175205930Y48402072D01*
X174955072Y48652930D01*
X174760286Y48944447D01*
X174744741Y48963389D01*
X174725799Y48978934D01*
X174704188Y48990485D01*
X174680739Y48997598D01*
X174656353Y49000000D01*
X168000000Y49000000D01*
X168000000Y59500000D01*
X185000000Y59500000D01*
X185000000Y49000000D01*
G37*
G36*
X48316228Y50902297D02*
G01*
X48471100Y50838147D01*
X48610481Y50745015D01*
X48729015Y50626481D01*
X48822147Y50487100D01*
X48886297Y50332228D01*
X48919000Y50167816D01*
X48919000Y50000184D01*
X48886297Y49835772D01*
X48822147Y49680900D01*
X48729015Y49541519D01*
X48610481Y49422985D01*
X48471100Y49329853D01*
X48316228Y49265703D01*
X48151816Y49233000D01*
X47984184Y49233000D01*
X47819772Y49265703D01*
X47664900Y49329853D01*
X47525519Y49422985D01*
X47406985Y49541519D01*
X47313853Y49680900D01*
X47249703Y49835772D01*
X47217000Y50000184D01*
X47217000Y50167816D01*
X47249703Y50332228D01*
X47313853Y50487100D01*
X47406985Y50626481D01*
X47525519Y50745015D01*
X47664900Y50838147D01*
X47819772Y50902297D01*
X47984184Y50935000D01*
X48151816Y50935000D01*
X48316228Y50902297D01*
G37*
G36*
X33076228Y50902297D02*
G01*
X33231100Y50838147D01*
X33370481Y50745015D01*
X33489015Y50626481D01*
X33582147Y50487100D01*
X33646297Y50332228D01*
X33679000Y50167816D01*
X33679000Y50000184D01*
X33646297Y49835772D01*
X33582147Y49680900D01*
X33489015Y49541519D01*
X33370481Y49422985D01*
X33231100Y49329853D01*
X33076228Y49265703D01*
X32911816Y49233000D01*
X32744184Y49233000D01*
X32579772Y49265703D01*
X32424900Y49329853D01*
X32285519Y49422985D01*
X32166985Y49541519D01*
X32073853Y49680900D01*
X32009703Y49835772D01*
X31977000Y50000184D01*
X31977000Y50167816D01*
X32009703Y50332228D01*
X32073853Y50487100D01*
X32166985Y50626481D01*
X32285519Y50745015D01*
X32424900Y50838147D01*
X32579772Y50902297D01*
X32744184Y50935000D01*
X32911816Y50935000D01*
X33076228Y50902297D01*
G37*
G36*
X33076228Y53442297D02*
G01*
X33231100Y53378147D01*
X33370481Y53285015D01*
X33489015Y53166481D01*
X33582147Y53027100D01*
X33646297Y52872228D01*
X33679000Y52707816D01*
X33679000Y52540184D01*
X33646297Y52375772D01*
X33582147Y52220900D01*
X33489015Y52081519D01*
X33370481Y51962985D01*
X33231100Y51869853D01*
X33076228Y51805703D01*
X32911816Y51773000D01*
X32744184Y51773000D01*
X32579772Y51805703D01*
X32424900Y51869853D01*
X32285519Y51962985D01*
X32166985Y52081519D01*
X32073853Y52220900D01*
X32009703Y52375772D01*
X31977000Y52540184D01*
X31977000Y52707816D01*
X32009703Y52872228D01*
X32073853Y53027100D01*
X32166985Y53166481D01*
X32285519Y53285015D01*
X32424900Y53378147D01*
X32579772Y53442297D01*
X32744184Y53475000D01*
X32911816Y53475000D01*
X33076228Y53442297D01*
G37*
G36*
X48316228Y53442297D02*
G01*
X48471100Y53378147D01*
X48610481Y53285015D01*
X48729015Y53166481D01*
X48822147Y53027100D01*
X48886297Y52872228D01*
X48919000Y52707816D01*
X48919000Y52540184D01*
X48886297Y52375772D01*
X48822147Y52220900D01*
X48729015Y52081519D01*
X48610481Y51962985D01*
X48471100Y51869853D01*
X48316228Y51805703D01*
X48151816Y51773000D01*
X47984184Y51773000D01*
X47819772Y51805703D01*
X47664900Y51869853D01*
X47525519Y51962985D01*
X47406985Y52081519D01*
X47313853Y52220900D01*
X47249703Y52375772D01*
X47217000Y52540184D01*
X47217000Y52707816D01*
X47249703Y52872228D01*
X47313853Y53027100D01*
X47406985Y53166481D01*
X47525519Y53285015D01*
X47664900Y53378147D01*
X47819772Y53442297D01*
X47984184Y53475000D01*
X48151816Y53475000D01*
X48316228Y53442297D01*
G37*
G36*
X33076228Y55982297D02*
G01*
X33231100Y55918147D01*
X33370481Y55825015D01*
X33489015Y55706481D01*
X33582147Y55567100D01*
X33646297Y55412228D01*
X33679000Y55247816D01*
X33679000Y55080184D01*
X33646297Y54915772D01*
X33582147Y54760900D01*
X33489015Y54621519D01*
X33370481Y54502985D01*
X33231100Y54409853D01*
X33076228Y54345703D01*
X32911816Y54313000D01*
X32744184Y54313000D01*
X32579772Y54345703D01*
X32424900Y54409853D01*
X32285519Y54502985D01*
X32166985Y54621519D01*
X32073853Y54760900D01*
X32009703Y54915772D01*
X31977000Y55080184D01*
X31977000Y55247816D01*
X32009703Y55412228D01*
X32073853Y55567100D01*
X32166985Y55706481D01*
X32285519Y55825015D01*
X32424900Y55918147D01*
X32579772Y55982297D01*
X32744184Y56015000D01*
X32911816Y56015000D01*
X33076228Y55982297D01*
G37*
G36*
X48316228Y55982297D02*
G01*
X48471100Y55918147D01*
X48610481Y55825015D01*
X48729015Y55706481D01*
X48822147Y55567100D01*
X48886297Y55412228D01*
X48919000Y55247816D01*
X48919000Y55080184D01*
X48886297Y54915772D01*
X48822147Y54760900D01*
X48729015Y54621519D01*
X48610481Y54502985D01*
X48471100Y54409853D01*
X48316228Y54345703D01*
X48151816Y54313000D01*
X47984184Y54313000D01*
X47819772Y54345703D01*
X47664900Y54409853D01*
X47525519Y54502985D01*
X47406985Y54621519D01*
X47313853Y54760900D01*
X47249703Y54915772D01*
X47217000Y55080184D01*
X47217000Y55247816D01*
X47249703Y55412228D01*
X47313853Y55567100D01*
X47406985Y55706481D01*
X47525519Y55825015D01*
X47664900Y55918147D01*
X47819772Y55982297D01*
X47984184Y56015000D01*
X48151816Y56015000D01*
X48316228Y55982297D01*
G37*
G36*
X48316228Y58522297D02*
G01*
X48471100Y58458147D01*
X48610481Y58365015D01*
X48729015Y58246481D01*
X48822147Y58107100D01*
X48886297Y57952228D01*
X48919000Y57787816D01*
X48919000Y57620184D01*
X48886297Y57455772D01*
X48822147Y57300900D01*
X48729015Y57161519D01*
X48610481Y57042985D01*
X48471100Y56949853D01*
X48316228Y56885703D01*
X48151816Y56853000D01*
X47984184Y56853000D01*
X47819772Y56885703D01*
X47664900Y56949853D01*
X47525519Y57042985D01*
X47406985Y57161519D01*
X47313853Y57300900D01*
X47249703Y57455772D01*
X47217000Y57620184D01*
X47217000Y57787816D01*
X47249703Y57952228D01*
X47313853Y58107100D01*
X47406985Y58246481D01*
X47525519Y58365015D01*
X47664900Y58458147D01*
X47819772Y58522297D01*
X47984184Y58555000D01*
X48151816Y58555000D01*
X48316228Y58522297D01*
G37*
G36*
X33076228Y58522297D02*
G01*
X33231100Y58458147D01*
X33370481Y58365015D01*
X33489015Y58246481D01*
X33582147Y58107100D01*
X33646297Y57952228D01*
X33679000Y57787816D01*
X33679000Y57620184D01*
X33646297Y57455772D01*
X33582147Y57300900D01*
X33489015Y57161519D01*
X33370481Y57042985D01*
X33231100Y56949853D01*
X33076228Y56885703D01*
X32911816Y56853000D01*
X32744184Y56853000D01*
X32579772Y56885703D01*
X32424900Y56949853D01*
X32285519Y57042985D01*
X32166985Y57161519D01*
X32073853Y57300900D01*
X32009703Y57455772D01*
X31977000Y57620184D01*
X31977000Y57787816D01*
X32009703Y57952228D01*
X32073853Y58107100D01*
X32166985Y58246481D01*
X32285519Y58365015D01*
X32424900Y58458147D01*
X32579772Y58522297D01*
X32744184Y58555000D01*
X32911816Y58555000D01*
X33076228Y58522297D01*
G37*
G36*
X33076228Y61062297D02*
G01*
X33231100Y60998147D01*
X33370481Y60905015D01*
X33489015Y60786481D01*
X33582147Y60647100D01*
X33646297Y60492228D01*
X33679000Y60327816D01*
X33679000Y60160184D01*
X33646297Y59995772D01*
X33582147Y59840900D01*
X33489015Y59701519D01*
X33370481Y59582985D01*
X33231100Y59489853D01*
X33076228Y59425703D01*
X32911816Y59393000D01*
X32744184Y59393000D01*
X32579772Y59425703D01*
X32424900Y59489853D01*
X32285519Y59582985D01*
X32166985Y59701519D01*
X32073853Y59840900D01*
X32009703Y59995772D01*
X31977000Y60160184D01*
X31977000Y60327816D01*
X32009703Y60492228D01*
X32073853Y60647100D01*
X32166985Y60786481D01*
X32285519Y60905015D01*
X32424900Y60998147D01*
X32579772Y61062297D01*
X32744184Y61095000D01*
X32911816Y61095000D01*
X33076228Y61062297D01*
G37*
G36*
X48316228Y61062297D02*
G01*
X48471100Y60998147D01*
X48610481Y60905015D01*
X48729015Y60786481D01*
X48822147Y60647100D01*
X48886297Y60492228D01*
X48919000Y60327816D01*
X48919000Y60160184D01*
X48886297Y59995772D01*
X48822147Y59840900D01*
X48729015Y59701519D01*
X48610481Y59582985D01*
X48471100Y59489853D01*
X48316228Y59425703D01*
X48151816Y59393000D01*
X47984184Y59393000D01*
X47819772Y59425703D01*
X47664900Y59489853D01*
X47525519Y59582985D01*
X47406985Y59701519D01*
X47313853Y59840900D01*
X47249703Y59995772D01*
X47217000Y60160184D01*
X47217000Y60327816D01*
X47249703Y60492228D01*
X47313853Y60647100D01*
X47406985Y60786481D01*
X47525519Y60905015D01*
X47664900Y60998147D01*
X47819772Y61062297D01*
X47984184Y61095000D01*
X48151816Y61095000D01*
X48316228Y61062297D01*
G37*
G36*
X33076228Y63602297D02*
G01*
X33231100Y63538147D01*
X33370481Y63445015D01*
X33489015Y63326481D01*
X33582147Y63187100D01*
X33646297Y63032228D01*
X33679000Y62867816D01*
X33679000Y62700184D01*
X33646297Y62535772D01*
X33582147Y62380900D01*
X33489015Y62241519D01*
X33370481Y62122985D01*
X33231100Y62029853D01*
X33076228Y61965703D01*
X32911816Y61933000D01*
X32744184Y61933000D01*
X32579772Y61965703D01*
X32424900Y62029853D01*
X32285519Y62122985D01*
X32166985Y62241519D01*
X32073853Y62380900D01*
X32009703Y62535772D01*
X31977000Y62700184D01*
X31977000Y62867816D01*
X32009703Y63032228D01*
X32073853Y63187100D01*
X32166985Y63326481D01*
X32285519Y63445015D01*
X32424900Y63538147D01*
X32579772Y63602297D01*
X32744184Y63635000D01*
X32911816Y63635000D01*
X33076228Y63602297D01*
G37*
G36*
X48316228Y63602297D02*
G01*
X48471100Y63538147D01*
X48610481Y63445015D01*
X48729015Y63326481D01*
X48822147Y63187100D01*
X48886297Y63032228D01*
X48919000Y62867816D01*
X48919000Y62700184D01*
X48886297Y62535772D01*
X48822147Y62380900D01*
X48729015Y62241519D01*
X48610481Y62122985D01*
X48471100Y62029853D01*
X48316228Y61965703D01*
X48151816Y61933000D01*
X47984184Y61933000D01*
X47819772Y61965703D01*
X47664900Y62029853D01*
X47525519Y62122985D01*
X47406985Y62241519D01*
X47313853Y62380900D01*
X47249703Y62535772D01*
X47217000Y62700184D01*
X47217000Y62867816D01*
X47249703Y63032228D01*
X47313853Y63187100D01*
X47406985Y63326481D01*
X47525519Y63445015D01*
X47664900Y63538147D01*
X47819772Y63602297D01*
X47984184Y63635000D01*
X48151816Y63635000D01*
X48316228Y63602297D01*
G37*
G36*
X203773000Y63416000D02*
G01*
X197671000Y63416000D01*
X197671000Y69518000D01*
X203773000Y69518000D01*
X203773000Y63416000D01*
G37*
G36*
X33076228Y66142297D02*
G01*
X33231100Y66078147D01*
X33370481Y65985015D01*
X33489015Y65866481D01*
X33582147Y65727100D01*
X33646297Y65572228D01*
X33679000Y65407816D01*
X33679000Y65240184D01*
X33646297Y65075772D01*
X33582147Y64920900D01*
X33489015Y64781519D01*
X33370481Y64662985D01*
X33231100Y64569853D01*
X33076228Y64505703D01*
X32911816Y64473000D01*
X32744184Y64473000D01*
X32579772Y64505703D01*
X32424900Y64569853D01*
X32285519Y64662985D01*
X32166985Y64781519D01*
X32073853Y64920900D01*
X32009703Y65075772D01*
X31977000Y65240184D01*
X31977000Y65407816D01*
X32009703Y65572228D01*
X32073853Y65727100D01*
X32166985Y65866481D01*
X32285519Y65985015D01*
X32424900Y66078147D01*
X32579772Y66142297D01*
X32744184Y66175000D01*
X32911816Y66175000D01*
X33076228Y66142297D01*
G37*
G36*
X48316228Y66142297D02*
G01*
X48471100Y66078147D01*
X48610481Y65985015D01*
X48729015Y65866481D01*
X48822147Y65727100D01*
X48886297Y65572228D01*
X48919000Y65407816D01*
X48919000Y65240184D01*
X48886297Y65075772D01*
X48822147Y64920900D01*
X48729015Y64781519D01*
X48610481Y64662985D01*
X48471100Y64569853D01*
X48316228Y64505703D01*
X48151816Y64473000D01*
X47984184Y64473000D01*
X47819772Y64505703D01*
X47664900Y64569853D01*
X47525519Y64662985D01*
X47406985Y64781519D01*
X47313853Y64920900D01*
X47249703Y65075772D01*
X47217000Y65240184D01*
X47217000Y65407816D01*
X47249703Y65572228D01*
X47313853Y65727100D01*
X47406985Y65866481D01*
X47525519Y65985015D01*
X47664900Y66078147D01*
X47819772Y66142297D01*
X47984184Y66175000D01*
X48151816Y66175000D01*
X48316228Y66142297D01*
G37*
G36*
X224010720Y67497480D02*
G01*
X224199881Y67440099D01*
X224374212Y67346917D01*
X224527015Y67221515D01*
X224652417Y67068712D01*
X224696182Y66986833D01*
X224745598Y66894383D01*
X224745599Y66894380D01*
X224802980Y66705219D01*
X224817500Y66557793D01*
X224817500Y66364206D01*
X224802980Y66216780D01*
X224745599Y66027619D01*
X224652417Y65853288D01*
X224527015Y65700485D01*
X224374212Y65575083D01*
X224292333Y65531318D01*
X224199883Y65481902D01*
X224199880Y65481901D01*
X224010719Y65424520D01*
X223814000Y65405145D01*
X223617280Y65424520D01*
X223428119Y65481901D01*
X223253788Y65575083D01*
X223100985Y65700485D01*
X222975583Y65853288D01*
X222931818Y65935167D01*
X222882402Y66027617D01*
X222847615Y66142295D01*
X222825020Y66216781D01*
X222810500Y66364207D01*
X222810500Y66557794D01*
X222825020Y66705220D01*
X222882401Y66894381D01*
X222975583Y67068712D01*
X223100985Y67221515D01*
X223253788Y67346917D01*
X223428120Y67440099D01*
X223617281Y67497480D01*
X223814000Y67516855D01*
X224010720Y67497480D01*
G37*
G36*
X174010720Y67497480D02*
G01*
X174199881Y67440099D01*
X174374212Y67346917D01*
X174527015Y67221515D01*
X174652417Y67068712D01*
X174696182Y66986833D01*
X174745598Y66894383D01*
X174745599Y66894380D01*
X174802980Y66705219D01*
X174817500Y66557793D01*
X174817500Y66364206D01*
X174802980Y66216780D01*
X174745599Y66027619D01*
X174652417Y65853288D01*
X174527015Y65700485D01*
X174374212Y65575083D01*
X174292333Y65531318D01*
X174199883Y65481902D01*
X174199880Y65481901D01*
X174010719Y65424520D01*
X173814000Y65405145D01*
X173617280Y65424520D01*
X173428119Y65481901D01*
X173253788Y65575083D01*
X173100985Y65700485D01*
X172975583Y65853288D01*
X172931818Y65935167D01*
X172882402Y66027617D01*
X172847615Y66142295D01*
X172825020Y66216781D01*
X172810500Y66364207D01*
X172810500Y66557794D01*
X172825020Y66705220D01*
X172882401Y66894381D01*
X172975583Y67068712D01*
X173100985Y67221515D01*
X173253788Y67346917D01*
X173428120Y67440099D01*
X173617281Y67497480D01*
X173814000Y67516855D01*
X174010720Y67497480D01*
G37*
G36*
X176550720Y67497480D02*
G01*
X176739881Y67440099D01*
X176914212Y67346917D01*
X177067015Y67221515D01*
X177192417Y67068712D01*
X177236182Y66986833D01*
X177285598Y66894383D01*
X177285599Y66894380D01*
X177342980Y66705219D01*
X177357500Y66557793D01*
X177357500Y66364206D01*
X177342980Y66216780D01*
X177285599Y66027619D01*
X177192417Y65853288D01*
X177067015Y65700485D01*
X176914212Y65575083D01*
X176832333Y65531318D01*
X176739883Y65481902D01*
X176739880Y65481901D01*
X176550719Y65424520D01*
X176354000Y65405145D01*
X176157280Y65424520D01*
X175968119Y65481901D01*
X175793788Y65575083D01*
X175640985Y65700485D01*
X175515583Y65853288D01*
X175471818Y65935167D01*
X175422402Y66027617D01*
X175387615Y66142295D01*
X175365020Y66216781D01*
X175350500Y66364207D01*
X175350500Y66557794D01*
X175365020Y66705220D01*
X175422401Y66894381D01*
X175515583Y67068712D01*
X175640985Y67221515D01*
X175793788Y67346917D01*
X175968120Y67440099D01*
X176157281Y67497480D01*
X176354000Y67516855D01*
X176550720Y67497480D01*
G37*
G36*
X226550720Y67497480D02*
G01*
X226739881Y67440099D01*
X226914212Y67346917D01*
X227067015Y67221515D01*
X227192417Y67068712D01*
X227236182Y66986833D01*
X227285598Y66894383D01*
X227285599Y66894380D01*
X227342980Y66705219D01*
X227357500Y66557793D01*
X227357500Y66364206D01*
X227342980Y66216780D01*
X227285599Y66027619D01*
X227192417Y65853288D01*
X227067015Y65700485D01*
X226914212Y65575083D01*
X226832333Y65531318D01*
X226739883Y65481902D01*
X226739880Y65481901D01*
X226550719Y65424520D01*
X226354000Y65405145D01*
X226157280Y65424520D01*
X225968119Y65481901D01*
X225793788Y65575083D01*
X225640985Y65700485D01*
X225515583Y65853288D01*
X225471818Y65935167D01*
X225422402Y66027617D01*
X225387615Y66142295D01*
X225365020Y66216781D01*
X225350500Y66364207D01*
X225350500Y66557794D01*
X225365020Y66705220D01*
X225422401Y66894381D01*
X225515583Y67068712D01*
X225640985Y67221515D01*
X225793788Y67346917D01*
X225968120Y67440099D01*
X226157281Y67497480D01*
X226354000Y67516855D01*
X226550720Y67497480D01*
G37*
G36*
X229897500Y65410000D02*
G01*
X227890500Y65410000D01*
X227890500Y67512000D01*
X229897500Y67512000D01*
X229897500Y65410000D01*
G37*
G36*
X179897500Y65410000D02*
G01*
X177890500Y65410000D01*
X177890500Y67512000D01*
X179897500Y67512000D01*
X179897500Y65410000D01*
G37*
G36*
X48316228Y68682297D02*
G01*
X48471100Y68618147D01*
X48610481Y68525015D01*
X48729015Y68406481D01*
X48822147Y68267100D01*
X48886297Y68112228D01*
X48919000Y67947816D01*
X48919000Y67780184D01*
X48886297Y67615772D01*
X48822147Y67460900D01*
X48729015Y67321519D01*
X48610481Y67202985D01*
X48471100Y67109853D01*
X48316228Y67045703D01*
X48151816Y67013000D01*
X47984184Y67013000D01*
X47819772Y67045703D01*
X47664900Y67109853D01*
X47525519Y67202985D01*
X47406985Y67321519D01*
X47313853Y67460900D01*
X47249703Y67615772D01*
X47217000Y67780184D01*
X47217000Y67947816D01*
X47249703Y68112228D01*
X47313853Y68267100D01*
X47406985Y68406481D01*
X47525519Y68525015D01*
X47664900Y68618147D01*
X47819772Y68682297D01*
X47984184Y68715000D01*
X48151816Y68715000D01*
X48316228Y68682297D01*
G37*
G36*
X33076228Y68682297D02*
G01*
X33231100Y68618147D01*
X33370481Y68525015D01*
X33489015Y68406481D01*
X33582147Y68267100D01*
X33646297Y68112228D01*
X33679000Y67947816D01*
X33679000Y67780184D01*
X33646297Y67615772D01*
X33582147Y67460900D01*
X33489015Y67321519D01*
X33370481Y67202985D01*
X33231100Y67109853D01*
X33076228Y67045703D01*
X32911816Y67013000D01*
X32744184Y67013000D01*
X32579772Y67045703D01*
X32424900Y67109853D01*
X32285519Y67202985D01*
X32166985Y67321519D01*
X32073853Y67460900D01*
X32009703Y67615772D01*
X31977000Y67780184D01*
X31977000Y67947816D01*
X32009703Y68112228D01*
X32073853Y68267100D01*
X32166985Y68406481D01*
X32285519Y68525015D01*
X32424900Y68618147D01*
X32579772Y68682297D01*
X32744184Y68715000D01*
X32911816Y68715000D01*
X33076228Y68682297D01*
G37*
G36*
X48316228Y71222297D02*
G01*
X48471100Y71158147D01*
X48610481Y71065015D01*
X48729015Y70946481D01*
X48822147Y70807100D01*
X48886297Y70652228D01*
X48919000Y70487816D01*
X48919000Y70320184D01*
X48886297Y70155772D01*
X48822147Y70000900D01*
X48729015Y69861519D01*
X48610481Y69742985D01*
X48471100Y69649853D01*
X48316228Y69585703D01*
X48151816Y69553000D01*
X47984184Y69553000D01*
X47819772Y69585703D01*
X47664900Y69649853D01*
X47525519Y69742985D01*
X47406985Y69861519D01*
X47313853Y70000900D01*
X47249703Y70155772D01*
X47217000Y70320184D01*
X47217000Y70487816D01*
X47249703Y70652228D01*
X47313853Y70807100D01*
X47406985Y70946481D01*
X47525519Y71065015D01*
X47664900Y71158147D01*
X47819772Y71222297D01*
X47984184Y71255000D01*
X48151816Y71255000D01*
X48316228Y71222297D01*
G37*
G36*
X33076228Y71222297D02*
G01*
X33231100Y71158147D01*
X33370481Y71065015D01*
X33489015Y70946481D01*
X33582147Y70807100D01*
X33646297Y70652228D01*
X33679000Y70487816D01*
X33679000Y70320184D01*
X33646297Y70155772D01*
X33582147Y70000900D01*
X33489015Y69861519D01*
X33370481Y69742985D01*
X33231100Y69649853D01*
X33076228Y69585703D01*
X32911816Y69553000D01*
X32744184Y69553000D01*
X32579772Y69585703D01*
X32424900Y69649853D01*
X32285519Y69742985D01*
X32166985Y69861519D01*
X32073853Y70000900D01*
X32009703Y70155772D01*
X31977000Y70320184D01*
X31977000Y70487816D01*
X32009703Y70652228D01*
X32073853Y70807100D01*
X32166985Y70946481D01*
X32285519Y71065015D01*
X32424900Y71158147D01*
X32579772Y71222297D01*
X32744184Y71255000D01*
X32911816Y71255000D01*
X33076228Y71222297D01*
G37*
G36*
X33076228Y73762297D02*
G01*
X33231100Y73698147D01*
X33370481Y73605015D01*
X33489015Y73486481D01*
X33582147Y73347100D01*
X33646297Y73192228D01*
X33679000Y73027816D01*
X33679000Y72860184D01*
X33646297Y72695772D01*
X33582147Y72540900D01*
X33489015Y72401519D01*
X33370481Y72282985D01*
X33231100Y72189853D01*
X33076228Y72125703D01*
X32911816Y72093000D01*
X32744184Y72093000D01*
X32579772Y72125703D01*
X32424900Y72189853D01*
X32285519Y72282985D01*
X32166985Y72401519D01*
X32073853Y72540900D01*
X32009703Y72695772D01*
X31977000Y72860184D01*
X31977000Y73027816D01*
X32009703Y73192228D01*
X32073853Y73347100D01*
X32166985Y73486481D01*
X32285519Y73605015D01*
X32424900Y73698147D01*
X32579772Y73762297D01*
X32744184Y73795000D01*
X32911816Y73795000D01*
X33076228Y73762297D01*
G37*
G36*
X48316228Y73762297D02*
G01*
X48471100Y73698147D01*
X48610481Y73605015D01*
X48729015Y73486481D01*
X48822147Y73347100D01*
X48886297Y73192228D01*
X48919000Y73027816D01*
X48919000Y72860184D01*
X48886297Y72695772D01*
X48822147Y72540900D01*
X48729015Y72401519D01*
X48610481Y72282985D01*
X48471100Y72189853D01*
X48316228Y72125703D01*
X48151816Y72093000D01*
X47984184Y72093000D01*
X47819772Y72125703D01*
X47664900Y72189853D01*
X47525519Y72282985D01*
X47406985Y72401519D01*
X47313853Y72540900D01*
X47249703Y72695772D01*
X47217000Y72860184D01*
X47217000Y73027816D01*
X47249703Y73192228D01*
X47313853Y73347100D01*
X47406985Y73486481D01*
X47525519Y73605015D01*
X47664900Y73698147D01*
X47819772Y73762297D01*
X47984184Y73795000D01*
X48151816Y73795000D01*
X48316228Y73762297D01*
G37*
G36*
X185000000Y73500000D02*
G01*
X178079564Y73500000D01*
X178055178Y73497598D01*
X178031729Y73490485D01*
X178010118Y73478934D01*
X177991176Y73463389D01*
X177975631Y73444447D01*
X177964080Y73422837D01*
X177950025Y73388906D01*
X177752928Y73093930D01*
X177502070Y72843072D01*
X177207092Y72645974D01*
X176879331Y72510211D01*
X176531384Y72441000D01*
X176176616Y72441000D01*
X175828669Y72510211D01*
X175500908Y72645974D01*
X175205930Y72843072D01*
X174955072Y73093930D01*
X174757975Y73388906D01*
X174743920Y73422837D01*
X174732368Y73444448D01*
X174716823Y73463389D01*
X174697881Y73478934D01*
X174676270Y73490485D01*
X174652821Y73497598D01*
X174628436Y73500000D01*
X168000000Y73500000D01*
X168000000Y84000000D01*
X185000000Y84000000D01*
X185000000Y73500000D01*
G37*
G36*
X235000000Y73500000D02*
G01*
X228079564Y73500000D01*
X228055178Y73497598D01*
X228031729Y73490485D01*
X228010118Y73478934D01*
X227991176Y73463389D01*
X227975631Y73444447D01*
X227964080Y73422837D01*
X227950025Y73388906D01*
X227752928Y73093930D01*
X227502070Y72843072D01*
X227207092Y72645974D01*
X226879331Y72510211D01*
X226531384Y72441000D01*
X226176616Y72441000D01*
X225828669Y72510211D01*
X225500908Y72645974D01*
X225205930Y72843072D01*
X224955072Y73093930D01*
X224757975Y73388906D01*
X224743920Y73422837D01*
X224732368Y73444448D01*
X224716823Y73463389D01*
X224697881Y73478934D01*
X224676270Y73490485D01*
X224652821Y73497598D01*
X224628436Y73500000D01*
X218000000Y73500000D01*
X218000000Y84000000D01*
X235000000Y84000000D01*
X235000000Y73500000D01*
G37*
G36*
X33076228Y76302297D02*
G01*
X33231100Y76238147D01*
X33370481Y76145015D01*
X33489015Y76026481D01*
X33582147Y75887100D01*
X33646297Y75732228D01*
X33679000Y75567816D01*
X33679000Y75400184D01*
X33646297Y75235772D01*
X33582147Y75080900D01*
X33489015Y74941519D01*
X33370481Y74822985D01*
X33231100Y74729853D01*
X33076228Y74665703D01*
X32911816Y74633000D01*
X32744184Y74633000D01*
X32579772Y74665703D01*
X32424900Y74729853D01*
X32285519Y74822985D01*
X32166985Y74941519D01*
X32073853Y75080900D01*
X32009703Y75235772D01*
X31977000Y75400184D01*
X31977000Y75567816D01*
X32009703Y75732228D01*
X32073853Y75887100D01*
X32166985Y76026481D01*
X32285519Y76145015D01*
X32424900Y76238147D01*
X32579772Y76302297D01*
X32744184Y76335000D01*
X32911816Y76335000D01*
X33076228Y76302297D01*
G37*
G36*
X48316228Y76302297D02*
G01*
X48471100Y76238147D01*
X48610481Y76145015D01*
X48729015Y76026481D01*
X48822147Y75887100D01*
X48886297Y75732228D01*
X48919000Y75567816D01*
X48919000Y75400184D01*
X48886297Y75235772D01*
X48822147Y75080900D01*
X48729015Y74941519D01*
X48610481Y74822985D01*
X48471100Y74729853D01*
X48316228Y74665703D01*
X48151816Y74633000D01*
X47984184Y74633000D01*
X47819772Y74665703D01*
X47664900Y74729853D01*
X47525519Y74822985D01*
X47406985Y74941519D01*
X47313853Y75080900D01*
X47249703Y75235772D01*
X47217000Y75400184D01*
X47217000Y75567816D01*
X47249703Y75732228D01*
X47313853Y75887100D01*
X47406985Y76026481D01*
X47525519Y76145015D01*
X47664900Y76238147D01*
X47819772Y76302297D01*
X47984184Y76335000D01*
X48151816Y76335000D01*
X48316228Y76302297D01*
G37*
G36*
X48316228Y78842297D02*
G01*
X48471100Y78778147D01*
X48610481Y78685015D01*
X48729015Y78566481D01*
X48822147Y78427100D01*
X48886297Y78272228D01*
X48919000Y78107816D01*
X48919000Y77940184D01*
X48886297Y77775772D01*
X48822147Y77620900D01*
X48729015Y77481519D01*
X48610481Y77362985D01*
X48471100Y77269853D01*
X48316228Y77205703D01*
X48151816Y77173000D01*
X47984184Y77173000D01*
X47819772Y77205703D01*
X47664900Y77269853D01*
X47525519Y77362985D01*
X47406985Y77481519D01*
X47313853Y77620900D01*
X47249703Y77775772D01*
X47217000Y77940184D01*
X47217000Y78107816D01*
X47249703Y78272228D01*
X47313853Y78427100D01*
X47406985Y78566481D01*
X47525519Y78685015D01*
X47664900Y78778147D01*
X47819772Y78842297D01*
X47984184Y78875000D01*
X48151816Y78875000D01*
X48316228Y78842297D01*
G37*
G36*
X33076228Y78842297D02*
G01*
X33231100Y78778147D01*
X33370481Y78685015D01*
X33489015Y78566481D01*
X33582147Y78427100D01*
X33646297Y78272228D01*
X33679000Y78107816D01*
X33679000Y77940184D01*
X33646297Y77775772D01*
X33582147Y77620900D01*
X33489015Y77481519D01*
X33370481Y77362985D01*
X33231100Y77269853D01*
X33076228Y77205703D01*
X32911816Y77173000D01*
X32744184Y77173000D01*
X32579772Y77205703D01*
X32424900Y77269853D01*
X32285519Y77362985D01*
X32166985Y77481519D01*
X32073853Y77620900D01*
X32009703Y77775772D01*
X31977000Y77940184D01*
X31977000Y78107816D01*
X32009703Y78272228D01*
X32073853Y78427100D01*
X32166985Y78566481D01*
X32285519Y78685015D01*
X32424900Y78778147D01*
X32579772Y78842297D01*
X32744184Y78875000D01*
X32911816Y78875000D01*
X33076228Y78842297D01*
G37*
G36*
X203703000Y87927000D02*
G01*
X197601000Y87927000D01*
X197601000Y94029000D01*
X203703000Y94029000D01*
X203703000Y87927000D01*
G37*
G36*
X224010720Y91938480D02*
G01*
X224199881Y91881099D01*
X224374212Y91787917D01*
X224527015Y91662515D01*
X224652417Y91509712D01*
X224696182Y91427833D01*
X224745598Y91335383D01*
X224745599Y91335380D01*
X224802980Y91146219D01*
X224817500Y90998793D01*
X224817500Y90805206D01*
X224802980Y90657780D01*
X224745599Y90468619D01*
X224652417Y90294288D01*
X224527015Y90141485D01*
X224374212Y90016083D01*
X224292333Y89972318D01*
X224199883Y89922902D01*
X224199880Y89922901D01*
X224010719Y89865520D01*
X223814000Y89846145D01*
X223617280Y89865520D01*
X223428119Y89922901D01*
X223253788Y90016083D01*
X223100985Y90141485D01*
X222975583Y90294288D01*
X222931818Y90376167D01*
X222882402Y90468617D01*
X222882401Y90468620D01*
X222825020Y90657781D01*
X222810500Y90805207D01*
X222810500Y90998794D01*
X222825020Y91146220D01*
X222882401Y91335381D01*
X222975583Y91509712D01*
X223100985Y91662515D01*
X223253788Y91787917D01*
X223428120Y91881099D01*
X223617281Y91938480D01*
X223814000Y91957855D01*
X224010720Y91938480D01*
G37*
G36*
X174010720Y91938480D02*
G01*
X174199881Y91881099D01*
X174374212Y91787917D01*
X174527015Y91662515D01*
X174652417Y91509712D01*
X174696182Y91427833D01*
X174745598Y91335383D01*
X174745599Y91335380D01*
X174802980Y91146219D01*
X174817500Y90998793D01*
X174817500Y90805206D01*
X174802980Y90657780D01*
X174745599Y90468619D01*
X174652417Y90294288D01*
X174527015Y90141485D01*
X174374212Y90016083D01*
X174292333Y89972318D01*
X174199883Y89922902D01*
X174199880Y89922901D01*
X174010719Y89865520D01*
X173814000Y89846145D01*
X173617280Y89865520D01*
X173428119Y89922901D01*
X173253788Y90016083D01*
X173100985Y90141485D01*
X172975583Y90294288D01*
X172931818Y90376167D01*
X172882402Y90468617D01*
X172882401Y90468620D01*
X172825020Y90657781D01*
X172810500Y90805207D01*
X172810500Y90998794D01*
X172825020Y91146220D01*
X172882401Y91335381D01*
X172975583Y91509712D01*
X173100985Y91662515D01*
X173253788Y91787917D01*
X173428120Y91881099D01*
X173617281Y91938480D01*
X173814000Y91957855D01*
X174010720Y91938480D01*
G37*
G36*
X176550720Y91938480D02*
G01*
X176739881Y91881099D01*
X176914212Y91787917D01*
X177067015Y91662515D01*
X177192417Y91509712D01*
X177236182Y91427833D01*
X177285598Y91335383D01*
X177285599Y91335380D01*
X177342980Y91146219D01*
X177357500Y90998793D01*
X177357500Y90805206D01*
X177342980Y90657780D01*
X177285599Y90468619D01*
X177192417Y90294288D01*
X177067015Y90141485D01*
X176914212Y90016083D01*
X176832333Y89972318D01*
X176739883Y89922902D01*
X176739880Y89922901D01*
X176550719Y89865520D01*
X176354000Y89846145D01*
X176157280Y89865520D01*
X175968119Y89922901D01*
X175793788Y90016083D01*
X175640985Y90141485D01*
X175515583Y90294288D01*
X175471818Y90376167D01*
X175422402Y90468617D01*
X175422401Y90468620D01*
X175365020Y90657781D01*
X175350500Y90805207D01*
X175350500Y90998794D01*
X175365020Y91146220D01*
X175422401Y91335381D01*
X175515583Y91509712D01*
X175640985Y91662515D01*
X175793788Y91787917D01*
X175968120Y91881099D01*
X176157281Y91938480D01*
X176354000Y91957855D01*
X176550720Y91938480D01*
G37*
G36*
X226550720Y91938480D02*
G01*
X226739881Y91881099D01*
X226914212Y91787917D01*
X227067015Y91662515D01*
X227192417Y91509712D01*
X227236182Y91427833D01*
X227285598Y91335383D01*
X227285599Y91335380D01*
X227342980Y91146219D01*
X227357500Y90998793D01*
X227357500Y90805206D01*
X227342980Y90657780D01*
X227285599Y90468619D01*
X227192417Y90294288D01*
X227067015Y90141485D01*
X226914212Y90016083D01*
X226832333Y89972318D01*
X226739883Y89922902D01*
X226739880Y89922901D01*
X226550719Y89865520D01*
X226354000Y89846145D01*
X226157280Y89865520D01*
X225968119Y89922901D01*
X225793788Y90016083D01*
X225640985Y90141485D01*
X225515583Y90294288D01*
X225471818Y90376167D01*
X225422402Y90468617D01*
X225422401Y90468620D01*
X225365020Y90657781D01*
X225350500Y90805207D01*
X225350500Y90998794D01*
X225365020Y91146220D01*
X225422401Y91335381D01*
X225515583Y91509712D01*
X225640985Y91662515D01*
X225793788Y91787917D01*
X225968120Y91881099D01*
X226157281Y91938480D01*
X226354000Y91957855D01*
X226550720Y91938480D01*
G37*
G36*
X179897500Y89851000D02*
G01*
X177890500Y89851000D01*
X177890500Y91953000D01*
X179897500Y91953000D01*
X179897500Y89851000D01*
G37*
G36*
X229897500Y89851000D02*
G01*
X227890500Y89851000D01*
X227890500Y91953000D01*
X229897500Y91953000D01*
X229897500Y89851000D01*
G37*
G36*
X98721000Y93379000D02*
G01*
X96919000Y93379000D01*
X96919000Y95181000D01*
X98721000Y95181000D01*
X98721000Y93379000D01*
G37*
G36*
X93641000Y93379000D02*
G01*
X91839000Y93379000D01*
X91839000Y95181000D01*
X93641000Y95181000D01*
X93641000Y93379000D01*
G37*
G36*
X55541000Y93379000D02*
G01*
X53739000Y93379000D01*
X53739000Y95181000D01*
X55541000Y95181000D01*
X55541000Y93379000D01*
G37*
G36*
X78401000Y93379000D02*
G01*
X76599000Y93379000D01*
X76599000Y95181000D01*
X78401000Y95181000D01*
X78401000Y93379000D01*
G37*
G36*
X75861000Y93379000D02*
G01*
X74059000Y93379000D01*
X74059000Y95181000D01*
X75861000Y95181000D01*
X75861000Y93379000D01*
G37*
G36*
X73321000Y93379000D02*
G01*
X71519000Y93379000D01*
X71519000Y95181000D01*
X73321000Y95181000D01*
X73321000Y93379000D01*
G37*
G36*
X70781000Y93379000D02*
G01*
X68979000Y93379000D01*
X68979000Y95181000D01*
X70781000Y95181000D01*
X70781000Y93379000D01*
G37*
G36*
X68241000Y93379000D02*
G01*
X66439000Y93379000D01*
X66439000Y95181000D01*
X68241000Y95181000D01*
X68241000Y93379000D01*
G37*
G36*
X106341000Y93379000D02*
G01*
X104539000Y93379000D01*
X104539000Y95181000D01*
X106341000Y95181000D01*
X106341000Y93379000D01*
G37*
G36*
X63161000Y93379000D02*
G01*
X61359000Y93379000D01*
X61359000Y95181000D01*
X63161000Y95181000D01*
X63161000Y93379000D01*
G37*
G36*
X60621000Y93379000D02*
G01*
X58819000Y93379000D01*
X58819000Y95181000D01*
X60621000Y95181000D01*
X60621000Y93379000D01*
G37*
G36*
X30141000Y93379000D02*
G01*
X28339000Y93379000D01*
X28339000Y95181000D01*
X30141000Y95181000D01*
X30141000Y93379000D01*
G37*
G36*
X17441000Y93379000D02*
G01*
X15639000Y93379000D01*
X15639000Y95181000D01*
X17441000Y95181000D01*
X17441000Y93379000D01*
G37*
G36*
X25061000Y93379000D02*
G01*
X23259000Y93379000D01*
X23259000Y95181000D01*
X25061000Y95181000D01*
X25061000Y93379000D01*
G37*
G36*
X19981000Y93379000D02*
G01*
X18179000Y93379000D01*
X18179000Y95181000D01*
X19981000Y95181000D01*
X19981000Y93379000D01*
G37*
G36*
X12361000Y93379000D02*
G01*
X10559000Y93379000D01*
X10559000Y95181000D01*
X12361000Y95181000D01*
X12361000Y93379000D01*
G37*
G36*
X14901000Y93379000D02*
G01*
X13099000Y93379000D01*
X13099000Y95181000D01*
X14901000Y95181000D01*
X14901000Y93379000D01*
G37*
G36*
X22521000Y93379000D02*
G01*
X20719000Y93379000D01*
X20719000Y95181000D01*
X22521000Y95181000D01*
X22521000Y93379000D01*
G37*
G36*
X88561000Y93379000D02*
G01*
X86759000Y93379000D01*
X86759000Y95181000D01*
X88561000Y95181000D01*
X88561000Y93379000D01*
G37*
G36*
X83481000Y93379000D02*
G01*
X81679000Y93379000D01*
X81679000Y95181000D01*
X83481000Y95181000D01*
X83481000Y93379000D01*
G37*
G36*
X103801000Y93379000D02*
G01*
X101999000Y93379000D01*
X101999000Y95181000D01*
X103801000Y95181000D01*
X103801000Y93379000D01*
G37*
G36*
X53001000Y93379000D02*
G01*
X51199000Y93379000D01*
X51199000Y95181000D01*
X53001000Y95181000D01*
X53001000Y93379000D01*
G37*
G36*
X40301000Y93379000D02*
G01*
X38499000Y93379000D01*
X38499000Y95181000D01*
X40301000Y95181000D01*
X40301000Y93379000D01*
G37*
G36*
X42841000Y93379000D02*
G01*
X41039000Y93379000D01*
X41039000Y95181000D01*
X42841000Y95181000D01*
X42841000Y93379000D01*
G37*
G36*
X45381000Y93379000D02*
G01*
X43579000Y93379000D01*
X43579000Y95181000D01*
X45381000Y95181000D01*
X45381000Y93379000D01*
G37*
G36*
X47921000Y93379000D02*
G01*
X46119000Y93379000D01*
X46119000Y95181000D01*
X47921000Y95181000D01*
X47921000Y93379000D01*
G37*
G36*
X37761000Y93379000D02*
G01*
X35959000Y93379000D01*
X35959000Y95181000D01*
X37761000Y95181000D01*
X37761000Y93379000D01*
G37*
G36*
X50461000Y93379000D02*
G01*
X48659000Y93379000D01*
X48659000Y95181000D01*
X50461000Y95181000D01*
X50461000Y93379000D01*
G37*
G36*
X27601000Y93379000D02*
G01*
X25799000Y93379000D01*
X25799000Y95181000D01*
X27601000Y95181000D01*
X27601000Y93379000D01*
G37*
G36*
X96181000Y93379000D02*
G01*
X94379000Y93379000D01*
X94379000Y95181000D01*
X96181000Y95181000D01*
X96181000Y93379000D01*
G37*
G36*
X32681000Y93379000D02*
G01*
X30879000Y93379000D01*
X30879000Y95181000D01*
X32681000Y95181000D01*
X32681000Y93379000D01*
G37*
G36*
X65701000Y93379000D02*
G01*
X63899000Y93379000D01*
X63899000Y95181000D01*
X65701000Y95181000D01*
X65701000Y93379000D01*
G37*
G36*
X91101000Y93379000D02*
G01*
X89299000Y93379000D01*
X89299000Y95181000D01*
X91101000Y95181000D01*
X91101000Y93379000D01*
G37*
G36*
X86021000Y93379000D02*
G01*
X84219000Y93379000D01*
X84219000Y95181000D01*
X86021000Y95181000D01*
X86021000Y93379000D01*
G37*
G36*
X58081000Y93379000D02*
G01*
X56279000Y93379000D01*
X56279000Y95181000D01*
X58081000Y95181000D01*
X58081000Y93379000D01*
G37*
G36*
X101261000Y93379000D02*
G01*
X99459000Y93379000D01*
X99459000Y95181000D01*
X101261000Y95181000D01*
X101261000Y93379000D01*
G37*
G36*
X80941000Y93379000D02*
G01*
X79139000Y93379000D01*
X79139000Y95181000D01*
X80941000Y95181000D01*
X80941000Y93379000D01*
G37*
G36*
X35221000Y93379000D02*
G01*
X33419000Y93379000D01*
X33419000Y95181000D01*
X35221000Y95181000D01*
X35221000Y93379000D01*
G37*
G36*
X70781000Y95919000D02*
G01*
X68979000Y95919000D01*
X68979000Y97721000D01*
X70781000Y97721000D01*
X70781000Y95919000D01*
G37*
G36*
X73321000Y95919000D02*
G01*
X71519000Y95919000D01*
X71519000Y97721000D01*
X73321000Y97721000D01*
X73321000Y95919000D01*
G37*
G36*
X63161000Y95919000D02*
G01*
X61359000Y95919000D01*
X61359000Y97721000D01*
X63161000Y97721000D01*
X63161000Y95919000D01*
G37*
G36*
X103801000Y95919000D02*
G01*
X101999000Y95919000D01*
X101999000Y97721000D01*
X103801000Y97721000D01*
X103801000Y95919000D01*
G37*
G36*
X96181000Y95919000D02*
G01*
X94379000Y95919000D01*
X94379000Y97721000D01*
X96181000Y97721000D01*
X96181000Y95919000D01*
G37*
G36*
X98721000Y95919000D02*
G01*
X96919000Y95919000D01*
X96919000Y97721000D01*
X98721000Y97721000D01*
X98721000Y95919000D01*
G37*
G36*
X101261000Y95919000D02*
G01*
X99459000Y95919000D01*
X99459000Y97721000D01*
X101261000Y97721000D01*
X101261000Y95919000D01*
G37*
G36*
X106341000Y95919000D02*
G01*
X104539000Y95919000D01*
X104539000Y97721000D01*
X106341000Y97721000D01*
X106341000Y95919000D01*
G37*
G36*
X75861000Y95919000D02*
G01*
X74059000Y95919000D01*
X74059000Y97721000D01*
X75861000Y97721000D01*
X75861000Y95919000D01*
G37*
G36*
X68241000Y95919000D02*
G01*
X66439000Y95919000D01*
X66439000Y97721000D01*
X68241000Y97721000D01*
X68241000Y95919000D01*
G37*
G36*
X65701000Y95919000D02*
G01*
X63899000Y95919000D01*
X63899000Y97721000D01*
X65701000Y97721000D01*
X65701000Y95919000D01*
G37*
G36*
X17441000Y95919000D02*
G01*
X15639000Y95919000D01*
X15639000Y97721000D01*
X17441000Y97721000D01*
X17441000Y95919000D01*
G37*
G36*
X19981000Y95919000D02*
G01*
X18179000Y95919000D01*
X18179000Y97721000D01*
X19981000Y97721000D01*
X19981000Y95919000D01*
G37*
G36*
X22521000Y95919000D02*
G01*
X20719000Y95919000D01*
X20719000Y97721000D01*
X22521000Y97721000D01*
X22521000Y95919000D01*
G37*
G36*
X25061000Y95919000D02*
G01*
X23259000Y95919000D01*
X23259000Y97721000D01*
X25061000Y97721000D01*
X25061000Y95919000D01*
G37*
G36*
X27601000Y95919000D02*
G01*
X25799000Y95919000D01*
X25799000Y97721000D01*
X27601000Y97721000D01*
X27601000Y95919000D01*
G37*
G36*
X30141000Y95919000D02*
G01*
X28339000Y95919000D01*
X28339000Y97721000D01*
X30141000Y97721000D01*
X30141000Y95919000D01*
G37*
G36*
X14901000Y95919000D02*
G01*
X13099000Y95919000D01*
X13099000Y97721000D01*
X14901000Y97721000D01*
X14901000Y95919000D01*
G37*
G36*
X12361000Y95919000D02*
G01*
X10559000Y95919000D01*
X10559000Y97721000D01*
X12361000Y97721000D01*
X12361000Y95919000D01*
G37*
G36*
X91101000Y95919000D02*
G01*
X89299000Y95919000D01*
X89299000Y97721000D01*
X91101000Y97721000D01*
X91101000Y95919000D01*
G37*
G36*
X60621000Y95919000D02*
G01*
X58819000Y95919000D01*
X58819000Y97721000D01*
X60621000Y97721000D01*
X60621000Y95919000D01*
G37*
G36*
X93641000Y95919000D02*
G01*
X91839000Y95919000D01*
X91839000Y97721000D01*
X93641000Y97721000D01*
X93641000Y95919000D01*
G37*
G36*
X58081000Y95919000D02*
G01*
X56279000Y95919000D01*
X56279000Y97721000D01*
X58081000Y97721000D01*
X58081000Y95919000D01*
G37*
G36*
X55541000Y95919000D02*
G01*
X53739000Y95919000D01*
X53739000Y97721000D01*
X55541000Y97721000D01*
X55541000Y95919000D01*
G37*
G36*
X53001000Y95919000D02*
G01*
X51199000Y95919000D01*
X51199000Y97721000D01*
X53001000Y97721000D01*
X53001000Y95919000D01*
G37*
G36*
X50461000Y95919000D02*
G01*
X48659000Y95919000D01*
X48659000Y97721000D01*
X50461000Y97721000D01*
X50461000Y95919000D01*
G37*
G36*
X47921000Y95919000D02*
G01*
X46119000Y95919000D01*
X46119000Y97721000D01*
X47921000Y97721000D01*
X47921000Y95919000D01*
G37*
G36*
X45381000Y95919000D02*
G01*
X43579000Y95919000D01*
X43579000Y97721000D01*
X45381000Y97721000D01*
X45381000Y95919000D01*
G37*
G36*
X42841000Y95919000D02*
G01*
X41039000Y95919000D01*
X41039000Y97721000D01*
X42841000Y97721000D01*
X42841000Y95919000D01*
G37*
G36*
X37761000Y95919000D02*
G01*
X35959000Y95919000D01*
X35959000Y97721000D01*
X37761000Y97721000D01*
X37761000Y95919000D01*
G37*
G36*
X80941000Y95919000D02*
G01*
X79139000Y95919000D01*
X79139000Y97721000D01*
X80941000Y97721000D01*
X80941000Y95919000D01*
G37*
G36*
X88561000Y95919000D02*
G01*
X86759000Y95919000D01*
X86759000Y97721000D01*
X88561000Y97721000D01*
X88561000Y95919000D01*
G37*
G36*
X86021000Y95919000D02*
G01*
X84219000Y95919000D01*
X84219000Y97721000D01*
X86021000Y97721000D01*
X86021000Y95919000D01*
G37*
G36*
X83481000Y95919000D02*
G01*
X81679000Y95919000D01*
X81679000Y97721000D01*
X83481000Y97721000D01*
X83481000Y95919000D01*
G37*
G36*
X78401000Y95919000D02*
G01*
X76599000Y95919000D01*
X76599000Y97721000D01*
X78401000Y97721000D01*
X78401000Y95919000D01*
G37*
G36*
X32681000Y95919000D02*
G01*
X30879000Y95919000D01*
X30879000Y97721000D01*
X32681000Y97721000D01*
X32681000Y95919000D01*
G37*
G36*
X35221000Y95919000D02*
G01*
X33419000Y95919000D01*
X33419000Y97721000D01*
X35221000Y97721000D01*
X35221000Y95919000D01*
G37*
G36*
X40301000Y95919000D02*
G01*
X38499000Y95919000D01*
X38499000Y97721000D01*
X40301000Y97721000D01*
X40301000Y95919000D01*
G37*
G36*
X40710153Y107138078D02*
G01*
X40802194Y107099953D01*
X40932359Y107046037D01*
X41132342Y106912413D01*
X41302413Y106742342D01*
X41436037Y106542359D01*
X41528078Y106320152D01*
X41575000Y106084259D01*
X41575000Y105843741D01*
X41528078Y105607848D01*
X41436037Y105385641D01*
X41302413Y105185658D01*
X41132342Y105015587D01*
X40932359Y104881963D01*
X40802194Y104828047D01*
X40710153Y104789922D01*
X40592205Y104766461D01*
X40474259Y104743000D01*
X40233741Y104743000D01*
X40115795Y104766461D01*
X39997847Y104789922D01*
X39905806Y104828047D01*
X39775641Y104881963D01*
X39575658Y105015587D01*
X39405587Y105185658D01*
X39271963Y105385641D01*
X39179922Y105607848D01*
X39133000Y105843741D01*
X39133000Y106084259D01*
X39179922Y106320152D01*
X39271963Y106542359D01*
X39405587Y106742342D01*
X39575658Y106912413D01*
X39775641Y107046037D01*
X39905806Y107099953D01*
X39997847Y107138078D01*
X40233741Y107185000D01*
X40474259Y107185000D01*
X40710153Y107138078D01*
G37*
G36*
X45630153Y107138078D02*
G01*
X45722194Y107099953D01*
X45852359Y107046037D01*
X46052342Y106912413D01*
X46222413Y106742342D01*
X46356037Y106542359D01*
X46448078Y106320152D01*
X46495000Y106084259D01*
X46495000Y105843741D01*
X46448078Y105607848D01*
X46356037Y105385641D01*
X46222413Y105185658D01*
X46052342Y105015587D01*
X45852359Y104881963D01*
X45722194Y104828047D01*
X45630153Y104789922D01*
X45512205Y104766461D01*
X45394259Y104743000D01*
X45153741Y104743000D01*
X45035795Y104766461D01*
X44917847Y104789922D01*
X44825806Y104828047D01*
X44695641Y104881963D01*
X44495658Y105015587D01*
X44325587Y105185658D01*
X44191963Y105385641D01*
X44099922Y105607848D01*
X44053000Y105843741D01*
X44053000Y106084259D01*
X44099922Y106320152D01*
X44191963Y106542359D01*
X44325587Y106742342D01*
X44495658Y106912413D01*
X44695641Y107046037D01*
X44825806Y107099953D01*
X44917847Y107138078D01*
X45153741Y107185000D01*
X45394259Y107185000D01*
X45630153Y107138078D01*
G37*
G36*
X50710153Y107138078D02*
G01*
X50802194Y107099953D01*
X50932359Y107046037D01*
X51132342Y106912413D01*
X51302413Y106742342D01*
X51436037Y106542359D01*
X51528078Y106320152D01*
X51575000Y106084259D01*
X51575000Y105843741D01*
X51528078Y105607848D01*
X51436037Y105385641D01*
X51302413Y105185658D01*
X51132342Y105015587D01*
X50932359Y104881963D01*
X50802194Y104828047D01*
X50710153Y104789922D01*
X50592205Y104766461D01*
X50474259Y104743000D01*
X50233741Y104743000D01*
X50115795Y104766461D01*
X49997847Y104789922D01*
X49905806Y104828047D01*
X49775641Y104881963D01*
X49575658Y105015587D01*
X49405587Y105185658D01*
X49271963Y105385641D01*
X49179922Y105607848D01*
X49133000Y105843741D01*
X49133000Y106084259D01*
X49179922Y106320152D01*
X49271963Y106542359D01*
X49405587Y106742342D01*
X49575658Y106912413D01*
X49775641Y107046037D01*
X49905806Y107099953D01*
X49997847Y107138078D01*
X50233741Y107185000D01*
X50474259Y107185000D01*
X50710153Y107138078D01*
G37*
G36*
X111004001Y106747999D02*
G01*
X109202001Y106747999D01*
X109202001Y108549999D01*
X111004001Y108549999D01*
X111004001Y106747999D01*
G37*
G36*
X111004001Y109287999D02*
G01*
X109202001Y109287999D01*
X109202001Y111089999D01*
X111004001Y111089999D01*
X111004001Y109287999D01*
G37*
G36*
X256375256Y112608702D02*
G01*
X256481579Y112587553D01*
X256782042Y112463097D01*
X257052451Y112282415D01*
X257282415Y112052451D01*
X257463097Y111782042D01*
X257587553Y111481579D01*
X257651000Y111162609D01*
X257651000Y110837391D01*
X257587553Y110518421D01*
X257463097Y110217958D01*
X257282415Y109947549D01*
X257052451Y109717585D01*
X256782042Y109536903D01*
X256481579Y109412447D01*
X256375256Y109391298D01*
X256162611Y109349000D01*
X255837389Y109349000D01*
X255624744Y109391298D01*
X255518421Y109412447D01*
X255217958Y109536903D01*
X254947549Y109717585D01*
X254717585Y109947549D01*
X254536903Y110217958D01*
X254412447Y110518421D01*
X254349000Y110837391D01*
X254349000Y111162609D01*
X254412447Y111481579D01*
X254536903Y111782042D01*
X254717585Y112052451D01*
X254947549Y112282415D01*
X255217958Y112463097D01*
X255518421Y112587553D01*
X255624744Y112608702D01*
X255837389Y112651000D01*
X256162611Y112651000D01*
X256375256Y112608702D01*
G37*
G36*
X123375256Y112608702D02*
G01*
X123481579Y112587553D01*
X123782042Y112463097D01*
X124052451Y112282415D01*
X124282415Y112052451D01*
X124463097Y111782042D01*
X124587553Y111481579D01*
X124651000Y111162609D01*
X124651000Y110837391D01*
X124587553Y110518421D01*
X124463097Y110217958D01*
X124282415Y109947549D01*
X124052451Y109717585D01*
X123782042Y109536903D01*
X123481579Y109412447D01*
X123375256Y109391298D01*
X123162611Y109349000D01*
X122837389Y109349000D01*
X122624744Y109391298D01*
X122518421Y109412447D01*
X122217958Y109536903D01*
X121947549Y109717585D01*
X121717585Y109947549D01*
X121536903Y110217958D01*
X121412447Y110518421D01*
X121349000Y110837391D01*
X121349000Y111162609D01*
X121412447Y111481579D01*
X121536903Y111782042D01*
X121717585Y112052451D01*
X121947549Y112282415D01*
X122217958Y112463097D01*
X122518421Y112587553D01*
X122624744Y112608702D01*
X122837389Y112651000D01*
X123162611Y112651000D01*
X123375256Y112608702D01*
G37*
G36*
X4375256Y112608702D02*
G01*
X4481579Y112587553D01*
X4782042Y112463097D01*
X5052451Y112282415D01*
X5282415Y112052451D01*
X5463097Y111782042D01*
X5587553Y111481579D01*
X5651000Y111162609D01*
X5651000Y110837391D01*
X5587553Y110518421D01*
X5463097Y110217958D01*
X5282415Y109947549D01*
X5052451Y109717585D01*
X4782042Y109536903D01*
X4481579Y109412447D01*
X4375256Y109391298D01*
X4162611Y109349000D01*
X3837389Y109349000D01*
X3624744Y109391298D01*
X3518421Y109412447D01*
X3217958Y109536903D01*
X2947549Y109717585D01*
X2717585Y109947549D01*
X2536903Y110217958D01*
X2412447Y110518421D01*
X2349000Y110837391D01*
X2349000Y111162609D01*
X2412447Y111481579D01*
X2536903Y111782042D01*
X2717585Y112052451D01*
X2947549Y112282415D01*
X3217958Y112463097D01*
X3518421Y112587553D01*
X3624744Y112608702D01*
X3837389Y112651000D01*
X4162611Y112651000D01*
X4375256Y112608702D01*
G37*
M02*
