M48
; DRILL file {KiCad (5.1.5)-3} date 11/01/20 19:56:07
; FORMAT={-:-/ absolute / inch / decimal}
; #@! TF.CreationDate,2020-11-01T19:56:07+02:00
; #@! TF.GenerationSoftware,Kicad,Pcbnew,(5.1.5)-3
; #@! TF.FileFunction,Plated,1,4,PTH
FMAT,2
INCH
T1C0.0157
T2C0.0315
T3C0.0394
T4C0.0433
T5C0.0472
T6C0.0512
%
G90
G05
T1
X0.5524Y3.6118
X0.6524Y3.6118
X0.7624Y3.1218
X0.7624Y2.8418
X0.7624Y2.5618
X0.7724Y1.8718
X0.7824Y1.7218
X0.7824Y1.6218
X0.7824Y1.4718
X0.7824Y1.3318
X0.7824Y1.1918
X0.8024Y3.2918
X0.8624Y3.2918
X0.9224Y3.2918
X0.9524Y3.3818
X0.9924Y3.2918
X1.1024Y3.3418
X1.1124Y0.9818
X1.1224Y2.9518
X1.1224Y2.6718
X1.1324Y3.1718
X1.1324Y2.8918
X1.1324Y2.6118
X1.1524Y2.4618
X1.1824Y3.1118
X1.1924Y0.7518
X1.1924Y0.4318
X1.2018Y0.6312
X1.2024Y3.3218
X1.2024Y0.4818
X1.2224Y2.6718
X1.3124Y3.3218
X1.3824Y1.4518
X1.3824Y1.3018
X1.3824Y1.1018
X1.3924Y1.1918
X1.4124Y3.3418
X1.4124Y0.9518
X1.4124Y0.9018
X1.4224Y1.5718
X1.4424Y3.1504
X1.4424Y2.1918
X1.4824Y1.8018
X1.5024Y3.4818
X1.5024Y0.5318
X1.5224Y3.2418
X1.5224Y2.9718
X1.5224Y2.4718
X1.5224Y1.5033
X1.5724Y3.2118
X1.5724Y2.7718
X1.5724Y2.6718
X1.5724Y1.3518
X1.5724Y0.8518
X1.5724Y0.3918
X1.6024Y3.5318
X1.6024Y2.0718
X1.6024Y1.4018
X1.6024Y0.9018
X1.6024Y0.6618
X1.6024Y0.3618
X1.6124Y3.2818
X1.6124Y2.4718
X1.6124Y0.8318
X1.6424Y2.9718
X1.6424Y1.8018
X1.6524Y0.5318
X1.6624Y1.0318
X1.6724Y1.5518
X1.6824Y2.7718
X1.7124Y2.2618
X1.7224Y3.2118
X1.7224Y2.5718
X1.7324Y1.5218
X1.7424Y0.5318
X1.7524Y1.6918
X1.7724Y0.8218
X1.7824Y1.3804
X1.7824Y0.4018
X1.7924Y3.1504
X1.7924Y1.2618
X1.8524Y0.6718
X1.8624Y1.3318
X1.9024Y3.4318
X1.9324Y0.1118
X1.9924Y3.5918
X2.0024Y3.4618
X2.0124Y0.1418
X2.0124Y0.0718
X2.0424Y2.4118
X2.0424Y0.7318
X2.0824Y0.6918
X2.0824Y0.1418
X2.0824Y0.0718
X2.1024Y3.5618
X2.1024Y3.5218
X2.1124Y3.3118
X2.1124Y2.8418
X2.1224Y1.8518
X2.1224Y1.4818
X2.1424Y0.4018
X2.1424Y0.3318
X2.1524Y0.1418
X2.1524Y0.0718
X2.1624Y3.3318
X2.1924Y3.2118
X2.2924Y3.1318
X2.3024Y2.1718
X2.3024Y1.2218
X2.3624Y2.1718
X2.3624Y0.6418
X2.3624Y0.4518
X2.3724Y0.1418
X2.3724Y0.0718
X2.3924Y1.1918
X2.4024Y3.4118
X2.4424Y0.1418
X2.4424Y0.0718
X2.4824Y3.1218
X2.4924Y0.8618
X2.5024Y3.4118
X2.5224Y0.8218
X2.7324Y1.2718
X2.7524Y2.2518
X2.7524Y1.2218
X2.7624Y0.1418
X2.7624Y0.0718
X2.8024Y0.4218
X2.8024Y0.3618
X2.8024Y0.3018
X2.8124Y3.4218
X2.8324Y0.1418
X2.8324Y0.0718
X3.0824Y2.7518
X3.0824Y0.8018
X3.1124Y2.4218
X3.1124Y1.7418
X3.1524Y3.3918
X3.1524Y0.1418
X3.1524Y0.0718
X3.1611Y3.2518
X3.1624Y3.3218
X3.1624Y2.3918
X3.1624Y1.3618
X3.1724Y1.4218
X3.201Y2.1018
X3.2224Y0.1418
X3.2224Y0.0718
X3.2924Y0.1418
X3.2924Y0.0718
X3.3524Y3.1504
X3.4324Y1.9018
X3.4524Y2.5518
X3.4524Y1.1418
X3.5024Y1.4118
X3.5324Y3.6118
X3.5324Y2.7818
X3.5424Y0.8018
X3.5524Y2.2618
X3.5524Y1.3218
X3.5524Y1.2718
X3.5924Y3.2518
X3.5924Y1.4718
X3.6024Y0.6218
X3.621Y1.9604
X3.621Y1.2204
X3.6624Y2.6418
X3.6624Y2.2118
X3.6624Y1.5518
X3.7124Y2.7918
X3.7224Y3.3018
X3.7324Y2.5518
X3.7524Y3.4418
X3.7724Y2.3818
X3.8024Y3.2418
X3.82Y3.36
X3.9624Y0.9918
X3.9824Y3.3918
X4.0124Y2.0018
X4.0524Y2.3518
X4.0624Y2.8118
X4.0924Y1.9018
X4.1324Y3.1218
X4.1624Y2.8318
X4.1824Y2.3718
X4.1824Y1.9018
X4.2124Y2.8318
X4.28Y3.585
X4.3824Y3.3818
X4.3824Y2.5718
X4.3824Y1.9018
X4.3924Y3.0318
X4.3924Y2.4118
X4.3924Y2.1118
X4.4024Y1.8418
X4.45Y3.25
X4.4724Y2.8118
X4.4724Y2.3518
X4.5024Y1.6818
X4.5524Y2.4518
X4.5624Y1.7218
X4.59Y3.46
X4.5924Y2.7418
X4.6524Y2.9318
X4.6824Y2.8518
X4.6924Y2.1518
X4.7024Y3.1418
X4.7424Y2.1018
X4.7724Y3.5318
X4.7724Y3.4818
X4.805Y3.71
X4.8074Y3.2668
X4.8124Y2.5668
X4.8124Y1.8868
X5.1224Y3.6218
X5.1424Y2.8718
X5.1424Y2.8118
X5.1424Y2.7018
X5.1424Y2.1318
X5.1524Y2.1918
X5.1524Y2.0218
X5.195Y3.325
X5.2024Y3.4618
X5.3424Y2.9318
X5.3424Y2.2418
X5.3824Y1.9218
X5.4224Y2.6118
X5.4824Y3.3668
X5.4924Y2.9118
X5.4924Y2.7118
X5.4924Y2.2118
X5.4924Y2.0118
X5.5624Y3.4418
X5.78Y2.92
X5.89Y3.87
X5.89Y3.82
X5.89Y3.77
X5.89Y3.72
X5.89Y2.99
X5.89Y2.94
X5.89Y2.88
X5.89Y2.82
X5.89Y2.04
X5.89Y1.99
X5.89Y1.94
X5.89Y1.89
X5.94Y2.6518
X5.9624Y1.7418
X5.995Y0.605
X6.08Y3.56
X6.13Y2.0718
X6.305Y0.975
X6.355Y0.9
X6.6535Y3.2874
X6.6535Y3.2283
X6.6535Y3.1693
X6.6535Y3.1102
X6.6535Y3.0512
X6.6535Y2.9921
X6.6535Y2.9331
X6.6535Y2.3228
X6.6535Y2.2638
X6.6535Y2.2047
X6.6535Y2.1457
X6.6535Y2.0866
X6.6535Y2.0276
X6.6535Y1.9685
X6.6535Y1.3386
X6.6535Y1.2795
X6.6535Y1.2205
X6.6535Y1.1614
X6.6535Y1.1024
X6.6535Y1.0433
X6.6535Y0.9843
X6.6535Y0.9252
X6.7126Y3.2874
X6.7126Y3.2283
X6.7126Y3.1693
X6.7126Y3.1102
X6.7126Y3.0512
X6.7126Y2.9921
X6.7126Y2.9331
X6.7126Y2.3228
X6.7126Y2.2638
X6.7126Y2.2047
X6.7126Y2.1457
X6.7126Y2.0866
X6.7126Y2.0276
X6.7126Y1.9685
X6.7126Y1.3386
X6.7126Y1.2795
X6.7126Y1.2205
X6.7126Y1.1614
X6.7126Y1.1024
X6.7126Y1.0433
X6.7126Y0.9843
X6.7126Y0.9252
X6.7717Y3.2874
X6.7717Y3.2283
X6.7717Y3.1693
X6.7717Y3.1102
X6.7717Y3.0512
X6.7717Y2.9921
X6.7717Y2.9331
X6.7717Y2.3228
X6.7717Y2.2638
X6.7717Y2.2047
X6.7717Y2.1457
X6.7717Y2.0866
X6.7717Y2.0276
X6.7717Y1.9685
X6.7717Y1.3386
X6.7717Y1.2795
X6.7717Y1.2205
X6.7717Y1.1614
X6.7717Y1.1024
X6.7717Y1.0433
X6.7717Y0.9843
X6.7717Y0.9252
X6.8307Y3.2874
X6.8307Y3.2283
X6.8307Y3.1693
X6.8307Y3.1102
X6.8307Y3.0512
X6.8307Y2.9921
X6.8307Y2.9331
X6.8307Y2.3228
X6.8307Y2.2638
X6.8307Y2.2047
X6.8307Y2.1457
X6.8307Y2.0866
X6.8307Y2.0276
X6.8307Y1.9685
X6.8307Y1.3386
X6.8307Y1.2795
X6.8307Y1.2205
X6.8307Y1.1614
X6.8307Y1.1024
X6.8307Y1.0433
X6.8307Y0.9843
X6.8307Y0.9252
X6.8898Y3.2874
X6.8898Y3.2283
X6.8898Y3.1693
X6.8898Y3.1102
X6.8898Y3.0512
X6.8898Y2.3228
X6.8898Y2.2638
X6.8898Y2.2047
X6.8898Y2.1457
X6.8898Y2.0866
X6.8898Y1.3386
X6.8898Y1.2795
X6.8898Y1.2205
X6.8898Y1.1614
X6.8898Y1.1024
X6.9488Y3.2874
X6.9488Y3.2283
X6.9488Y3.1693
X6.9488Y3.1102
X6.9488Y3.0512
X6.9488Y2.3228
X6.9488Y2.2638
X6.9488Y2.2047
X6.9488Y2.1457
X6.9488Y2.0866
X6.9488Y1.3386
X6.9488Y1.2795
X6.9488Y1.2205
X6.9488Y1.1614
X7.0079Y3.2874
X7.0079Y3.2283
X7.0079Y3.1693
X7.0079Y3.1102
X7.0079Y3.0512
X7.0079Y2.3228
X7.0079Y2.2638
X7.0079Y2.2047
X7.0079Y2.1457
X7.0079Y2.0866
X7.0079Y1.3386
X7.0079Y1.2795
X7.0079Y1.2205
X7.0079Y1.1614
X7.0079Y1.1024
X7.0669Y3.2874
X7.0669Y3.2283
X7.0669Y3.1693
X7.0669Y3.1102
X7.0669Y3.0512
X7.0669Y2.9921
X7.0669Y2.9331
X7.0669Y2.3228
X7.0669Y2.2638
X7.0669Y2.2047
X7.0669Y2.1457
X7.0669Y2.0866
X7.0669Y2.0276
X7.0669Y1.9685
X7.0669Y1.3386
X7.0669Y1.2795
X7.0669Y1.2205
X7.0669Y1.1614
X7.0669Y1.1024
X7.0669Y1.0433
X7.0669Y0.9843
X7.0669Y0.9252
X7.126Y3.2874
X7.126Y3.2283
X7.126Y3.1693
X7.126Y3.1102
X7.126Y3.0512
X7.126Y2.9921
X7.126Y2.9331
X7.126Y2.3228
X7.126Y2.2638
X7.126Y2.2047
X7.126Y2.1457
X7.126Y2.0866
X7.126Y2.0276
X7.126Y1.9685
X7.126Y1.3386
X7.126Y1.2795
X7.126Y1.2205
X7.126Y1.1614
X7.126Y1.1024
X7.126Y1.0433
X7.126Y0.9843
X7.126Y0.9252
X7.185Y3.2874
X7.185Y3.2283
X7.185Y3.1693
X7.185Y3.1102
X7.185Y3.0512
X7.185Y2.9921
X7.185Y2.9331
X7.185Y2.3228
X7.185Y2.2638
X7.185Y2.2047
X7.185Y2.1457
X7.185Y2.0866
X7.185Y2.0276
X7.185Y1.9685
X7.185Y1.3386
X7.185Y1.2795
X7.185Y1.2205
X7.185Y1.1614
X7.185Y1.1024
X7.185Y1.0433
X7.185Y0.9843
X7.185Y0.9252
X7.2441Y3.2874
X7.2441Y3.2283
X7.2441Y3.1693
X7.2441Y3.1102
X7.2441Y3.0512
X7.2441Y2.9921
X7.2441Y2.9331
X7.2441Y2.3228
X7.2441Y2.2638
X7.2441Y2.2047
X7.2441Y2.1457
X7.2441Y2.0866
X7.2441Y2.0276
X7.2441Y1.9685
X7.2441Y1.3386
X7.2441Y1.2795
X7.2441Y1.2205
X7.2441Y1.1614
X7.2441Y1.1024
X7.2441Y1.0433
X7.2441Y0.9843
X7.2441Y0.9252
X8.622Y3.2874
X8.622Y3.2283
X8.622Y3.1693
X8.622Y3.1102
X8.622Y3.0512
X8.622Y2.9921
X8.622Y2.9331
X8.622Y2.3228
X8.622Y2.2638
X8.622Y2.2047
X8.622Y2.1457
X8.622Y2.0866
X8.622Y2.0276
X8.622Y1.9685
X8.622Y1.3386
X8.622Y1.2795
X8.622Y1.2205
X8.622Y1.1614
X8.622Y1.1024
X8.622Y1.0433
X8.622Y0.9843
X8.622Y0.9252
X8.6811Y3.2874
X8.6811Y3.2283
X8.6811Y3.1693
X8.6811Y3.1102
X8.6811Y3.0512
X8.6811Y2.9921
X8.6811Y2.9331
X8.6811Y2.3228
X8.6811Y2.2638
X8.6811Y2.2047
X8.6811Y2.1457
X8.6811Y2.0866
X8.6811Y2.0276
X8.6811Y1.9685
X8.6811Y1.3386
X8.6811Y1.2795
X8.6811Y1.2205
X8.6811Y1.1614
X8.6811Y1.1024
X8.6811Y1.0433
X8.6811Y0.9843
X8.6811Y0.9252
X8.7402Y3.2874
X8.7402Y3.2283
X8.7402Y3.1693
X8.7402Y3.1102
X8.7402Y3.0512
X8.7402Y2.9921
X8.7402Y2.9331
X8.7402Y2.3228
X8.7402Y2.2638
X8.7402Y2.2047
X8.7402Y2.1457
X8.7402Y2.0866
X8.7402Y2.0276
X8.7402Y1.9685
X8.7402Y1.3386
X8.7402Y1.2795
X8.7402Y1.2205
X8.7402Y1.1614
X8.7402Y1.1024
X8.7402Y1.0433
X8.7402Y0.9843
X8.7402Y0.9252
X8.7992Y3.2874
X8.7992Y3.2283
X8.7992Y3.1693
X8.7992Y3.1102
X8.7992Y3.0512
X8.7992Y2.9921
X8.7992Y2.9331
X8.7992Y2.3228
X8.7992Y2.2638
X8.7992Y2.2047
X8.7992Y2.1457
X8.7992Y2.0866
X8.7992Y2.0276
X8.7992Y1.3386
X8.7992Y1.2795
X8.7992Y1.2205
X8.7992Y1.1614
X8.7992Y1.1024
X8.7992Y1.0433
X8.7992Y0.9843
X8.7992Y0.9252
X8.8583Y3.2874
X8.8583Y3.2283
X8.8583Y3.1693
X8.8583Y3.1102
X8.8583Y3.0512
X8.8583Y2.3228
X8.8583Y2.2638
X8.8583Y2.2047
X8.8583Y2.1457
X8.8583Y2.0866
X8.8583Y1.3386
X8.8583Y1.2795
X8.8583Y1.2205
X8.8583Y1.1614
X8.8583Y1.1024
X8.9173Y3.2874
X8.9173Y3.2283
X8.9173Y3.1693
X8.9173Y3.1102
X8.9173Y3.0512
X8.9173Y2.3228
X8.9173Y2.2638
X8.9173Y2.2047
X8.9173Y2.1457
X8.9173Y2.0866
X8.9173Y1.3386
X8.9173Y1.2795
X8.9173Y1.2205
X8.9173Y1.1614
X8.9764Y3.2874
X8.9764Y3.2283
X8.9764Y3.1693
X8.9764Y3.1102
X8.9764Y3.0512
X8.9764Y2.3228
X8.9764Y2.2638
X8.9764Y2.2047
X8.9764Y2.1457
X8.9764Y2.0866
X8.9764Y1.3386
X8.9764Y1.2795
X8.9764Y1.2205
X8.9764Y1.1614
X8.9764Y1.1024
X9.0354Y3.2874
X9.0354Y3.2283
X9.0354Y3.1693
X9.0354Y3.1102
X9.0354Y3.0512
X9.0354Y2.9921
X9.0354Y2.9331
X9.0354Y2.3228
X9.0354Y2.2638
X9.0354Y2.2047
X9.0354Y2.1457
X9.0354Y2.0866
X9.0354Y2.0276
X9.0354Y1.9685
X9.0354Y1.3386
X9.0354Y1.2795
X9.0354Y1.2205
X9.0354Y1.1614
X9.0354Y1.1024
X9.0354Y1.0433
X9.0354Y0.9843
X9.0354Y0.9252
X9.0945Y3.2874
X9.0945Y3.2283
X9.0945Y3.1693
X9.0945Y3.1102
X9.0945Y3.0512
X9.0945Y2.9921
X9.0945Y2.9331
X9.0945Y2.3228
X9.0945Y2.2638
X9.0945Y2.2047
X9.0945Y2.1457
X9.0945Y2.0866
X9.0945Y2.0276
X9.0945Y1.9685
X9.0945Y1.3386
X9.0945Y1.2795
X9.0945Y1.2205
X9.0945Y1.1614
X9.0945Y1.1024
X9.0945Y1.0433
X9.0945Y0.9843
X9.0945Y0.9252
X9.1535Y3.2874
X9.1535Y3.2283
X9.1535Y3.1693
X9.1535Y3.1102
X9.1535Y3.0512
X9.1535Y2.9921
X9.1535Y2.9331
X9.1535Y2.3228
X9.1535Y2.2638
X9.1535Y2.2047
X9.1535Y2.1457
X9.1535Y2.0866
X9.1535Y2.0276
X9.1535Y1.9685
X9.1535Y1.3386
X9.1535Y1.2795
X9.1535Y1.2205
X9.1535Y1.1614
X9.1535Y1.1024
X9.1535Y1.0433
X9.1535Y0.9843
X9.1535Y0.9252
X9.2126Y3.2874
X9.2126Y3.2283
X9.2126Y3.1693
X9.2126Y3.1102
X9.2126Y3.0512
X9.2126Y2.9921
X9.2126Y2.9331
X9.2126Y2.3228
X9.2126Y2.2638
X9.2126Y2.2047
X9.2126Y2.1457
X9.2126Y2.0866
X9.2126Y2.0276
X9.2126Y1.9685
X9.2126Y1.3386
X9.2126Y1.2795
X9.2126Y1.2205
X9.2126Y1.1614
X9.2126Y1.1024
X9.2126Y1.0433
X9.2126Y0.9843
X9.2126Y0.9252
X9.8224Y0.6418
X9.8224Y0.5918
X9.8224Y0.5418
X9.8224Y0.4918
X9.9124Y0.7518
X9.9124Y0.3918
X9.9624Y0.7518
X9.9624Y0.3918
X10.0124Y0.7518
X10.0124Y0.3918
X10.0624Y0.7518
X10.0624Y0.3918
X10.1124Y0.7518
X10.1124Y0.3918
X10.1824Y0.6418
X10.1824Y0.5918
X10.1824Y0.5418
X10.1824Y0.4918
T2
X1.2924Y3.0718
X1.2924Y2.9718
X1.2924Y2.8718
X1.2924Y2.7718
X1.2924Y2.6718
X1.2924Y2.5718
X1.2924Y2.4718
X1.2924Y2.3718
X1.2924Y2.2718
X1.2924Y2.1718
X1.2924Y2.0718
X1.2924Y1.9718
X1.2924Y1.8718
X1.2924Y1.7718
X1.2924Y1.6718
X1.8924Y3.0718
X1.8924Y2.9718
X1.8924Y2.8718
X1.8924Y2.7718
X1.8924Y2.6718
X1.8924Y2.5718
X1.8924Y2.4718
X1.8924Y2.3718
X1.8924Y2.2718
X1.8924Y2.1718
X1.8924Y2.0718
X1.8924Y1.9718
X1.8924Y1.8718
X1.8924Y1.7718
X1.8924Y1.6718
T3
X2.2512Y3.7118
X4.3348Y4.3381
X1.2512Y3.7118
X4.0512Y3.7118
X0.9512Y3.8118
X1.8512Y3.7118
X3.9512Y3.8118
X2.2512Y3.8118
X3.8512Y3.7118
X4.3348Y4.2381
X1.0512Y3.8118
X4.1512Y3.7118
X2.5512Y3.7118
X3.9512Y3.7118
X3.6512Y3.7118
X2.9512Y3.8118
X1.5512Y3.7118
X3.5512Y3.8118
X1.8512Y3.8118
X2.4512Y3.8118
X2.3512Y3.7118
X2.8512Y3.7118
X1.3512Y3.8118
X1.3512Y3.7118
X3.2512Y3.7118
X2.0512Y3.7118
X2.6512Y3.7118
X3.0512Y3.8118
X0.8512Y3.8118
X0.7512Y3.8118
X1.7512Y3.8118
X2.7512Y3.7118
X3.7512Y3.8118
X0.4512Y3.7118
X1.5512Y3.8118
X3.7512Y3.7118
X2.4512Y3.7118
X3.2512Y3.8118
X3.6512Y3.8118
X4.0512Y3.8118
X2.5512Y3.8118
X1.4512Y3.7118
X3.3512Y3.8118
X1.0512Y3.7118
X2.1512Y3.8118
X2.9512Y3.7118
X1.4512Y3.8118
X3.1512Y3.7118
X3.4512Y3.7118
X3.8512Y3.8118
X2.0512Y3.8118
X1.1512Y3.8118
X0.9512Y3.7118
X3.1512Y3.8118
X2.6512Y3.8118
X0.7512Y3.7118
X3.4512Y3.8118
X3.5512Y3.7118
X3.0512Y3.7118
X1.6512Y3.7118
X4.1512Y3.8118
X0.8512Y3.7118
X0.5512Y3.8118
X2.7512Y3.8118
X1.6512Y3.8118
X0.5512Y3.7118
X2.8512Y3.8118
X3.3512Y3.7118
X1.9512Y3.7118
X1.2512Y3.8118
X0.6512Y3.7118
X2.3512Y3.8118
X1.7512Y3.7118
X1.9512Y3.8118
X2.1512Y3.7118
X1.1512Y3.7118
X0.6512Y3.8118
X0.4512Y3.8118
T4
X6.8431Y1.6542
X6.9431Y1.6542
X7.0431Y1.6542
X6.8431Y2.6166
X6.9431Y2.6166
X7.0431Y2.6166
X8.8116Y1.6542
X8.9116Y1.6542
X9.0116Y1.6542
X8.8116Y2.6166
X8.9116Y2.6166
X9.0116Y2.6166
X8.8116Y3.5788
X8.9116Y3.5788
X9.0116Y3.5788
X6.8431Y3.5788
X6.9431Y3.5788
X7.0431Y3.5788
T5
X8.4724Y0.5968
X8.4724Y0.3015
X7.6124Y0.5968
X7.6124Y0.3015
X9.3324Y0.5968
X9.3324Y0.3015
T6
X1.5887Y4.1718
X1.7824Y4.1718
X1.9824Y4.1718
T0
M30
