G04 #@! TF.GenerationSoftware,KiCad,Pcbnew,(5.1.5)-3*
G04 #@! TF.CreationDate,2020-11-01T19:56:01+02:00*
G04 #@! TF.ProjectId,BLDC_FUSION_2020,424c4443-5f46-4555-9349-4f4e5f323032,2 Not Ordered*
G04 #@! TF.SameCoordinates,PX6dac2c0PY8583b00*
G04 #@! TF.FileFunction,Legend,Bot*
G04 #@! TF.FilePolarity,Positive*
%FSLAX46Y46*%
G04 Gerber Fmt 4.6, Leading zero omitted, Abs format (unit mm)*
G04 Created by KiCad (PCBNEW (5.1.5)-3) date 2020-11-01 19:56:01*
%MOMM*%
%LPD*%
G04 APERTURE LIST*
%ADD10C,0.500000*%
%ADD11C,0.150000*%
G04 APERTURE END LIST*
D10*
X248928571Y111714286D02*
X248500000Y111571429D01*
X248357142Y111428572D01*
X248214285Y111142858D01*
X248214285Y110714286D01*
X248357142Y110428572D01*
X248500000Y110285715D01*
X248785714Y110142858D01*
X249928571Y110142858D01*
X249928571Y113142858D01*
X248928571Y113142858D01*
X248642857Y113000000D01*
X248500000Y112857143D01*
X248357142Y112571429D01*
X248357142Y112285715D01*
X248500000Y112000000D01*
X248642857Y111857143D01*
X248928571Y111714286D01*
X249928571Y111714286D01*
X246357142Y113142858D02*
X245785714Y113142858D01*
X245500000Y113000000D01*
X245214285Y112714286D01*
X245071428Y112142858D01*
X245071428Y111142858D01*
X245214285Y110571429D01*
X245500000Y110285715D01*
X245785714Y110142858D01*
X246357142Y110142858D01*
X246642857Y110285715D01*
X246928571Y110571429D01*
X247071428Y111142858D01*
X247071428Y112142858D01*
X246928571Y112714286D01*
X246642857Y113000000D01*
X246357142Y113142858D01*
X244214285Y113142858D02*
X242500000Y113142858D01*
X243357142Y110142858D02*
X243357142Y113142858D01*
X241928571Y113142858D02*
X240214285Y113142858D01*
X241071428Y110142858D02*
X241071428Y113142858D01*
X238642857Y113142858D02*
X238071428Y113142858D01*
X237785714Y113000000D01*
X237500000Y112714286D01*
X237357142Y112142858D01*
X237357142Y111142858D01*
X237500000Y110571429D01*
X237785714Y110285715D01*
X238071428Y110142858D01*
X238642857Y110142858D01*
X238928571Y110285715D01*
X239214285Y110571429D01*
X239357142Y111142858D01*
X239357142Y112142858D01*
X239214285Y112714286D01*
X238928571Y113000000D01*
X238642857Y113142858D01*
X236071428Y110142858D02*
X236071428Y113142858D01*
X235071428Y111000000D01*
X234071428Y113142858D01*
X234071428Y110142858D01*
X201912476Y96494667D02*
X199531523Y96494667D01*
X202388666Y95066096D02*
X200722000Y100066096D01*
X199055333Y95066096D01*
X199428380Y46774286D02*
X199666476Y46536191D01*
X200380761Y46298096D01*
X200856952Y46298096D01*
X201571238Y46536191D01*
X202047428Y47012381D01*
X202285523Y47488572D01*
X202523619Y48440953D01*
X202523619Y49155239D01*
X202285523Y50107620D01*
X202047428Y50583810D01*
X201571238Y51060000D01*
X200856952Y51298096D01*
X200380761Y51298096D01*
X199666476Y51060000D01*
X199428380Y50821905D01*
X200364857Y73301143D02*
X199650571Y73063048D01*
X199412476Y72824953D01*
X199174380Y72348762D01*
X199174380Y71634477D01*
X199412476Y71158286D01*
X199650571Y70920191D01*
X200126761Y70682096D01*
X202031523Y70682096D01*
X202031523Y75682096D01*
X200364857Y75682096D01*
X199888666Y75444000D01*
X199650571Y75205905D01*
X199412476Y74729715D01*
X199412476Y74253524D01*
X199650571Y73777334D01*
X199888666Y73539239D01*
X200364857Y73301143D01*
X202031523Y73301143D01*
D11*
X201461523Y86699620D02*
X201461523Y85985334D01*
X201509142Y85842477D01*
X201604380Y85747239D01*
X201747238Y85699620D01*
X201842476Y85699620D01*
X200556761Y86366286D02*
X200556761Y85699620D01*
X200794857Y86747239D02*
X201032952Y86032953D01*
X200413904Y86032953D01*
X199842476Y86699620D02*
X199747238Y86699620D01*
X199652000Y86652000D01*
X199604380Y86604381D01*
X199556761Y86509143D01*
X199509142Y86318667D01*
X199509142Y86080572D01*
X199556761Y85890096D01*
X199604380Y85794858D01*
X199652000Y85747239D01*
X199747238Y85699620D01*
X199842476Y85699620D01*
X199937714Y85747239D01*
X199985333Y85794858D01*
X200032952Y85890096D01*
X200080571Y86080572D01*
X200080571Y86318667D01*
X200032952Y86509143D01*
X199985333Y86604381D01*
X199937714Y86652000D01*
X199842476Y86699620D01*
X201531523Y62188620D02*
X201531523Y61474334D01*
X201579142Y61331477D01*
X201674380Y61236239D01*
X201817238Y61188620D01*
X201912476Y61188620D01*
X200626761Y61855286D02*
X200626761Y61188620D01*
X200864857Y62236239D02*
X201102952Y61521953D01*
X200483904Y61521953D01*
X199579142Y61188620D02*
X200150571Y61188620D01*
X199864857Y61188620D02*
X199864857Y62188620D01*
X199960095Y62045762D01*
X200055333Y61950524D01*
X200150571Y61902905D01*
X201461523Y37931620D02*
X201461523Y37217334D01*
X201509142Y37074477D01*
X201604380Y36979239D01*
X201747238Y36931620D01*
X201842476Y36931620D01*
X200556761Y37598286D02*
X200556761Y36931620D01*
X200794857Y37979239D02*
X201032952Y37264953D01*
X200413904Y37264953D01*
X200080571Y37836381D02*
X200032952Y37884000D01*
X199937714Y37931620D01*
X199699619Y37931620D01*
X199604380Y37884000D01*
X199556761Y37836381D01*
X199509142Y37741143D01*
X199509142Y37645905D01*
X199556761Y37503048D01*
X200128190Y36931620D01*
X199509142Y36931620D01*
M02*
