G04 #@! TF.GenerationSoftware,KiCad,Pcbnew,(5.1.5)-3*
G04 #@! TF.CreationDate,2021-09-15T23:35:39+03:00*
G04 #@! TF.ProjectId,PowerPCB,506f7765-7250-4434-922e-6b696361645f,3 Under Design*
G04 #@! TF.SameCoordinates,PX6dac2c0PY8583b00*
G04 #@! TF.FileFunction,Soldermask,Bot*
G04 #@! TF.FilePolarity,Negative*
%FSLAX46Y46*%
G04 Gerber Fmt 4.6, Leading zero omitted, Abs format (unit mm)*
G04 Created by KiCad (PCBNEW (5.1.5)-3) date 2021-09-15 23:35:39*
%MOMM*%
%LPD*%
G04 APERTURE LIST*
%ADD10C,0.100000*%
G04 APERTURE END LIST*
D10*
G36*
X172714234Y3574844D02*
G01*
X172836068Y3550610D01*
X172966058Y3496766D01*
X173027335Y3471384D01*
X173199473Y3356365D01*
X173345865Y3209973D01*
X173460884Y3037835D01*
X173486266Y2976558D01*
X173540110Y2846568D01*
X173564344Y2724734D01*
X173580500Y2643514D01*
X173580500Y2436486D01*
X173575718Y2412448D01*
X173540110Y2233432D01*
X173487186Y2105665D01*
X173460884Y2042165D01*
X173460883Y2042164D01*
X173345866Y1870028D01*
X173199472Y1723634D01*
X173133420Y1679500D01*
X173027335Y1608616D01*
X172966058Y1583234D01*
X172836068Y1529390D01*
X172714234Y1505156D01*
X172633014Y1489000D01*
X172425986Y1489000D01*
X172344766Y1505156D01*
X172222932Y1529390D01*
X172092942Y1583234D01*
X172031665Y1608616D01*
X171925580Y1679500D01*
X171859528Y1723634D01*
X171713134Y1870028D01*
X171598117Y2042164D01*
X171598116Y2042165D01*
X171571814Y2105665D01*
X171518890Y2233432D01*
X171483282Y2412448D01*
X171478500Y2436486D01*
X171478500Y2643514D01*
X171494656Y2724734D01*
X171518890Y2846568D01*
X171572734Y2976558D01*
X171598116Y3037835D01*
X171713135Y3209973D01*
X171859527Y3356365D01*
X172031665Y3471384D01*
X172092942Y3496766D01*
X172222932Y3550610D01*
X172344766Y3574844D01*
X172425986Y3591000D01*
X172633014Y3591000D01*
X172714234Y3574844D01*
G37*
G36*
X162490734Y3638344D02*
G01*
X162612568Y3614110D01*
X162742558Y3560266D01*
X162803835Y3534884D01*
X162975973Y3419865D01*
X163122365Y3273473D01*
X163237384Y3101335D01*
X163262766Y3040058D01*
X163316610Y2910068D01*
X163357000Y2707012D01*
X163357000Y2499988D01*
X163316610Y2296932D01*
X163262766Y2166942D01*
X163237384Y2105665D01*
X163122365Y1933527D01*
X162975973Y1787135D01*
X162803835Y1672116D01*
X162742558Y1646734D01*
X162612568Y1592890D01*
X162490734Y1568656D01*
X162409514Y1552500D01*
X162202486Y1552500D01*
X162121266Y1568656D01*
X161999432Y1592890D01*
X161869442Y1646734D01*
X161808165Y1672116D01*
X161636027Y1787135D01*
X161489635Y1933527D01*
X161374616Y2105665D01*
X161349234Y2166942D01*
X161295390Y2296932D01*
X161255000Y2499988D01*
X161255000Y2707012D01*
X161295390Y2910068D01*
X161349234Y3040058D01*
X161374616Y3101335D01*
X161489635Y3273473D01*
X161636027Y3419865D01*
X161808165Y3534884D01*
X161869442Y3560266D01*
X161999432Y3614110D01*
X162121266Y3638344D01*
X162202486Y3654500D01*
X162409514Y3654500D01*
X162490734Y3638344D01*
G37*
G36*
X152381534Y3765344D02*
G01*
X152503368Y3741110D01*
X152633358Y3687266D01*
X152694635Y3661884D01*
X152766134Y3614110D01*
X152866772Y3546866D01*
X153013166Y3400472D01*
X153042637Y3356365D01*
X153128184Y3228335D01*
X153135790Y3209972D01*
X153207410Y3037068D01*
X153225216Y2947549D01*
X153245303Y2846568D01*
X153247800Y2834012D01*
X153247800Y2626988D01*
X153207410Y2423932D01*
X153154805Y2296935D01*
X153128184Y2232665D01*
X153013165Y2060527D01*
X152866773Y1914135D01*
X152694635Y1799116D01*
X152633358Y1773734D01*
X152503368Y1719890D01*
X152381534Y1695656D01*
X152300314Y1679500D01*
X152093286Y1679500D01*
X152012066Y1695656D01*
X151890232Y1719890D01*
X151760242Y1773734D01*
X151698965Y1799116D01*
X151526827Y1914135D01*
X151380435Y2060527D01*
X151265416Y2232665D01*
X151238795Y2296935D01*
X151186190Y2423932D01*
X151145800Y2626988D01*
X151145800Y2834012D01*
X151148298Y2846568D01*
X151168384Y2947549D01*
X151186190Y3037068D01*
X151257810Y3209972D01*
X151265416Y3228335D01*
X151350963Y3356365D01*
X151380434Y3400472D01*
X151526828Y3546866D01*
X151627466Y3614110D01*
X151698965Y3661884D01*
X151760242Y3687266D01*
X151890232Y3741110D01*
X152012066Y3765344D01*
X152093286Y3781500D01*
X152300314Y3781500D01*
X152381534Y3765344D01*
G37*
G36*
X121481579Y5587553D02*
G01*
X121782042Y5463097D01*
X122052451Y5282415D01*
X122282415Y5052451D01*
X122463097Y4782042D01*
X122587553Y4481579D01*
X122651000Y4162609D01*
X122651000Y3837391D01*
X122587553Y3518421D01*
X122463097Y3217958D01*
X122282415Y2947549D01*
X122052451Y2717585D01*
X121782042Y2536903D01*
X121481579Y2412447D01*
X121162609Y2349000D01*
X120837391Y2349000D01*
X120518421Y2412447D01*
X120217958Y2536903D01*
X119947549Y2717585D01*
X119717585Y2947549D01*
X119536903Y3217958D01*
X119412447Y3518421D01*
X119349000Y3837391D01*
X119349000Y4162609D01*
X119412447Y4481579D01*
X119536903Y4782042D01*
X119717585Y5052451D01*
X119947549Y5282415D01*
X120217958Y5463097D01*
X120518421Y5587553D01*
X120837391Y5651000D01*
X121162609Y5651000D01*
X121481579Y5587553D01*
G37*
G36*
X213481579Y5587553D02*
G01*
X213782042Y5463097D01*
X214052451Y5282415D01*
X214282415Y5052451D01*
X214463097Y4782042D01*
X214587553Y4481579D01*
X214651000Y4162609D01*
X214651000Y3837391D01*
X214587553Y3518421D01*
X214463097Y3217958D01*
X214282415Y2947549D01*
X214052451Y2717585D01*
X213782042Y2536903D01*
X213481579Y2412447D01*
X213162609Y2349000D01*
X212837391Y2349000D01*
X212518421Y2412447D01*
X212217958Y2536903D01*
X211947549Y2717585D01*
X211717585Y2947549D01*
X211536903Y3217958D01*
X211412447Y3518421D01*
X211349000Y3837391D01*
X211349000Y4162609D01*
X211412447Y4481579D01*
X211536903Y4782042D01*
X211717585Y5052451D01*
X211947549Y5282415D01*
X212217958Y5463097D01*
X212518421Y5587553D01*
X212837391Y5651000D01*
X213162609Y5651000D01*
X213481579Y5587553D01*
G37*
G36*
X150569000Y4479000D02*
G01*
X148767000Y4479000D01*
X148767000Y6281000D01*
X150569000Y6281000D01*
X150569000Y4479000D01*
G37*
G36*
X148029000Y4479000D02*
G01*
X146227000Y4479000D01*
X146227000Y6281000D01*
X148029000Y6281000D01*
X148029000Y4479000D01*
G37*
G36*
X183589000Y4479000D02*
G01*
X181787000Y4479000D01*
X181787000Y6281000D01*
X183589000Y6281000D01*
X183589000Y4479000D01*
G37*
G36*
X165809000Y4479000D02*
G01*
X164007000Y4479000D01*
X164007000Y6281000D01*
X165809000Y6281000D01*
X165809000Y4479000D01*
G37*
G36*
X160729000Y4479000D02*
G01*
X158927000Y4479000D01*
X158927000Y6281000D01*
X160729000Y6281000D01*
X160729000Y4479000D01*
G37*
G36*
X188669000Y4479000D02*
G01*
X186867000Y4479000D01*
X186867000Y6281000D01*
X188669000Y6281000D01*
X188669000Y4479000D01*
G37*
G36*
X155649000Y4479000D02*
G01*
X153847000Y4479000D01*
X153847000Y6281000D01*
X155649000Y6281000D01*
X155649000Y4479000D01*
G37*
G36*
X168349000Y4479000D02*
G01*
X166547000Y4479000D01*
X166547000Y6281000D01*
X168349000Y6281000D01*
X168349000Y4479000D01*
G37*
G36*
X186129000Y4479000D02*
G01*
X184327000Y4479000D01*
X184327000Y6281000D01*
X186129000Y6281000D01*
X186129000Y4479000D01*
G37*
G36*
X163269000Y4479000D02*
G01*
X161467000Y4479000D01*
X161467000Y6281000D01*
X163269000Y6281000D01*
X163269000Y4479000D01*
G37*
G36*
X158189000Y4479000D02*
G01*
X156387000Y4479000D01*
X156387000Y6281000D01*
X158189000Y6281000D01*
X158189000Y4479000D01*
G37*
G36*
X153109000Y4479000D02*
G01*
X151307000Y4479000D01*
X151307000Y6281000D01*
X153109000Y6281000D01*
X153109000Y4479000D01*
G37*
G36*
X181049000Y4479000D02*
G01*
X179247000Y4479000D01*
X179247000Y6281000D01*
X181049000Y6281000D01*
X181049000Y4479000D01*
G37*
G36*
X170889000Y4479000D02*
G01*
X169087000Y4479000D01*
X169087000Y6281000D01*
X170889000Y6281000D01*
X170889000Y4479000D01*
G37*
G36*
X173429000Y4479000D02*
G01*
X171627000Y4479000D01*
X171627000Y6281000D01*
X173429000Y6281000D01*
X173429000Y4479000D01*
G37*
G36*
X175969000Y4479000D02*
G01*
X174167000Y4479000D01*
X174167000Y6281000D01*
X175969000Y6281000D01*
X175969000Y4479000D01*
G37*
G36*
X178509000Y4479000D02*
G01*
X176707000Y4479000D01*
X176707000Y6281000D01*
X178509000Y6281000D01*
X178509000Y4479000D01*
G37*
G36*
X214179734Y13861844D02*
G01*
X214301568Y13837610D01*
X214431558Y13783766D01*
X214492835Y13758384D01*
X214664973Y13643365D01*
X214811365Y13496973D01*
X214926384Y13324835D01*
X214951766Y13263558D01*
X215005610Y13133568D01*
X215046000Y12930512D01*
X215046000Y12723488D01*
X215005610Y12520432D01*
X214951766Y12390442D01*
X214926384Y12329165D01*
X214811365Y12157027D01*
X214664973Y12010635D01*
X214492835Y11895616D01*
X214431558Y11870234D01*
X214301568Y11816390D01*
X214179734Y11792156D01*
X214098514Y11776000D01*
X213891486Y11776000D01*
X213810266Y11792156D01*
X213688432Y11816390D01*
X213558442Y11870234D01*
X213497165Y11895616D01*
X213325027Y12010635D01*
X213178635Y12157027D01*
X213063616Y12329165D01*
X213038234Y12390442D01*
X212984390Y12520432D01*
X212944000Y12723488D01*
X212944000Y12930512D01*
X212984390Y13133568D01*
X213038234Y13263558D01*
X213063616Y13324835D01*
X213178635Y13496973D01*
X213325027Y13643365D01*
X213497165Y13758384D01*
X213558442Y13783766D01*
X213688432Y13837610D01*
X213810266Y13861844D01*
X213891486Y13878000D01*
X214098514Y13878000D01*
X214179734Y13861844D01*
G37*
G36*
X190557734Y30067044D02*
G01*
X190679568Y30042810D01*
X190809558Y29988966D01*
X190870835Y29963584D01*
X191042973Y29848565D01*
X191189365Y29702173D01*
X191304384Y29530035D01*
X191329766Y29468758D01*
X191383610Y29338768D01*
X191424000Y29135712D01*
X191424000Y28928688D01*
X191383610Y28725632D01*
X191329766Y28595642D01*
X191304384Y28534365D01*
X191189365Y28362227D01*
X191042973Y28215835D01*
X190870835Y28100816D01*
X190809558Y28075434D01*
X190679568Y28021590D01*
X190557734Y27997356D01*
X190476514Y27981200D01*
X190269486Y27981200D01*
X190188266Y27997356D01*
X190066432Y28021590D01*
X189936442Y28075434D01*
X189875165Y28100816D01*
X189703027Y28215835D01*
X189556635Y28362227D01*
X189441616Y28534365D01*
X189416234Y28595642D01*
X189362390Y28725632D01*
X189322000Y28928688D01*
X189322000Y29135712D01*
X189362390Y29338768D01*
X189416234Y29468758D01*
X189441616Y29530035D01*
X189556635Y29702173D01*
X189703027Y29848565D01*
X189875165Y29963584D01*
X189936442Y29988966D01*
X190066432Y30042810D01*
X190188266Y30067044D01*
X190269486Y30083200D01*
X190476514Y30083200D01*
X190557734Y30067044D01*
G37*
G36*
X133761434Y35108044D02*
G01*
X133883268Y35083810D01*
X134013258Y35029966D01*
X134074535Y35004584D01*
X134246673Y34889565D01*
X134393065Y34743173D01*
X134508084Y34571035D01*
X134533466Y34509758D01*
X134587310Y34379768D01*
X134627700Y34176712D01*
X134627700Y33969688D01*
X134587310Y33766632D01*
X134533466Y33636642D01*
X134508084Y33575365D01*
X134393065Y33403227D01*
X134246673Y33256835D01*
X134074535Y33141816D01*
X134013258Y33116434D01*
X133883268Y33062590D01*
X133761434Y33038356D01*
X133680214Y33022200D01*
X133473186Y33022200D01*
X133391966Y33038356D01*
X133270132Y33062590D01*
X133140142Y33116434D01*
X133078865Y33141816D01*
X132906727Y33256835D01*
X132760335Y33403227D01*
X132645316Y33575365D01*
X132619934Y33636642D01*
X132566090Y33766632D01*
X132525700Y33969688D01*
X132525700Y34176712D01*
X132566090Y34379768D01*
X132619934Y34509758D01*
X132645316Y34571035D01*
X132760335Y34743173D01*
X132906727Y34889565D01*
X133078865Y35004584D01*
X133140142Y35029966D01*
X133270132Y35083810D01*
X133391966Y35108044D01*
X133473186Y35124200D01*
X133680214Y35124200D01*
X133761434Y35108044D01*
G37*
G36*
X130688034Y35108044D02*
G01*
X130809868Y35083810D01*
X130939858Y35029966D01*
X131001135Y35004584D01*
X131173273Y34889565D01*
X131319665Y34743173D01*
X131434684Y34571035D01*
X131460066Y34509758D01*
X131513910Y34379768D01*
X131554300Y34176712D01*
X131554300Y33969688D01*
X131513910Y33766632D01*
X131460066Y33636642D01*
X131434684Y33575365D01*
X131319665Y33403227D01*
X131173273Y33256835D01*
X131001135Y33141816D01*
X130939858Y33116434D01*
X130809868Y33062590D01*
X130688034Y33038356D01*
X130606814Y33022200D01*
X130399786Y33022200D01*
X130318566Y33038356D01*
X130196732Y33062590D01*
X130066742Y33116434D01*
X130005465Y33141816D01*
X129833327Y33256835D01*
X129686935Y33403227D01*
X129571916Y33575365D01*
X129546534Y33636642D01*
X129492690Y33766632D01*
X129452300Y33969688D01*
X129452300Y34176712D01*
X129492690Y34379768D01*
X129546534Y34509758D01*
X129571916Y34571035D01*
X129686935Y34743173D01*
X129833327Y34889565D01*
X130005465Y35004584D01*
X130066742Y35029966D01*
X130196732Y35083810D01*
X130318566Y35108044D01*
X130399786Y35124200D01*
X130606814Y35124200D01*
X130688034Y35108044D01*
G37*
G36*
X136834834Y35108044D02*
G01*
X136956668Y35083810D01*
X137086658Y35029966D01*
X137147935Y35004584D01*
X137320073Y34889565D01*
X137466465Y34743173D01*
X137581484Y34571035D01*
X137606866Y34509758D01*
X137660710Y34379768D01*
X137701100Y34176712D01*
X137701100Y33969688D01*
X137660710Y33766632D01*
X137606866Y33636642D01*
X137581484Y33575365D01*
X137466465Y33403227D01*
X137320073Y33256835D01*
X137147935Y33141816D01*
X137086658Y33116434D01*
X136956668Y33062590D01*
X136834834Y33038356D01*
X136753614Y33022200D01*
X136546586Y33022200D01*
X136465366Y33038356D01*
X136343532Y33062590D01*
X136213542Y33116434D01*
X136152265Y33141816D01*
X135980127Y33256835D01*
X135833735Y33403227D01*
X135718716Y33575365D01*
X135693334Y33636642D01*
X135639490Y33766632D01*
X135599100Y33969688D01*
X135599100Y34176712D01*
X135639490Y34379768D01*
X135693334Y34509758D01*
X135718716Y34571035D01*
X135833735Y34743173D01*
X135980127Y34889565D01*
X136152265Y35004584D01*
X136213542Y35029966D01*
X136343532Y35083810D01*
X136465366Y35108044D01*
X136546586Y35124200D01*
X136753614Y35124200D01*
X136834834Y35108044D01*
G37*
G36*
X180778734Y42055844D02*
G01*
X180900568Y42031610D01*
X181030558Y41977766D01*
X181091835Y41952384D01*
X181263973Y41837365D01*
X181410365Y41690973D01*
X181525384Y41518835D01*
X181550766Y41457558D01*
X181604610Y41327568D01*
X181645000Y41124512D01*
X181645000Y40917488D01*
X181604610Y40714432D01*
X181550766Y40584442D01*
X181525384Y40523165D01*
X181410365Y40351027D01*
X181263973Y40204635D01*
X181091835Y40089616D01*
X181030558Y40064234D01*
X180900568Y40010390D01*
X180778734Y39986156D01*
X180697514Y39970000D01*
X180490486Y39970000D01*
X180409266Y39986156D01*
X180287432Y40010390D01*
X180157442Y40064234D01*
X180096165Y40089616D01*
X179924027Y40204635D01*
X179777635Y40351027D01*
X179662616Y40523165D01*
X179637234Y40584442D01*
X179583390Y40714432D01*
X179543000Y40917488D01*
X179543000Y41124512D01*
X179583390Y41327568D01*
X179637234Y41457558D01*
X179662616Y41518835D01*
X179777635Y41690973D01*
X179924027Y41837365D01*
X180096165Y41952384D01*
X180157442Y41977766D01*
X180287432Y42031610D01*
X180409266Y42055844D01*
X180490486Y42072000D01*
X180697514Y42072000D01*
X180778734Y42055844D01*
G37*
G36*
X180072600Y44946000D02*
G01*
X178270600Y44946000D01*
X178270600Y46748000D01*
X180072600Y46748000D01*
X180072600Y44946000D01*
G37*
G36*
X177532600Y44946000D02*
G01*
X175730600Y44946000D01*
X175730600Y46748000D01*
X177532600Y46748000D01*
X177532600Y44946000D01*
G37*
G36*
X153474734Y54352744D02*
G01*
X153596568Y54328510D01*
X153726558Y54274666D01*
X153787835Y54249284D01*
X153787836Y54249283D01*
X153959972Y54134266D01*
X154106366Y53987872D01*
X154122271Y53964068D01*
X154221384Y53815735D01*
X154244050Y53761014D01*
X154300610Y53624468D01*
X154341000Y53421412D01*
X154341000Y53214388D01*
X154300610Y53011332D01*
X154246766Y52881342D01*
X154221384Y52820065D01*
X154221383Y52820064D01*
X154112352Y52656886D01*
X154106365Y52647927D01*
X153959973Y52501535D01*
X153787835Y52386516D01*
X153726558Y52361134D01*
X153596568Y52307290D01*
X153474734Y52283056D01*
X153393514Y52266900D01*
X153186486Y52266900D01*
X153105266Y52283056D01*
X152983432Y52307290D01*
X152853442Y52361134D01*
X152792165Y52386516D01*
X152620027Y52501535D01*
X152473635Y52647927D01*
X152467649Y52656886D01*
X152358617Y52820064D01*
X152358616Y52820065D01*
X152333234Y52881342D01*
X152279390Y53011332D01*
X152239000Y53214388D01*
X152239000Y53421412D01*
X152279390Y53624468D01*
X152335950Y53761014D01*
X152358616Y53815735D01*
X152457729Y53964068D01*
X152473634Y53987872D01*
X152620028Y54134266D01*
X152792164Y54249283D01*
X152792165Y54249284D01*
X152853442Y54274666D01*
X152983432Y54328510D01*
X153105266Y54352744D01*
X153186486Y54368900D01*
X153393514Y54368900D01*
X153474734Y54352744D01*
G37*
G36*
X171283081Y54155819D02*
G01*
X171381728Y54136197D01*
X171536600Y54072047D01*
X171675981Y53978915D01*
X171794515Y53860381D01*
X171887647Y53721000D01*
X171951797Y53566128D01*
X171969339Y53477935D01*
X171984500Y53401718D01*
X171984500Y53234082D01*
X171980582Y53214386D01*
X171951797Y53069672D01*
X171887647Y52914800D01*
X171794515Y52775419D01*
X171675981Y52656885D01*
X171536600Y52563753D01*
X171381728Y52499603D01*
X171283081Y52479981D01*
X171217318Y52466900D01*
X171049682Y52466900D01*
X170983919Y52479981D01*
X170885272Y52499603D01*
X170730400Y52563753D01*
X170591019Y52656885D01*
X170472485Y52775419D01*
X170379353Y52914800D01*
X170315203Y53069672D01*
X170286418Y53214386D01*
X170282500Y53234082D01*
X170282500Y53401718D01*
X170297661Y53477935D01*
X170315203Y53566128D01*
X170379353Y53721000D01*
X170472485Y53860381D01*
X170591019Y53978915D01*
X170730400Y54072047D01*
X170885272Y54136197D01*
X170983919Y54155819D01*
X171049682Y54168900D01*
X171217318Y54168900D01*
X171283081Y54155819D01*
G37*
G36*
X156043081Y54155819D02*
G01*
X156141728Y54136197D01*
X156296600Y54072047D01*
X156435981Y53978915D01*
X156554515Y53860381D01*
X156647647Y53721000D01*
X156711797Y53566128D01*
X156729339Y53477935D01*
X156744500Y53401718D01*
X156744500Y53234082D01*
X156740582Y53214386D01*
X156711797Y53069672D01*
X156647647Y52914800D01*
X156554515Y52775419D01*
X156435981Y52656885D01*
X156296600Y52563753D01*
X156141728Y52499603D01*
X156043081Y52479981D01*
X155977318Y52466900D01*
X155809682Y52466900D01*
X155743919Y52479981D01*
X155645272Y52499603D01*
X155490400Y52563753D01*
X155351019Y52656885D01*
X155232485Y52775419D01*
X155139353Y52914800D01*
X155075203Y53069672D01*
X155046418Y53214386D01*
X155042500Y53234082D01*
X155042500Y53401718D01*
X155057661Y53477935D01*
X155075203Y53566128D01*
X155139353Y53721000D01*
X155232485Y53860381D01*
X155351019Y53978915D01*
X155490400Y54072047D01*
X155645272Y54136197D01*
X155743919Y54155819D01*
X155809682Y54168900D01*
X155977318Y54168900D01*
X156043081Y54155819D01*
G37*
G36*
X129740234Y54670744D02*
G01*
X129862068Y54646510D01*
X129972263Y54600865D01*
X130053335Y54567284D01*
X130053336Y54567283D01*
X130222169Y54454473D01*
X130225473Y54452265D01*
X130371865Y54305873D01*
X130486884Y54133735D01*
X130504557Y54091068D01*
X130566110Y53942468D01*
X130606500Y53739412D01*
X130606500Y53532388D01*
X130566110Y53329332D01*
X130518498Y53214388D01*
X130486884Y53138065D01*
X130486883Y53138064D01*
X130371866Y52965928D01*
X130225472Y52819534D01*
X130139404Y52762026D01*
X130053335Y52704516D01*
X129992058Y52679134D01*
X129862068Y52625290D01*
X129767603Y52606500D01*
X129659014Y52584900D01*
X129451986Y52584900D01*
X129343397Y52606500D01*
X129248932Y52625290D01*
X129118942Y52679134D01*
X129057665Y52704516D01*
X128971596Y52762025D01*
X128885528Y52819534D01*
X128739134Y52965928D01*
X128624117Y53138064D01*
X128624116Y53138065D01*
X128592502Y53214388D01*
X128544890Y53329332D01*
X128504500Y53532388D01*
X128504500Y53739412D01*
X128544890Y53942468D01*
X128606443Y54091068D01*
X128624116Y54133735D01*
X128739135Y54305873D01*
X128885527Y54452265D01*
X128888832Y54454473D01*
X129057664Y54567283D01*
X129057665Y54567284D01*
X129138737Y54600865D01*
X129248932Y54646510D01*
X129370766Y54670744D01*
X129451986Y54686900D01*
X129659014Y54686900D01*
X129740234Y54670744D01*
G37*
G36*
X133650307Y54694617D02*
G01*
X133783568Y54668110D01*
X133910843Y54615390D01*
X133974835Y54588884D01*
X134007163Y54567283D01*
X134146972Y54473866D01*
X134293366Y54327472D01*
X134323525Y54282336D01*
X134408384Y54155335D01*
X134417331Y54133735D01*
X134487610Y53964068D01*
X134528000Y53761012D01*
X134528000Y53553988D01*
X134487610Y53350932D01*
X134439209Y53234084D01*
X134408384Y53159665D01*
X134378224Y53114528D01*
X134293366Y52987528D01*
X134146972Y52841134D01*
X134114645Y52819534D01*
X133974835Y52726116D01*
X133913558Y52700734D01*
X133783568Y52646890D01*
X133661734Y52622656D01*
X133580514Y52606500D01*
X133373486Y52606500D01*
X133292266Y52622656D01*
X133170432Y52646890D01*
X133040442Y52700734D01*
X132979165Y52726116D01*
X132839355Y52819534D01*
X132807028Y52841134D01*
X132660634Y52987528D01*
X132575776Y53114528D01*
X132545616Y53159665D01*
X132514791Y53234084D01*
X132466390Y53350932D01*
X132426000Y53553988D01*
X132426000Y53761012D01*
X132466390Y53964068D01*
X132536669Y54133735D01*
X132545616Y54155335D01*
X132630475Y54282336D01*
X132660634Y54327472D01*
X132807028Y54473866D01*
X132946837Y54567283D01*
X132979165Y54588884D01*
X133043157Y54615390D01*
X133170432Y54668110D01*
X133303693Y54694617D01*
X133373486Y54708500D01*
X133580514Y54708500D01*
X133650307Y54694617D01*
G37*
G36*
X137598734Y54819344D02*
G01*
X137720568Y54795110D01*
X137850558Y54741266D01*
X137911835Y54715884D01*
X137983334Y54668110D01*
X138083972Y54600866D01*
X138230366Y54454472D01*
X138287543Y54368900D01*
X138345384Y54282335D01*
X138359074Y54249284D01*
X138424610Y54091068D01*
X138465000Y53888012D01*
X138465000Y53680988D01*
X138424610Y53477932D01*
X138372005Y53350935D01*
X138345384Y53286665D01*
X138345383Y53286664D01*
X138230366Y53114528D01*
X138083972Y52968134D01*
X138004153Y52914801D01*
X137911835Y52853116D01*
X137850558Y52827734D01*
X137720568Y52773890D01*
X137598734Y52749656D01*
X137517514Y52733500D01*
X137310486Y52733500D01*
X137229266Y52749656D01*
X137107432Y52773890D01*
X136977442Y52827734D01*
X136916165Y52853116D01*
X136823847Y52914801D01*
X136744028Y52968134D01*
X136597634Y53114528D01*
X136482617Y53286664D01*
X136482616Y53286665D01*
X136455995Y53350935D01*
X136403390Y53477932D01*
X136363000Y53680988D01*
X136363000Y53888012D01*
X136403390Y54091068D01*
X136468926Y54249284D01*
X136482616Y54282335D01*
X136540457Y54368900D01*
X136597634Y54454472D01*
X136744028Y54600866D01*
X136844666Y54668110D01*
X136916165Y54715884D01*
X136977442Y54741266D01*
X137107432Y54795110D01*
X137229266Y54819344D01*
X137310486Y54835500D01*
X137517514Y54835500D01*
X137598734Y54819344D01*
G37*
G36*
X194812234Y56660844D02*
G01*
X194934068Y56636610D01*
X195064058Y56582766D01*
X195125335Y56557384D01*
X195297473Y56442365D01*
X195443865Y56295973D01*
X195558884Y56123835D01*
X195584266Y56062558D01*
X195638110Y55932568D01*
X195678500Y55729512D01*
X195678500Y55522488D01*
X195638110Y55319432D01*
X195587349Y55196886D01*
X195558884Y55128165D01*
X195443865Y54956027D01*
X195297473Y54809635D01*
X195125335Y54694616D01*
X195064058Y54669234D01*
X194934068Y54615390D01*
X194812234Y54591156D01*
X194731014Y54575000D01*
X194523986Y54575000D01*
X194442766Y54591156D01*
X194320932Y54615390D01*
X194190942Y54669234D01*
X194129665Y54694616D01*
X193957527Y54809635D01*
X193811135Y54956027D01*
X193696116Y55128165D01*
X193667651Y55196886D01*
X193616890Y55319432D01*
X193576500Y55522488D01*
X193576500Y55729512D01*
X193616890Y55932568D01*
X193670734Y56062558D01*
X193696116Y56123835D01*
X193811135Y56295973D01*
X193957527Y56442365D01*
X194129665Y56557384D01*
X194190942Y56582766D01*
X194320932Y56636610D01*
X194442766Y56660844D01*
X194523986Y56677000D01*
X194731014Y56677000D01*
X194812234Y56660844D01*
G37*
G36*
X171283081Y56695819D02*
G01*
X171381728Y56676197D01*
X171536600Y56612047D01*
X171675981Y56518915D01*
X171794515Y56400381D01*
X171887647Y56261000D01*
X171951797Y56106128D01*
X171984500Y55941716D01*
X171984500Y55774084D01*
X171951797Y55609672D01*
X171887647Y55454800D01*
X171794515Y55315419D01*
X171675981Y55196885D01*
X171536600Y55103753D01*
X171381728Y55039603D01*
X171283081Y55019981D01*
X171217318Y55006900D01*
X171049682Y55006900D01*
X170983919Y55019981D01*
X170885272Y55039603D01*
X170730400Y55103753D01*
X170591019Y55196885D01*
X170472485Y55315419D01*
X170379353Y55454800D01*
X170315203Y55609672D01*
X170282500Y55774084D01*
X170282500Y55941716D01*
X170315203Y56106128D01*
X170379353Y56261000D01*
X170472485Y56400381D01*
X170591019Y56518915D01*
X170730400Y56612047D01*
X170885272Y56676197D01*
X170983919Y56695819D01*
X171049682Y56708900D01*
X171217318Y56708900D01*
X171283081Y56695819D01*
G37*
G36*
X156043081Y56695819D02*
G01*
X156141728Y56676197D01*
X156296600Y56612047D01*
X156435981Y56518915D01*
X156554515Y56400381D01*
X156647647Y56261000D01*
X156711797Y56106128D01*
X156744500Y55941716D01*
X156744500Y55774084D01*
X156711797Y55609672D01*
X156647647Y55454800D01*
X156554515Y55315419D01*
X156435981Y55196885D01*
X156296600Y55103753D01*
X156141728Y55039603D01*
X156043081Y55019981D01*
X155977318Y55006900D01*
X155809682Y55006900D01*
X155743919Y55019981D01*
X155645272Y55039603D01*
X155490400Y55103753D01*
X155351019Y55196885D01*
X155232485Y55315419D01*
X155139353Y55454800D01*
X155075203Y55609672D01*
X155042500Y55774084D01*
X155042500Y55941716D01*
X155075203Y56106128D01*
X155139353Y56261000D01*
X155232485Y56400381D01*
X155351019Y56518915D01*
X155490400Y56612047D01*
X155645272Y56676197D01*
X155743919Y56695819D01*
X155809682Y56708900D01*
X155977318Y56708900D01*
X156043081Y56695819D01*
G37*
G36*
X153474734Y57527744D02*
G01*
X153596568Y57503510D01*
X153726558Y57449666D01*
X153787835Y57424284D01*
X153959973Y57309265D01*
X154106365Y57162873D01*
X154221384Y56990735D01*
X154246766Y56929458D01*
X154300610Y56799468D01*
X154318625Y56708900D01*
X154337891Y56612046D01*
X154341000Y56596412D01*
X154341000Y56389388D01*
X154300610Y56186332D01*
X154246766Y56056342D01*
X154221384Y55995065D01*
X154106365Y55822927D01*
X153959973Y55676535D01*
X153787835Y55561516D01*
X153726558Y55536134D01*
X153596568Y55482290D01*
X153474734Y55458056D01*
X153393514Y55441900D01*
X153186486Y55441900D01*
X153105266Y55458056D01*
X152983432Y55482290D01*
X152853442Y55536134D01*
X152792165Y55561516D01*
X152620027Y55676535D01*
X152473635Y55822927D01*
X152358616Y55995065D01*
X152333234Y56056342D01*
X152279390Y56186332D01*
X152239000Y56389388D01*
X152239000Y56596412D01*
X152242110Y56612046D01*
X152261375Y56708900D01*
X152279390Y56799468D01*
X152333234Y56929458D01*
X152358616Y56990735D01*
X152473635Y57162873D01*
X152620027Y57309265D01*
X152792165Y57424284D01*
X152853442Y57449666D01*
X152983432Y57503510D01*
X153105266Y57527744D01*
X153186486Y57543900D01*
X153393514Y57543900D01*
X153474734Y57527744D01*
G37*
G36*
X171283081Y59235819D02*
G01*
X171381728Y59216197D01*
X171536600Y59152047D01*
X171675981Y59058915D01*
X171794515Y58940381D01*
X171887647Y58801000D01*
X171951797Y58646128D01*
X171984500Y58481716D01*
X171984500Y58314084D01*
X171951797Y58149672D01*
X171887647Y57994800D01*
X171794515Y57855419D01*
X171675981Y57736885D01*
X171536600Y57643753D01*
X171381728Y57579603D01*
X171283081Y57559981D01*
X171217318Y57546900D01*
X171049682Y57546900D01*
X170983919Y57559981D01*
X170885272Y57579603D01*
X170730400Y57643753D01*
X170591019Y57736885D01*
X170472485Y57855419D01*
X170379353Y57994800D01*
X170315203Y58149672D01*
X170282500Y58314084D01*
X170282500Y58481716D01*
X170315203Y58646128D01*
X170379353Y58801000D01*
X170472485Y58940381D01*
X170591019Y59058915D01*
X170730400Y59152047D01*
X170885272Y59216197D01*
X170983919Y59235819D01*
X171049682Y59248900D01*
X171217318Y59248900D01*
X171283081Y59235819D01*
G37*
G36*
X156043081Y59235819D02*
G01*
X156141728Y59216197D01*
X156296600Y59152047D01*
X156435981Y59058915D01*
X156554515Y58940381D01*
X156647647Y58801000D01*
X156711797Y58646128D01*
X156744500Y58481716D01*
X156744500Y58314084D01*
X156711797Y58149672D01*
X156647647Y57994800D01*
X156554515Y57855419D01*
X156435981Y57736885D01*
X156296600Y57643753D01*
X156141728Y57579603D01*
X156043081Y57559981D01*
X155977318Y57546900D01*
X155809682Y57546900D01*
X155743919Y57559981D01*
X155645272Y57579603D01*
X155490400Y57643753D01*
X155351019Y57736885D01*
X155232485Y57855419D01*
X155139353Y57994800D01*
X155075203Y58149672D01*
X155042500Y58314084D01*
X155042500Y58481716D01*
X155075203Y58646128D01*
X155139353Y58801000D01*
X155232485Y58940381D01*
X155351019Y59058915D01*
X155490400Y59152047D01*
X155645272Y59216197D01*
X155743919Y59235819D01*
X155809682Y59248900D01*
X155977318Y59248900D01*
X156043081Y59235819D01*
G37*
G36*
X153474734Y60702744D02*
G01*
X153596568Y60678510D01*
X153726558Y60624666D01*
X153787835Y60599284D01*
X153959973Y60484265D01*
X154106365Y60337873D01*
X154221384Y60165735D01*
X154240492Y60119603D01*
X154300610Y59974468D01*
X154341000Y59771412D01*
X154341000Y59564388D01*
X154300610Y59361332D01*
X154254038Y59248900D01*
X154221384Y59170065D01*
X154106365Y58997927D01*
X153959973Y58851535D01*
X153787835Y58736516D01*
X153726558Y58711134D01*
X153596568Y58657290D01*
X153474734Y58633056D01*
X153393514Y58616900D01*
X153186486Y58616900D01*
X153105266Y58633056D01*
X152983432Y58657290D01*
X152853442Y58711134D01*
X152792165Y58736516D01*
X152620027Y58851535D01*
X152473635Y58997927D01*
X152358616Y59170065D01*
X152325962Y59248900D01*
X152279390Y59361332D01*
X152239000Y59564388D01*
X152239000Y59771412D01*
X152279390Y59974468D01*
X152339508Y60119603D01*
X152358616Y60165735D01*
X152473635Y60337873D01*
X152620027Y60484265D01*
X152792165Y60599284D01*
X152853442Y60624666D01*
X152983432Y60678510D01*
X153105266Y60702744D01*
X153186486Y60718900D01*
X153393514Y60718900D01*
X153474734Y60702744D01*
G37*
G36*
X214451500Y58852500D02*
G01*
X212649500Y58852500D01*
X212649500Y60654500D01*
X214451500Y60654500D01*
X214451500Y58852500D01*
G37*
G36*
X156043081Y61775819D02*
G01*
X156141728Y61756197D01*
X156296600Y61692047D01*
X156435981Y61598915D01*
X156554515Y61480381D01*
X156647647Y61341000D01*
X156711797Y61186128D01*
X156744500Y61021716D01*
X156744500Y60854084D01*
X156711797Y60689672D01*
X156647647Y60534800D01*
X156554515Y60395419D01*
X156435981Y60276885D01*
X156296600Y60183753D01*
X156141728Y60119603D01*
X156043081Y60099981D01*
X155977318Y60086900D01*
X155809682Y60086900D01*
X155743919Y60099981D01*
X155645272Y60119603D01*
X155490400Y60183753D01*
X155351019Y60276885D01*
X155232485Y60395419D01*
X155139353Y60534800D01*
X155075203Y60689672D01*
X155042500Y60854084D01*
X155042500Y61021716D01*
X155075203Y61186128D01*
X155139353Y61341000D01*
X155232485Y61480381D01*
X155351019Y61598915D01*
X155490400Y61692047D01*
X155645272Y61756197D01*
X155743919Y61775819D01*
X155809682Y61788900D01*
X155977318Y61788900D01*
X156043081Y61775819D01*
G37*
G36*
X171283081Y61775819D02*
G01*
X171381728Y61756197D01*
X171536600Y61692047D01*
X171675981Y61598915D01*
X171794515Y61480381D01*
X171887647Y61341000D01*
X171951797Y61186128D01*
X171984500Y61021716D01*
X171984500Y60854084D01*
X171951797Y60689672D01*
X171887647Y60534800D01*
X171794515Y60395419D01*
X171675981Y60276885D01*
X171536600Y60183753D01*
X171381728Y60119603D01*
X171283081Y60099981D01*
X171217318Y60086900D01*
X171049682Y60086900D01*
X170983919Y60099981D01*
X170885272Y60119603D01*
X170730400Y60183753D01*
X170591019Y60276885D01*
X170472485Y60395419D01*
X170379353Y60534800D01*
X170315203Y60689672D01*
X170282500Y60854084D01*
X170282500Y61021716D01*
X170315203Y61186128D01*
X170379353Y61341000D01*
X170472485Y61480381D01*
X170591019Y61598915D01*
X170730400Y61692047D01*
X170885272Y61756197D01*
X170983919Y61775819D01*
X171049682Y61788900D01*
X171217318Y61788900D01*
X171283081Y61775819D01*
G37*
G36*
X214451500Y61392500D02*
G01*
X212649500Y61392500D01*
X212649500Y63194500D01*
X214451500Y63194500D01*
X214451500Y61392500D01*
G37*
G36*
X153474734Y63877744D02*
G01*
X153596568Y63853510D01*
X153726558Y63799666D01*
X153787835Y63774284D01*
X153959973Y63659265D01*
X154106365Y63512873D01*
X154221384Y63340735D01*
X154246766Y63279458D01*
X154300610Y63149468D01*
X154315462Y63074801D01*
X154341000Y62946414D01*
X154341000Y62739386D01*
X154337890Y62723753D01*
X154300610Y62536332D01*
X154246766Y62406342D01*
X154221384Y62345065D01*
X154106365Y62172927D01*
X153959973Y62026535D01*
X153787835Y61911516D01*
X153726558Y61886134D01*
X153596568Y61832290D01*
X153474734Y61808056D01*
X153393514Y61791900D01*
X153186486Y61791900D01*
X153105266Y61808056D01*
X152983432Y61832290D01*
X152853442Y61886134D01*
X152792165Y61911516D01*
X152620027Y62026535D01*
X152473635Y62172927D01*
X152358616Y62345065D01*
X152333234Y62406342D01*
X152279390Y62536332D01*
X152242110Y62723753D01*
X152239000Y62739386D01*
X152239000Y62946414D01*
X152264538Y63074801D01*
X152279390Y63149468D01*
X152333234Y63279458D01*
X152358616Y63340735D01*
X152473635Y63512873D01*
X152620027Y63659265D01*
X152792165Y63774284D01*
X152853442Y63799666D01*
X152983432Y63853510D01*
X153105266Y63877744D01*
X153186486Y63893900D01*
X153393514Y63893900D01*
X153474734Y63877744D01*
G37*
G36*
X171283081Y64315819D02*
G01*
X171381728Y64296197D01*
X171536600Y64232047D01*
X171675981Y64138915D01*
X171794515Y64020381D01*
X171887647Y63881000D01*
X171951797Y63726128D01*
X171984500Y63561716D01*
X171984500Y63394084D01*
X171951797Y63229672D01*
X171887647Y63074800D01*
X171794515Y62935419D01*
X171675981Y62816885D01*
X171536600Y62723753D01*
X171381728Y62659603D01*
X171283081Y62639981D01*
X171217318Y62626900D01*
X171049682Y62626900D01*
X170983919Y62639981D01*
X170885272Y62659603D01*
X170730400Y62723753D01*
X170591019Y62816885D01*
X170472485Y62935419D01*
X170379353Y63074800D01*
X170315203Y63229672D01*
X170282500Y63394084D01*
X170282500Y63561716D01*
X170315203Y63726128D01*
X170379353Y63881000D01*
X170472485Y64020381D01*
X170591019Y64138915D01*
X170730400Y64232047D01*
X170885272Y64296197D01*
X170983919Y64315819D01*
X171049682Y64328900D01*
X171217318Y64328900D01*
X171283081Y64315819D01*
G37*
G36*
X156043081Y64315819D02*
G01*
X156141728Y64296197D01*
X156296600Y64232047D01*
X156435981Y64138915D01*
X156554515Y64020381D01*
X156647647Y63881000D01*
X156711797Y63726128D01*
X156744500Y63561716D01*
X156744500Y63394084D01*
X156711797Y63229672D01*
X156647647Y63074800D01*
X156554515Y62935419D01*
X156435981Y62816885D01*
X156296600Y62723753D01*
X156141728Y62659603D01*
X156043081Y62639981D01*
X155977318Y62626900D01*
X155809682Y62626900D01*
X155743919Y62639981D01*
X155645272Y62659603D01*
X155490400Y62723753D01*
X155351019Y62816885D01*
X155232485Y62935419D01*
X155139353Y63074800D01*
X155075203Y63229672D01*
X155042500Y63394084D01*
X155042500Y63561716D01*
X155075203Y63726128D01*
X155139353Y63881000D01*
X155232485Y64020381D01*
X155351019Y64138915D01*
X155490400Y64232047D01*
X155645272Y64296197D01*
X155743919Y64315819D01*
X155809682Y64328900D01*
X155977318Y64328900D01*
X156043081Y64315819D01*
G37*
G36*
X214451500Y63932500D02*
G01*
X212649500Y63932500D01*
X212649500Y65734500D01*
X214451500Y65734500D01*
X214451500Y63932500D01*
G37*
G36*
X177985734Y66151044D02*
G01*
X178107568Y66126810D01*
X178237558Y66072966D01*
X178298835Y66047584D01*
X178470973Y65932565D01*
X178617365Y65786173D01*
X178732384Y65614035D01*
X178757766Y65552758D01*
X178811610Y65422768D01*
X178852000Y65219712D01*
X178852000Y65012688D01*
X178811610Y64809632D01*
X178757766Y64679642D01*
X178732384Y64618365D01*
X178732383Y64618364D01*
X178617366Y64446228D01*
X178470972Y64299834D01*
X178384904Y64242326D01*
X178298835Y64184816D01*
X178237558Y64159434D01*
X178107568Y64105590D01*
X177985734Y64081356D01*
X177904514Y64065200D01*
X177697486Y64065200D01*
X177616266Y64081356D01*
X177494432Y64105590D01*
X177364442Y64159434D01*
X177303165Y64184816D01*
X177217096Y64242326D01*
X177131028Y64299834D01*
X176984634Y64446228D01*
X176869617Y64618364D01*
X176869616Y64618365D01*
X176844234Y64679642D01*
X176790390Y64809632D01*
X176750000Y65012688D01*
X176750000Y65219712D01*
X176790390Y65422768D01*
X176844234Y65552758D01*
X176869616Y65614035D01*
X176984635Y65786173D01*
X177131027Y65932565D01*
X177303165Y66047584D01*
X177364442Y66072966D01*
X177494432Y66126810D01*
X177616266Y66151044D01*
X177697486Y66167200D01*
X177904514Y66167200D01*
X177985734Y66151044D01*
G37*
G36*
X156043081Y66855819D02*
G01*
X156141728Y66836197D01*
X156296600Y66772047D01*
X156435981Y66678915D01*
X156554515Y66560381D01*
X156647647Y66421000D01*
X156711797Y66266128D01*
X156744500Y66101716D01*
X156744500Y65934084D01*
X156711797Y65769672D01*
X156647647Y65614800D01*
X156554515Y65475419D01*
X156435981Y65356885D01*
X156296600Y65263753D01*
X156141728Y65199603D01*
X156043081Y65179981D01*
X155977318Y65166900D01*
X155809682Y65166900D01*
X155743919Y65179981D01*
X155645272Y65199603D01*
X155490400Y65263753D01*
X155351019Y65356885D01*
X155232485Y65475419D01*
X155139353Y65614800D01*
X155075203Y65769672D01*
X155042500Y65934084D01*
X155042500Y66101716D01*
X155075203Y66266128D01*
X155139353Y66421000D01*
X155232485Y66560381D01*
X155351019Y66678915D01*
X155490400Y66772047D01*
X155645272Y66836197D01*
X155743919Y66855819D01*
X155809682Y66868900D01*
X155977318Y66868900D01*
X156043081Y66855819D01*
G37*
G36*
X171283081Y66855819D02*
G01*
X171381728Y66836197D01*
X171536600Y66772047D01*
X171675981Y66678915D01*
X171794515Y66560381D01*
X171887647Y66421000D01*
X171951797Y66266128D01*
X171984500Y66101716D01*
X171984500Y65934084D01*
X171951797Y65769672D01*
X171887647Y65614800D01*
X171794515Y65475419D01*
X171675981Y65356885D01*
X171536600Y65263753D01*
X171381728Y65199603D01*
X171283081Y65179981D01*
X171217318Y65166900D01*
X171049682Y65166900D01*
X170983919Y65179981D01*
X170885272Y65199603D01*
X170730400Y65263753D01*
X170591019Y65356885D01*
X170472485Y65475419D01*
X170379353Y65614800D01*
X170315203Y65769672D01*
X170282500Y65934084D01*
X170282500Y66101716D01*
X170315203Y66266128D01*
X170379353Y66421000D01*
X170472485Y66560381D01*
X170591019Y66678915D01*
X170730400Y66772047D01*
X170885272Y66836197D01*
X170983919Y66855819D01*
X171049682Y66868900D01*
X171217318Y66868900D01*
X171283081Y66855819D01*
G37*
G36*
X214451500Y66472500D02*
G01*
X212649500Y66472500D01*
X212649500Y68274500D01*
X214451500Y68274500D01*
X214451500Y66472500D01*
G37*
G36*
X174175734Y68703744D02*
G01*
X174297568Y68679510D01*
X174388809Y68641716D01*
X174488835Y68600284D01*
X174574904Y68542774D01*
X174660972Y68485266D01*
X174807366Y68338872D01*
X174850378Y68274500D01*
X174922384Y68166735D01*
X174947766Y68105458D01*
X175001610Y67975468D01*
X175017241Y67896886D01*
X175042000Y67772414D01*
X175042000Y67565386D01*
X175025844Y67484166D01*
X175001610Y67362332D01*
X174947766Y67232342D01*
X174922384Y67171065D01*
X174922383Y67171064D01*
X174807366Y66998928D01*
X174660972Y66852534D01*
X174574904Y66795025D01*
X174488835Y66737516D01*
X174427558Y66712134D01*
X174297568Y66658290D01*
X174175734Y66634056D01*
X174094514Y66617900D01*
X173887486Y66617900D01*
X173806266Y66634056D01*
X173684432Y66658290D01*
X173554442Y66712134D01*
X173493165Y66737516D01*
X173407096Y66795025D01*
X173321028Y66852534D01*
X173174634Y66998928D01*
X173059617Y67171064D01*
X173059616Y67171065D01*
X173034234Y67232342D01*
X172980390Y67362332D01*
X172956156Y67484166D01*
X172940000Y67565386D01*
X172940000Y67772414D01*
X172964759Y67896886D01*
X172980390Y67975468D01*
X173034234Y68105458D01*
X173059616Y68166735D01*
X173131622Y68274500D01*
X173174634Y68338872D01*
X173321028Y68485266D01*
X173407096Y68542774D01*
X173493165Y68600284D01*
X173593191Y68641716D01*
X173684432Y68679510D01*
X173806266Y68703744D01*
X173887486Y68719900D01*
X174094514Y68719900D01*
X174175734Y68703744D01*
G37*
G36*
X153474734Y69529244D02*
G01*
X153596568Y69505010D01*
X153726558Y69451166D01*
X153787835Y69425784D01*
X153862047Y69376197D01*
X153958055Y69312047D01*
X153959973Y69310765D01*
X154106365Y69164373D01*
X154221384Y68992235D01*
X154234322Y68961000D01*
X154300610Y68800968D01*
X154316735Y68719900D01*
X154341000Y68597914D01*
X154341000Y68390886D01*
X154324846Y68309675D01*
X154300610Y68187832D01*
X154286927Y68154800D01*
X154221384Y67996565D01*
X154106365Y67824427D01*
X153959973Y67678035D01*
X153787835Y67563016D01*
X153726558Y67537634D01*
X153596568Y67483790D01*
X153474734Y67459556D01*
X153393514Y67443400D01*
X153186486Y67443400D01*
X153105266Y67459556D01*
X152983432Y67483790D01*
X152853442Y67537634D01*
X152792165Y67563016D01*
X152620027Y67678035D01*
X152473635Y67824427D01*
X152358616Y67996565D01*
X152293073Y68154800D01*
X152279390Y68187832D01*
X152255154Y68309675D01*
X152239000Y68390886D01*
X152239000Y68597914D01*
X152263265Y68719900D01*
X152279390Y68800968D01*
X152345678Y68961000D01*
X152358616Y68992235D01*
X152473635Y69164373D01*
X152620027Y69310765D01*
X152621946Y69312047D01*
X152717953Y69376197D01*
X152792165Y69425784D01*
X152853442Y69451166D01*
X152983432Y69505010D01*
X153105266Y69529244D01*
X153186486Y69545400D01*
X153393514Y69545400D01*
X153474734Y69529244D01*
G37*
G36*
X171283081Y69395819D02*
G01*
X171381728Y69376197D01*
X171536600Y69312047D01*
X171675981Y69218915D01*
X171794515Y69100381D01*
X171887647Y68961000D01*
X171951797Y68806128D01*
X171971419Y68707481D01*
X171976983Y68679510D01*
X171984500Y68641716D01*
X171984500Y68474084D01*
X171951797Y68309672D01*
X171887647Y68154800D01*
X171794515Y68015419D01*
X171675981Y67896885D01*
X171536600Y67803753D01*
X171381728Y67739603D01*
X171283081Y67719981D01*
X171217318Y67706900D01*
X171049682Y67706900D01*
X170983919Y67719981D01*
X170885272Y67739603D01*
X170730400Y67803753D01*
X170591019Y67896885D01*
X170472485Y68015419D01*
X170379353Y68154800D01*
X170315203Y68309672D01*
X170282500Y68474084D01*
X170282500Y68641716D01*
X170290018Y68679510D01*
X170295581Y68707481D01*
X170315203Y68806128D01*
X170379353Y68961000D01*
X170472485Y69100381D01*
X170591019Y69218915D01*
X170730400Y69312047D01*
X170885272Y69376197D01*
X170983919Y69395819D01*
X171049682Y69408900D01*
X171217318Y69408900D01*
X171283081Y69395819D01*
G37*
G36*
X156043081Y69395819D02*
G01*
X156141728Y69376197D01*
X156296600Y69312047D01*
X156435981Y69218915D01*
X156554515Y69100381D01*
X156647647Y68961000D01*
X156711797Y68806128D01*
X156731419Y68707481D01*
X156736983Y68679510D01*
X156744500Y68641716D01*
X156744500Y68474084D01*
X156711797Y68309672D01*
X156647647Y68154800D01*
X156554515Y68015419D01*
X156435981Y67896885D01*
X156296600Y67803753D01*
X156141728Y67739603D01*
X156043081Y67719981D01*
X155977318Y67706900D01*
X155809682Y67706900D01*
X155743919Y67719981D01*
X155645272Y67739603D01*
X155490400Y67803753D01*
X155351019Y67896885D01*
X155232485Y68015419D01*
X155139353Y68154800D01*
X155075203Y68309672D01*
X155042500Y68474084D01*
X155042500Y68641716D01*
X155050018Y68679510D01*
X155055581Y68707481D01*
X155075203Y68806128D01*
X155139353Y68961000D01*
X155232485Y69100381D01*
X155351019Y69218915D01*
X155490400Y69312047D01*
X155645272Y69376197D01*
X155743919Y69395819D01*
X155809682Y69408900D01*
X155977318Y69408900D01*
X156043081Y69395819D01*
G37*
G36*
X214451500Y69012500D02*
G01*
X212649500Y69012500D01*
X212649500Y70814500D01*
X214451500Y70814500D01*
X214451500Y69012500D01*
G37*
G36*
X174175734Y71878744D02*
G01*
X174297568Y71854510D01*
X174427558Y71800666D01*
X174488835Y71775284D01*
X174488836Y71775283D01*
X174660972Y71660266D01*
X174807366Y71513872D01*
X174815967Y71500999D01*
X174922384Y71341735D01*
X174947766Y71280458D01*
X175001610Y71150468D01*
X175042000Y70947412D01*
X175042000Y70740388D01*
X175001610Y70537332D01*
X174960003Y70436886D01*
X174922384Y70346065D01*
X174807365Y70173927D01*
X174660973Y70027535D01*
X174488835Y69912516D01*
X174427558Y69887134D01*
X174297568Y69833290D01*
X174175734Y69809056D01*
X174094514Y69792900D01*
X173887486Y69792900D01*
X173806266Y69809056D01*
X173684432Y69833290D01*
X173554442Y69887134D01*
X173493165Y69912516D01*
X173321027Y70027535D01*
X173174635Y70173927D01*
X173059616Y70346065D01*
X173021997Y70436886D01*
X172980390Y70537332D01*
X172940000Y70740388D01*
X172940000Y70947412D01*
X172980390Y71150468D01*
X173034234Y71280458D01*
X173059616Y71341735D01*
X173166033Y71500999D01*
X173174634Y71513872D01*
X173321028Y71660266D01*
X173493164Y71775283D01*
X173493165Y71775284D01*
X173554442Y71800666D01*
X173684432Y71854510D01*
X173806266Y71878744D01*
X173887486Y71894900D01*
X174094514Y71894900D01*
X174175734Y71878744D01*
G37*
G36*
X171283081Y71935819D02*
G01*
X171381728Y71916197D01*
X171536600Y71852047D01*
X171675981Y71758915D01*
X171794515Y71640381D01*
X171887647Y71501000D01*
X171951797Y71346128D01*
X171984500Y71181716D01*
X171984500Y71014084D01*
X171951797Y70849672D01*
X171887647Y70694800D01*
X171794515Y70555419D01*
X171675981Y70436885D01*
X171536600Y70343753D01*
X171381728Y70279603D01*
X171283081Y70259981D01*
X171217318Y70246900D01*
X171049682Y70246900D01*
X170983919Y70259981D01*
X170885272Y70279603D01*
X170730400Y70343753D01*
X170591019Y70436885D01*
X170472485Y70555419D01*
X170379353Y70694800D01*
X170315203Y70849672D01*
X170282500Y71014084D01*
X170282500Y71181716D01*
X170315203Y71346128D01*
X170379353Y71501000D01*
X170472485Y71640381D01*
X170591019Y71758915D01*
X170730400Y71852047D01*
X170885272Y71916197D01*
X170983919Y71935819D01*
X171049682Y71948900D01*
X171217318Y71948900D01*
X171283081Y71935819D01*
G37*
G36*
X156043081Y71935819D02*
G01*
X156141728Y71916197D01*
X156296600Y71852047D01*
X156435981Y71758915D01*
X156554515Y71640381D01*
X156647647Y71501000D01*
X156711797Y71346128D01*
X156744500Y71181716D01*
X156744500Y71014084D01*
X156711797Y70849672D01*
X156647647Y70694800D01*
X156554515Y70555419D01*
X156435981Y70436885D01*
X156296600Y70343753D01*
X156141728Y70279603D01*
X156043081Y70259981D01*
X155977318Y70246900D01*
X155809682Y70246900D01*
X155743919Y70259981D01*
X155645272Y70279603D01*
X155490400Y70343753D01*
X155351019Y70436885D01*
X155232485Y70555419D01*
X155139353Y70694800D01*
X155075203Y70849672D01*
X155042500Y71014084D01*
X155042500Y71181716D01*
X155075203Y71346128D01*
X155139353Y71501000D01*
X155232485Y71640381D01*
X155351019Y71758915D01*
X155490400Y71852047D01*
X155645272Y71916197D01*
X155743919Y71935819D01*
X155809682Y71948900D01*
X155977318Y71948900D01*
X156043081Y71935819D01*
G37*
G36*
X211911500Y71552500D02*
G01*
X210109500Y71552500D01*
X210109500Y73354500D01*
X211911500Y73354500D01*
X211911500Y71552500D01*
G37*
G36*
X214451500Y71552500D02*
G01*
X212649500Y71552500D01*
X212649500Y73354500D01*
X214451500Y73354500D01*
X214451500Y71552500D01*
G37*
G36*
X171283081Y74475819D02*
G01*
X171381728Y74456197D01*
X171536600Y74392047D01*
X171675981Y74298915D01*
X171794515Y74180381D01*
X171887647Y74041000D01*
X171951797Y73886128D01*
X171984500Y73721716D01*
X171984500Y73554084D01*
X171951797Y73389672D01*
X171887647Y73234800D01*
X171794515Y73095419D01*
X171675981Y72976885D01*
X171536600Y72883753D01*
X171381728Y72819603D01*
X171283081Y72799981D01*
X171217318Y72786900D01*
X171049682Y72786900D01*
X170983919Y72799981D01*
X170885272Y72819603D01*
X170730400Y72883753D01*
X170591019Y72976885D01*
X170472485Y73095419D01*
X170379353Y73234800D01*
X170315203Y73389672D01*
X170282500Y73554084D01*
X170282500Y73721716D01*
X170315203Y73886128D01*
X170379353Y74041000D01*
X170472485Y74180381D01*
X170591019Y74298915D01*
X170730400Y74392047D01*
X170885272Y74456197D01*
X170983919Y74475819D01*
X171049682Y74488900D01*
X171217318Y74488900D01*
X171283081Y74475819D01*
G37*
G36*
X156043081Y74475819D02*
G01*
X156141728Y74456197D01*
X156296600Y74392047D01*
X156435981Y74298915D01*
X156554515Y74180381D01*
X156647647Y74041000D01*
X156711797Y73886128D01*
X156744500Y73721716D01*
X156744500Y73554084D01*
X156711797Y73389672D01*
X156647647Y73234800D01*
X156554515Y73095419D01*
X156435981Y72976885D01*
X156296600Y72883753D01*
X156141728Y72819603D01*
X156043081Y72799981D01*
X155977318Y72786900D01*
X155809682Y72786900D01*
X155743919Y72799981D01*
X155645272Y72819603D01*
X155490400Y72883753D01*
X155351019Y72976885D01*
X155232485Y73095419D01*
X155139353Y73234800D01*
X155075203Y73389672D01*
X155042500Y73554084D01*
X155042500Y73721716D01*
X155075203Y73886128D01*
X155139353Y74041000D01*
X155232485Y74180381D01*
X155351019Y74298915D01*
X155490400Y74392047D01*
X155645272Y74456197D01*
X155743919Y74475819D01*
X155809682Y74488900D01*
X155977318Y74488900D01*
X156043081Y74475819D01*
G37*
G36*
X174175734Y75053744D02*
G01*
X174297568Y75029510D01*
X174427558Y74975666D01*
X174488835Y74950284D01*
X174660973Y74835265D01*
X174807365Y74688873D01*
X174922384Y74516735D01*
X174947459Y74456197D01*
X175001610Y74325468D01*
X175025844Y74203634D01*
X175042000Y74122414D01*
X175042000Y73915386D01*
X175025844Y73834166D01*
X175001610Y73712332D01*
X174947766Y73582342D01*
X174922384Y73521065D01*
X174807365Y73348927D01*
X174660973Y73202535D01*
X174488835Y73087516D01*
X174427558Y73062134D01*
X174297568Y73008290D01*
X174175734Y72984056D01*
X174094514Y72967900D01*
X173887486Y72967900D01*
X173806266Y72984056D01*
X173684432Y73008290D01*
X173554442Y73062134D01*
X173493165Y73087516D01*
X173321027Y73202535D01*
X173174635Y73348927D01*
X173059616Y73521065D01*
X173034234Y73582342D01*
X172980390Y73712332D01*
X172956156Y73834166D01*
X172940000Y73915386D01*
X172940000Y74122414D01*
X172956156Y74203634D01*
X172980390Y74325468D01*
X173034541Y74456197D01*
X173059616Y74516735D01*
X173174635Y74688873D01*
X173321027Y74835265D01*
X173493165Y74950284D01*
X173554442Y74975666D01*
X173684432Y75029510D01*
X173806266Y75053744D01*
X173887486Y75069900D01*
X174094514Y75069900D01*
X174175734Y75053744D01*
G37*
G36*
X214451500Y74092500D02*
G01*
X212649500Y74092500D01*
X212649500Y75894500D01*
X214451500Y75894500D01*
X214451500Y74092500D01*
G37*
G36*
X211911500Y74092500D02*
G01*
X210109500Y74092500D01*
X210109500Y75894500D01*
X211911500Y75894500D01*
X211911500Y74092500D01*
G37*
G36*
X153474734Y77212744D02*
G01*
X153596568Y77188510D01*
X153726558Y77134666D01*
X153787835Y77109284D01*
X153787836Y77109283D01*
X153959972Y76994266D01*
X154106366Y76847872D01*
X154163875Y76761804D01*
X154221384Y76675735D01*
X154239292Y76632500D01*
X154300610Y76484468D01*
X154341000Y76281412D01*
X154341000Y76074388D01*
X154300610Y75871332D01*
X154246766Y75741342D01*
X154221384Y75680065D01*
X154221383Y75680064D01*
X154112352Y75516886D01*
X154106365Y75507927D01*
X153959973Y75361535D01*
X153787835Y75246516D01*
X153726558Y75221134D01*
X153596568Y75167290D01*
X153474734Y75143056D01*
X153393514Y75126900D01*
X153186486Y75126900D01*
X153105266Y75143056D01*
X152983432Y75167290D01*
X152853442Y75221134D01*
X152792165Y75246516D01*
X152620027Y75361535D01*
X152473635Y75507927D01*
X152467649Y75516886D01*
X152358617Y75680064D01*
X152358616Y75680065D01*
X152333234Y75741342D01*
X152279390Y75871332D01*
X152239000Y76074388D01*
X152239000Y76281412D01*
X152279390Y76484468D01*
X152340708Y76632500D01*
X152358616Y76675735D01*
X152416126Y76761804D01*
X152473634Y76847872D01*
X152620028Y76994266D01*
X152792164Y77109283D01*
X152792165Y77109284D01*
X152853442Y77134666D01*
X152983432Y77188510D01*
X153105266Y77212744D01*
X153186486Y77228900D01*
X153393514Y77228900D01*
X153474734Y77212744D01*
G37*
G36*
X156043081Y77015819D02*
G01*
X156141728Y76996197D01*
X156296600Y76932047D01*
X156435981Y76838915D01*
X156554515Y76720381D01*
X156647647Y76581000D01*
X156711797Y76426128D01*
X156731419Y76327481D01*
X156744500Y76261718D01*
X156744500Y76094082D01*
X156740582Y76074386D01*
X156711797Y75929672D01*
X156647647Y75774800D01*
X156554515Y75635419D01*
X156435981Y75516885D01*
X156296600Y75423753D01*
X156141728Y75359603D01*
X156043081Y75339981D01*
X155977318Y75326900D01*
X155809682Y75326900D01*
X155743919Y75339981D01*
X155645272Y75359603D01*
X155490400Y75423753D01*
X155351019Y75516885D01*
X155232485Y75635419D01*
X155139353Y75774800D01*
X155075203Y75929672D01*
X155046418Y76074386D01*
X155042500Y76094082D01*
X155042500Y76261718D01*
X155055581Y76327481D01*
X155075203Y76426128D01*
X155139353Y76581000D01*
X155232485Y76720381D01*
X155351019Y76838915D01*
X155490400Y76932047D01*
X155645272Y76996197D01*
X155743919Y77015819D01*
X155809682Y77028900D01*
X155977318Y77028900D01*
X156043081Y77015819D01*
G37*
G36*
X171283081Y77015819D02*
G01*
X171381728Y76996197D01*
X171536600Y76932047D01*
X171675981Y76838915D01*
X171794515Y76720381D01*
X171887647Y76581000D01*
X171951797Y76426128D01*
X171971419Y76327481D01*
X171984500Y76261718D01*
X171984500Y76094082D01*
X171980582Y76074386D01*
X171951797Y75929672D01*
X171887647Y75774800D01*
X171794515Y75635419D01*
X171675981Y75516885D01*
X171536600Y75423753D01*
X171381728Y75359603D01*
X171283081Y75339981D01*
X171217318Y75326900D01*
X171049682Y75326900D01*
X170983919Y75339981D01*
X170885272Y75359603D01*
X170730400Y75423753D01*
X170591019Y75516885D01*
X170472485Y75635419D01*
X170379353Y75774800D01*
X170315203Y75929672D01*
X170286418Y76074386D01*
X170282500Y76094082D01*
X170282500Y76261718D01*
X170295581Y76327481D01*
X170315203Y76426128D01*
X170379353Y76581000D01*
X170472485Y76720381D01*
X170591019Y76838915D01*
X170730400Y76932047D01*
X170885272Y76996197D01*
X170983919Y77015819D01*
X171049682Y77028900D01*
X171217318Y77028900D01*
X171283081Y77015819D01*
G37*
G36*
X214451500Y76632500D02*
G01*
X212649500Y76632500D01*
X212649500Y78434500D01*
X214451500Y78434500D01*
X214451500Y76632500D01*
G37*
G36*
X211911500Y76632500D02*
G01*
X210109500Y76632500D01*
X210109500Y78434500D01*
X211911500Y78434500D01*
X211911500Y76632500D01*
G37*
G36*
X171283081Y79555819D02*
G01*
X171381728Y79536197D01*
X171536600Y79472047D01*
X171675981Y79378915D01*
X171794515Y79260381D01*
X171887647Y79121000D01*
X171951797Y78966128D01*
X171984500Y78801716D01*
X171984500Y78634084D01*
X171951797Y78469672D01*
X171887647Y78314800D01*
X171794515Y78175419D01*
X171675981Y78056885D01*
X171536600Y77963753D01*
X171381728Y77899603D01*
X171283081Y77879981D01*
X171217318Y77866900D01*
X171049682Y77866900D01*
X170983919Y77879981D01*
X170885272Y77899603D01*
X170730400Y77963753D01*
X170591019Y78056885D01*
X170472485Y78175419D01*
X170379353Y78314800D01*
X170315203Y78469672D01*
X170282500Y78634084D01*
X170282500Y78801716D01*
X170315203Y78966128D01*
X170379353Y79121000D01*
X170472485Y79260381D01*
X170591019Y79378915D01*
X170730400Y79472047D01*
X170885272Y79536197D01*
X170983919Y79555819D01*
X171049682Y79568900D01*
X171217318Y79568900D01*
X171283081Y79555819D01*
G37*
G36*
X156043081Y79555819D02*
G01*
X156141728Y79536197D01*
X156296600Y79472047D01*
X156435981Y79378915D01*
X156554515Y79260381D01*
X156647647Y79121000D01*
X156711797Y78966128D01*
X156744500Y78801716D01*
X156744500Y78634084D01*
X156711797Y78469672D01*
X156647647Y78314800D01*
X156554515Y78175419D01*
X156435981Y78056885D01*
X156296600Y77963753D01*
X156141728Y77899603D01*
X156043081Y77879981D01*
X155977318Y77866900D01*
X155809682Y77866900D01*
X155743919Y77879981D01*
X155645272Y77899603D01*
X155490400Y77963753D01*
X155351019Y78056885D01*
X155232485Y78175419D01*
X155139353Y78314800D01*
X155075203Y78469672D01*
X155042500Y78634084D01*
X155042500Y78801716D01*
X155075203Y78966128D01*
X155139353Y79121000D01*
X155232485Y79260381D01*
X155351019Y79378915D01*
X155490400Y79472047D01*
X155645272Y79536197D01*
X155743919Y79555819D01*
X155809682Y79568900D01*
X155977318Y79568900D01*
X156043081Y79555819D01*
G37*
G36*
X214451500Y79172500D02*
G01*
X212649500Y79172500D01*
X212649500Y80974500D01*
X214451500Y80974500D01*
X214451500Y79172500D01*
G37*
G36*
X211911500Y79172500D02*
G01*
X210109500Y79172500D01*
X210109500Y80974500D01*
X211911500Y80974500D01*
X211911500Y79172500D01*
G37*
G36*
X153474734Y82292744D02*
G01*
X153596568Y82268510D01*
X153726558Y82214666D01*
X153787835Y82189284D01*
X153787836Y82189283D01*
X153959972Y82074266D01*
X154106366Y81927872D01*
X154163874Y81841804D01*
X154221384Y81755735D01*
X154228745Y81737964D01*
X154300610Y81564468D01*
X154341000Y81361412D01*
X154341000Y81154388D01*
X154300610Y80951332D01*
X154246766Y80821342D01*
X154221384Y80760065D01*
X154221383Y80760064D01*
X154112352Y80596886D01*
X154106365Y80587927D01*
X153959973Y80441535D01*
X153787835Y80326516D01*
X153726558Y80301134D01*
X153596568Y80247290D01*
X153474734Y80223056D01*
X153393514Y80206900D01*
X153186486Y80206900D01*
X153105266Y80223056D01*
X152983432Y80247290D01*
X152853442Y80301134D01*
X152792165Y80326516D01*
X152620027Y80441535D01*
X152473635Y80587927D01*
X152467649Y80596886D01*
X152358617Y80760064D01*
X152358616Y80760065D01*
X152333234Y80821342D01*
X152279390Y80951332D01*
X152239000Y81154388D01*
X152239000Y81361412D01*
X152279390Y81564468D01*
X152351255Y81737964D01*
X152358616Y81755735D01*
X152416126Y81841804D01*
X152473634Y81927872D01*
X152620028Y82074266D01*
X152792164Y82189283D01*
X152792165Y82189284D01*
X152853442Y82214666D01*
X152983432Y82268510D01*
X153105266Y82292744D01*
X153186486Y82308900D01*
X153393514Y82308900D01*
X153474734Y82292744D01*
G37*
G36*
X171283081Y82095819D02*
G01*
X171381728Y82076197D01*
X171536600Y82012047D01*
X171675981Y81918915D01*
X171794515Y81800381D01*
X171887647Y81661000D01*
X171951797Y81506128D01*
X171969041Y81419435D01*
X171984500Y81341718D01*
X171984500Y81174082D01*
X171980582Y81154386D01*
X171951797Y81009672D01*
X171887647Y80854800D01*
X171794515Y80715419D01*
X171675981Y80596885D01*
X171536600Y80503753D01*
X171381728Y80439603D01*
X171283081Y80419981D01*
X171217318Y80406900D01*
X171049682Y80406900D01*
X170983919Y80419981D01*
X170885272Y80439603D01*
X170730400Y80503753D01*
X170591019Y80596885D01*
X170472485Y80715419D01*
X170379353Y80854800D01*
X170315203Y81009672D01*
X170286418Y81154386D01*
X170282500Y81174082D01*
X170282500Y81341718D01*
X170297959Y81419435D01*
X170315203Y81506128D01*
X170379353Y81661000D01*
X170472485Y81800381D01*
X170591019Y81918915D01*
X170730400Y82012047D01*
X170885272Y82076197D01*
X170983919Y82095819D01*
X171049682Y82108900D01*
X171217318Y82108900D01*
X171283081Y82095819D01*
G37*
G36*
X156043081Y82095819D02*
G01*
X156141728Y82076197D01*
X156296600Y82012047D01*
X156435981Y81918915D01*
X156554515Y81800381D01*
X156647647Y81661000D01*
X156711797Y81506128D01*
X156729041Y81419435D01*
X156744500Y81341718D01*
X156744500Y81174082D01*
X156740582Y81154386D01*
X156711797Y81009672D01*
X156647647Y80854800D01*
X156554515Y80715419D01*
X156435981Y80596885D01*
X156296600Y80503753D01*
X156141728Y80439603D01*
X156043081Y80419981D01*
X155977318Y80406900D01*
X155809682Y80406900D01*
X155743919Y80419981D01*
X155645272Y80439603D01*
X155490400Y80503753D01*
X155351019Y80596885D01*
X155232485Y80715419D01*
X155139353Y80854800D01*
X155075203Y81009672D01*
X155046418Y81154386D01*
X155042500Y81174082D01*
X155042500Y81341718D01*
X155057959Y81419435D01*
X155075203Y81506128D01*
X155139353Y81661000D01*
X155232485Y81800381D01*
X155351019Y81918915D01*
X155490400Y82012047D01*
X155645272Y82076197D01*
X155743919Y82095819D01*
X155809682Y82108900D01*
X155977318Y82108900D01*
X156043081Y82095819D01*
G37*
G36*
X175547334Y83270644D02*
G01*
X175669168Y83246410D01*
X175799158Y83192566D01*
X175860435Y83167184D01*
X176032573Y83052165D01*
X176178965Y82905773D01*
X176293984Y82733635D01*
X176319366Y82672358D01*
X176373210Y82542368D01*
X176413600Y82339312D01*
X176413600Y82132288D01*
X176373210Y81929232D01*
X176319837Y81800381D01*
X176293984Y81737965D01*
X176178965Y81565827D01*
X176032573Y81419435D01*
X175860435Y81304416D01*
X175799158Y81279034D01*
X175669168Y81225190D01*
X175547334Y81200956D01*
X175466114Y81184800D01*
X175259086Y81184800D01*
X175177866Y81200956D01*
X175056032Y81225190D01*
X174926042Y81279034D01*
X174864765Y81304416D01*
X174692627Y81419435D01*
X174546235Y81565827D01*
X174431216Y81737965D01*
X174405363Y81800381D01*
X174351990Y81929232D01*
X174311600Y82132288D01*
X174311600Y82339312D01*
X174351990Y82542368D01*
X174405834Y82672358D01*
X174431216Y82733635D01*
X174546235Y82905773D01*
X174692627Y83052165D01*
X174864765Y83167184D01*
X174926042Y83192566D01*
X175056032Y83246410D01*
X175177866Y83270644D01*
X175259086Y83286800D01*
X175466114Y83286800D01*
X175547334Y83270644D01*
G37*
G36*
X156043081Y84635819D02*
G01*
X156141728Y84616197D01*
X156296600Y84552047D01*
X156435981Y84458915D01*
X156554515Y84340381D01*
X156647647Y84201000D01*
X156711797Y84046128D01*
X156744500Y83881716D01*
X156744500Y83714084D01*
X156711797Y83549672D01*
X156647647Y83394800D01*
X156554515Y83255419D01*
X156435981Y83136885D01*
X156296600Y83043753D01*
X156141728Y82979603D01*
X156043081Y82959981D01*
X155977318Y82946900D01*
X155809682Y82946900D01*
X155743919Y82959981D01*
X155645272Y82979603D01*
X155490400Y83043753D01*
X155351019Y83136885D01*
X155232485Y83255419D01*
X155139353Y83394800D01*
X155075203Y83549672D01*
X155042500Y83714084D01*
X155042500Y83881716D01*
X155075203Y84046128D01*
X155139353Y84201000D01*
X155232485Y84340381D01*
X155351019Y84458915D01*
X155490400Y84552047D01*
X155645272Y84616197D01*
X155743919Y84635819D01*
X155809682Y84648900D01*
X155977318Y84648900D01*
X156043081Y84635819D01*
G37*
G36*
X171283081Y84635819D02*
G01*
X171381728Y84616197D01*
X171536600Y84552047D01*
X171675981Y84458915D01*
X171794515Y84340381D01*
X171887647Y84201000D01*
X171951797Y84046128D01*
X171984500Y83881716D01*
X171984500Y83714084D01*
X171951797Y83549672D01*
X171887647Y83394800D01*
X171794515Y83255419D01*
X171675981Y83136885D01*
X171536600Y83043753D01*
X171381728Y82979603D01*
X171283081Y82959981D01*
X171217318Y82946900D01*
X171049682Y82946900D01*
X170983919Y82959981D01*
X170885272Y82979603D01*
X170730400Y83043753D01*
X170591019Y83136885D01*
X170472485Y83255419D01*
X170379353Y83394800D01*
X170315203Y83549672D01*
X170282500Y83714084D01*
X170282500Y83881716D01*
X170315203Y84046128D01*
X170379353Y84201000D01*
X170472485Y84340381D01*
X170591019Y84458915D01*
X170730400Y84552047D01*
X170885272Y84616197D01*
X170983919Y84635819D01*
X171049682Y84648900D01*
X171217318Y84648900D01*
X171283081Y84635819D01*
G37*
G36*
X171283081Y87175819D02*
G01*
X171381728Y87156197D01*
X171536600Y87092047D01*
X171675981Y86998915D01*
X171794515Y86880381D01*
X171887647Y86741000D01*
X171951797Y86586128D01*
X171984500Y86421716D01*
X171984500Y86254084D01*
X171951797Y86089672D01*
X171887647Y85934800D01*
X171794515Y85795419D01*
X171675981Y85676885D01*
X171536600Y85583753D01*
X171381728Y85519603D01*
X171283081Y85499981D01*
X171217318Y85486900D01*
X171049682Y85486900D01*
X170983919Y85499981D01*
X170885272Y85519603D01*
X170730400Y85583753D01*
X170591019Y85676885D01*
X170472485Y85795419D01*
X170379353Y85934800D01*
X170315203Y86089672D01*
X170282500Y86254084D01*
X170282500Y86421716D01*
X170315203Y86586128D01*
X170379353Y86741000D01*
X170472485Y86880381D01*
X170591019Y86998915D01*
X170730400Y87092047D01*
X170885272Y87156197D01*
X170983919Y87175819D01*
X171049682Y87188900D01*
X171217318Y87188900D01*
X171283081Y87175819D01*
G37*
G36*
X156043081Y87175819D02*
G01*
X156141728Y87156197D01*
X156296600Y87092047D01*
X156435981Y86998915D01*
X156554515Y86880381D01*
X156647647Y86741000D01*
X156711797Y86586128D01*
X156744500Y86421716D01*
X156744500Y86254084D01*
X156711797Y86089672D01*
X156647647Y85934800D01*
X156554515Y85795419D01*
X156435981Y85676885D01*
X156296600Y85583753D01*
X156141728Y85519603D01*
X156043081Y85499981D01*
X155977318Y85486900D01*
X155809682Y85486900D01*
X155743919Y85499981D01*
X155645272Y85519603D01*
X155490400Y85583753D01*
X155351019Y85676885D01*
X155232485Y85795419D01*
X155139353Y85934800D01*
X155075203Y86089672D01*
X155042500Y86254084D01*
X155042500Y86421716D01*
X155075203Y86586128D01*
X155139353Y86741000D01*
X155232485Y86880381D01*
X155351019Y86998915D01*
X155490400Y87092047D01*
X155645272Y87156197D01*
X155743919Y87175819D01*
X155809682Y87188900D01*
X155977318Y87188900D01*
X156043081Y87175819D01*
G37*
G36*
X156744500Y88026900D02*
G01*
X155042500Y88026900D01*
X155042500Y89728900D01*
X156744500Y89728900D01*
X156744500Y88026900D01*
G37*
G36*
X171283081Y89715819D02*
G01*
X171381728Y89696197D01*
X171536600Y89632047D01*
X171675981Y89538915D01*
X171794515Y89420381D01*
X171887647Y89281000D01*
X171951797Y89126128D01*
X171984500Y88961716D01*
X171984500Y88794084D01*
X171951797Y88629672D01*
X171887647Y88474800D01*
X171794515Y88335419D01*
X171675981Y88216885D01*
X171536600Y88123753D01*
X171381728Y88059603D01*
X171283081Y88039981D01*
X171217318Y88026900D01*
X171049682Y88026900D01*
X170983919Y88039981D01*
X170885272Y88059603D01*
X170730400Y88123753D01*
X170591019Y88216885D01*
X170472485Y88335419D01*
X170379353Y88474800D01*
X170315203Y88629672D01*
X170282500Y88794084D01*
X170282500Y88961716D01*
X170315203Y89126128D01*
X170379353Y89281000D01*
X170472485Y89420381D01*
X170591019Y89538915D01*
X170730400Y89632047D01*
X170885272Y89696197D01*
X170983919Y89715819D01*
X171049682Y89728900D01*
X171217318Y89728900D01*
X171283081Y89715819D01*
G37*
G36*
X205397653Y94900078D02*
G01*
X205397656Y94900077D01*
X205397655Y94900077D01*
X205619862Y94808035D01*
X205819841Y94674414D01*
X205989914Y94504341D01*
X206051315Y94412448D01*
X206123536Y94304360D01*
X206215578Y94082153D01*
X206262500Y93846258D01*
X206262500Y93605742D01*
X206215578Y93369847D01*
X206215577Y93369845D01*
X206123535Y93147638D01*
X205989914Y92947659D01*
X205819841Y92777586D01*
X205619862Y92643965D01*
X205619861Y92643964D01*
X205619860Y92643964D01*
X205397653Y92551922D01*
X205161758Y92505000D01*
X204921242Y92505000D01*
X204685347Y92551922D01*
X204463140Y92643964D01*
X204463139Y92643964D01*
X204463138Y92643965D01*
X204263159Y92777586D01*
X204093086Y92947659D01*
X203959465Y93147638D01*
X203867423Y93369845D01*
X203867422Y93369847D01*
X203820500Y93605742D01*
X203820500Y93846258D01*
X203867422Y94082153D01*
X203959464Y94304360D01*
X204031686Y94412448D01*
X204093086Y94504341D01*
X204263159Y94674414D01*
X204463138Y94808035D01*
X204685345Y94900077D01*
X204685344Y94900077D01*
X204685347Y94900078D01*
X204921242Y94947000D01*
X205161758Y94947000D01*
X205397653Y94900078D01*
G37*
G36*
X200317653Y94900078D02*
G01*
X200317656Y94900077D01*
X200317655Y94900077D01*
X200539862Y94808035D01*
X200739841Y94674414D01*
X200909914Y94504341D01*
X200971315Y94412448D01*
X201043536Y94304360D01*
X201135578Y94082153D01*
X201182500Y93846258D01*
X201182500Y93605742D01*
X201135578Y93369847D01*
X201135577Y93369845D01*
X201043535Y93147638D01*
X200909914Y92947659D01*
X200739841Y92777586D01*
X200539862Y92643965D01*
X200539861Y92643964D01*
X200539860Y92643964D01*
X200317653Y92551922D01*
X200081758Y92505000D01*
X199841242Y92505000D01*
X199605347Y92551922D01*
X199383140Y92643964D01*
X199383139Y92643964D01*
X199383138Y92643965D01*
X199183159Y92777586D01*
X199013086Y92947659D01*
X198879465Y93147638D01*
X198787423Y93369845D01*
X198787422Y93369847D01*
X198740500Y93605742D01*
X198740500Y93846258D01*
X198787422Y94082153D01*
X198879464Y94304360D01*
X198951686Y94412448D01*
X199013086Y94504341D01*
X199183159Y94674414D01*
X199383138Y94808035D01*
X199605345Y94900077D01*
X199605344Y94900077D01*
X199605347Y94900078D01*
X199841242Y94947000D01*
X200081758Y94947000D01*
X200317653Y94900078D01*
G37*
G36*
X195397653Y94900078D02*
G01*
X195397656Y94900077D01*
X195397655Y94900077D01*
X195619862Y94808035D01*
X195819841Y94674414D01*
X195989914Y94504341D01*
X196051315Y94412448D01*
X196123536Y94304360D01*
X196215578Y94082153D01*
X196262500Y93846258D01*
X196262500Y93605742D01*
X196215578Y93369847D01*
X196215577Y93369845D01*
X196123535Y93147638D01*
X195989914Y92947659D01*
X195819841Y92777586D01*
X195619862Y92643965D01*
X195619861Y92643964D01*
X195619860Y92643964D01*
X195397653Y92551922D01*
X195161758Y92505000D01*
X194921242Y92505000D01*
X194685347Y92551922D01*
X194463140Y92643964D01*
X194463139Y92643964D01*
X194463138Y92643965D01*
X194263159Y92777586D01*
X194093086Y92947659D01*
X193959465Y93147638D01*
X193867423Y93369845D01*
X193867422Y93369847D01*
X193820500Y93605742D01*
X193820500Y93846258D01*
X193867422Y94082153D01*
X193959464Y94304360D01*
X194031686Y94412448D01*
X194093086Y94504341D01*
X194263159Y94674414D01*
X194463138Y94808035D01*
X194685345Y94900077D01*
X194685344Y94900077D01*
X194685347Y94900078D01*
X194921242Y94947000D01*
X195161758Y94947000D01*
X195397653Y94900078D01*
G37*
G36*
X121481579Y97587553D02*
G01*
X121782042Y97463097D01*
X122052451Y97282415D01*
X122282415Y97052451D01*
X122463097Y96782042D01*
X122587553Y96481579D01*
X122651000Y96162609D01*
X122651000Y95837391D01*
X122587553Y95518421D01*
X122463097Y95217958D01*
X122282415Y94947549D01*
X122052451Y94717585D01*
X121782042Y94536903D01*
X121481579Y94412447D01*
X121162609Y94349000D01*
X120837391Y94349000D01*
X120518421Y94412447D01*
X120217958Y94536903D01*
X119947549Y94717585D01*
X119717585Y94947549D01*
X119536903Y95217958D01*
X119412447Y95518421D01*
X119349000Y95837391D01*
X119349000Y96162609D01*
X119412447Y96481579D01*
X119536903Y96782042D01*
X119717585Y97052451D01*
X119947549Y97282415D01*
X120217958Y97463097D01*
X120518421Y97587553D01*
X120837391Y97651000D01*
X121162609Y97651000D01*
X121481579Y97587553D01*
G37*
G36*
X213481579Y97587553D02*
G01*
X213782042Y97463097D01*
X214052451Y97282415D01*
X214282415Y97052451D01*
X214463097Y96782042D01*
X214587553Y96481579D01*
X214651000Y96162609D01*
X214651000Y95837391D01*
X214587553Y95518421D01*
X214463097Y95217958D01*
X214282415Y94947549D01*
X214052451Y94717585D01*
X213782042Y94536903D01*
X213481579Y94412447D01*
X213162609Y94349000D01*
X212837391Y94349000D01*
X212518421Y94412447D01*
X212217958Y94536903D01*
X211947549Y94717585D01*
X211717585Y94947549D01*
X211536903Y95217958D01*
X211412447Y95518421D01*
X211349000Y95837391D01*
X211349000Y96162609D01*
X211412447Y96481579D01*
X211536903Y96782042D01*
X211717585Y97052451D01*
X211947549Y97282415D01*
X212217958Y97463097D01*
X212518421Y97587553D01*
X212837391Y97651000D01*
X213162609Y97651000D01*
X213481579Y97587553D01*
G37*
G36*
X200862500Y97206500D02*
G01*
X199060500Y97206500D01*
X199060500Y99008500D01*
X200862500Y99008500D01*
X200862500Y97206500D01*
G37*
G36*
X203402500Y97206500D02*
G01*
X201600500Y97206500D01*
X201600500Y99008500D01*
X203402500Y99008500D01*
X203402500Y97206500D01*
G37*
G36*
X198322500Y97206500D02*
G01*
X196520500Y97206500D01*
X196520500Y99008500D01*
X198322500Y99008500D01*
X198322500Y97206500D01*
G37*
M02*
