M48
; DRILL file {KiCad (5.1.5)-3} date 09/15/21 23:35:47
; FORMAT={-:-/ absolute / inch / decimal}
; #@! TF.CreationDate,2021-09-15T23:35:47+03:00
; #@! TF.GenerationSoftware,Kicad,Pcbnew,(5.1.5)-3
; #@! TF.FileFunction,Plated,1,4,PTH
FMAT,2
INCH
T1C0.0157
T2C0.0315
T3C0.0394
T4C0.0512
%
G90
G05
T1
X4.65Y2.5
X4.6525Y2.92
X4.665Y3.2075
X4.6825Y1.82
X4.7441Y0.4759
X4.7575Y1.9369
X4.7825Y1.0425
X4.785Y0.7525
X4.8Y0.5625
X4.8025Y0.6625
X4.8025Y0.6125
X4.8059Y1.2097
X4.8825Y0.6275
X4.955Y1.9725
X5.005Y1.255
X5.075Y1.8225
X5.09Y0.775
X5.14Y1.13
X5.1416Y0.4684
X5.1425Y1.25
X5.16Y1.9394
X5.16Y1.2075
X5.1825Y0.745
X5.1975Y0.655
X5.1975Y0.605
X5.1975Y0.555
X5.2575Y1.9775
X5.2741Y2.5926
X5.275Y2.835
X5.28Y3.075
X5.3575Y1.975
X5.3625Y1.2475
X5.375Y2.63
X5.3757Y2.8725
X5.3825Y3.1125
X5.41Y0.3575
X5.415Y1.2475
X5.415Y1.9775
X5.415Y1.1325
X5.44Y2.7825
X5.485Y0.76
X5.5175Y1.125
X5.535Y1.21
X5.5366Y0.4684
X5.5475Y2.615
X5.5625Y1.8675
X5.5825Y0.745
X5.5975Y1.9394
X5.5975Y0.655
X5.5975Y0.6075
X5.5975Y0.5525
X5.7075Y0.89
X5.74Y2.8275
X5.74Y1.2475
X5.7875Y2.68
X5.7875Y1.1325
X5.7925Y2.91
X5.795Y1.975
X5.8875Y0.0975
X5.9075Y0.725
X5.935Y1.2475
X5.9425Y2.6425
X6.07Y1.9675
X6.15Y1.875
X6.1875Y0.0725
X6.2025Y3.1981
X6.21Y1.255
X6.215Y2.775
X6.2225Y1.365
X6.255Y1.8975
X6.255Y1.56
X6.255Y0.75
X6.2925Y0.4475
X6.2952Y0.8434
X6.3Y2.2125
X6.3425Y1.7725
X6.3425Y1.435
X6.3425Y0.625
X6.36Y0.4475
X6.3925Y1.7725
X6.3925Y1.43
X6.3925Y0.625
X6.393Y2.1545
X6.44Y0.444
X6.4425Y0.825
X6.475Y2.5
X6.4775Y2.7
X6.4775Y2.3675
X6.48Y2.905
X6.48Y2.8
X6.4825Y0.2875
X6.5015Y0.8255
X6.5425Y2.195
X6.5425Y1.97
X6.5425Y1.4875
X6.5425Y0.6875
X6.5725Y2.605
X6.5925Y0.075
X6.5927Y0.4959
X6.6425Y0.3575
X6.665Y3.3981
X6.6775Y1.705
X6.6793Y0.75
X6.685Y0.855
X6.7025Y1.0925
X6.8275Y3.535
X6.83Y3.035
X6.875Y3.485
X6.8775Y3.4181
X6.9675Y2.31
X7.095Y0.395
X7.15Y0.06
X7.195Y0.06
X7.2475Y1.9275
X7.265Y2.74
X7.2675Y2.8675
X7.315Y1.19
X7.315Y0.905
X7.315Y0.62
X7.3425Y1.695
X7.3425Y1.3775
X7.375Y2.17
X7.4225Y1.93
X7.445Y1.83
X7.475Y0.8125
X7.475Y0.5525
X7.4825Y1.6975
X7.4825Y1.435
X7.555Y1.8225
X7.5575Y0.6825
X7.5625Y1.565
X7.59Y3.69
X7.6225Y1.965
X7.6925Y0.075
X7.695Y0.3475
X7.71Y0.9725
X7.7375Y1.9675
X7.805Y2.0725
X7.815Y0.3475
X7.82Y0.075
X7.8325Y2.28
X7.835Y1.2875
X7.87Y1.9675
X7.8975Y3.1925
X7.9075Y2.9025
X7.915Y0.075
X7.935Y2.11
X7.9575Y2.6975
X7.9575Y2.5625
X7.9575Y2.455
X7.9725Y3.515
X7.98Y0.67
X7.99Y1.755
X7.99Y1.715
X7.99Y1.67
X7.99Y0.895
X7.99Y0.85
X7.99Y0.8025
X8.0Y2.275
X8.01Y0.3475
X8.01Y0.075
X8.0425Y3.0575
X8.11Y2.9325
X8.115Y3.2275
X8.1325Y0.075
X8.14Y0.3475
X8.19Y1.5275
X8.19Y0.67
X8.1975Y2.4525
X8.2Y2.5525
X8.2025Y2.6525
X8.31Y3.2775
X8.37Y0.795
X8.4775Y2.3525
T2
X6.1375Y3.4991
X6.1375Y3.3991
X6.1375Y3.2991
X6.1375Y3.1991
X6.1375Y3.0991
X6.1375Y2.9991
X6.1375Y2.8991
X6.1375Y2.7991
X6.1375Y2.6991
X6.1375Y2.5991
X6.1375Y2.4991
X6.1375Y2.3991
X6.1375Y2.2991
X6.1375Y2.1991
X6.1375Y2.0991
X6.7375Y3.4991
X6.7375Y3.3991
X6.7375Y3.2991
X6.7375Y3.1991
X6.7375Y3.0991
X6.7375Y2.9991
X6.7375Y2.8991
X6.7375Y2.7991
X6.7375Y2.6991
X6.7375Y2.5991
X6.7375Y2.4991
X6.7375Y2.3991
X6.7375Y2.2991
X6.7375Y2.1991
X6.7375Y2.0991
T3
X6.9924Y0.2118
X5.41Y2.1175
X8.4075Y2.4525
X6.7924Y0.2118
X8.4075Y2.9525
X7.1924Y0.2118
X8.3075Y2.8525
X6.1924Y0.2118
X6.035Y2.6966
X7.11Y1.615
X8.4075Y3.1525
X7.495Y1.143
X6.5924Y0.2118
X7.8725Y3.8625
X8.4075Y2.7525
X5.9924Y0.2118
X5.255Y2.1125
X6.035Y2.3491
X5.7924Y0.2118
X6.85Y2.7891
X6.8924Y0.2118
X7.054Y1.805
X8.4075Y3.0525
X8.4075Y2.8525
X6.4924Y0.2118
X6.0924Y0.2118
X6.035Y2.2241
X6.7925Y0.1
X5.992Y0.1075
X7.0Y2.5636
X6.954Y1.805
X8.425Y0.505
X8.4075Y2.3525
X6.904Y3.2376
X6.2924Y0.2118
X5.8924Y0.2118
X6.035Y2.4741
X6.035Y3.1991
X5.3799Y1.3415
X8.4075Y2.5525
X7.3924Y0.2118
X8.3075Y3.0525
X5.1006Y2.1116
X6.035Y2.9991
X6.035Y2.0991
X7.6625Y2.19
X5.2589Y1.3415
X8.4075Y2.6525
X6.6924Y0.2118
X7.2924Y0.2118
X6.85Y2.6641
X6.85Y2.9141
X7.7725Y3.8625
X5.1379Y1.3415
X7.9725Y3.8625
X7.0924Y0.2118
X8.3075Y2.9525
X6.3924Y0.2118
X8.3075Y3.1525
X6.39Y0.1025
T4
X7.6788Y3.69
X7.8725Y3.69
X8.0725Y3.69
T0
M30
